SplineFontDB: 3.2
FontName: SeriousShanns
FullName: Serious Shanns
FamilyName: Serious Shanns
Weight: Book
Copyright: https://github.com/kaBeech/serious-shanns/blob/main/LICENSE
Version: 6.0.0
ItalicAngle: 0
UnderlinePosition: 0
UnderlineWidth: 0
Ascent: 800
Descent: 200
InvalidEm: 0
sfntRevision: 0x00003333
LayerCount: 2
Layer: 0 0 "Back" 1
Layer: 1 0 "Fore" 0
XUID: [1021 45 630387186 12505762]
StyleMap: 0x0040
FSType: 0
OS2Version: 3
OS2_WeightWidthSlopeOnly: 0
OS2_UseTypoMetrics: 0
CreationTime: 1532631502
ModificationTime: 315532800
PfmFamily: 49
TTFWeight: 400
TTFWidth: 5
LineGap: 0
VLineGap: 0
Panose: 0 0 0 0 0 0 0 0 0 0
OS2TypoAscent: 613
OS2TypoAOffset: 0
OS2TypoDescent: -188
OS2TypoDOffset: 0
OS2TypoLinegap: 98
OS2WinAscent: 778
OS2WinAOffset: 0
OS2WinDescent: 308
OS2WinDOffset: 0
HheadAscent: 796
HheadAOffset: 0
HheadDescent: -317
HheadDOffset: 0
OS2SubXSize: 317
OS2SubYSize: 293
OS2SubXOff: 0
OS2SubYOff: 37
OS2SupXSize: 317
OS2SupYSize: 293
OS2SupXOff: 0
OS2SupYOff: 171
OS2StrikeYSize: 0
OS2StrikeYPos: 132
OS2CapHeight: 576
OS2XHeight: 485
OS2Vendor: 'NONE'
OS2CodePages: 00000001.00000000
OS2UnicodeRanges: 00000001.00000000.00000000.00000000
MarkAttachClasses: 1
DEI: 91125
LangName: 1033 "" "" "Normal" "FontForge 2.0 : Serious Shanns : 11-6-2024" "" "Version 0.2.0"
Encoding: UnicodeBmp
Compacted: 1
UnicodeInterp: none
NameList: AGL For New Fonts
DisplaySize: -48
AntiAlias: 1
FitToEm: 0
WinInfo: 0 16 11
BeginPrivate: 8
BlueValues 32 [-40 -6 502 523 708 718 765 769]
OtherBlues 11 [-297 -287]
BlueScale 9 0.0291667
BlueShift 1 2
StdHW 4 [85]
StdVW 4 [96]
StemSnapH 7 [65 85]
StemSnapV 4 [96]
EndPrivate
BeginChars: 65537 97

StartChar: .notdef
Encoding: 65536 -1 0
Width: 593
GlyphClass: 1
Flags: W
HStem: -268 54<136 457> 695 54<136 457>
VStem: 83 53<-214 695> 457 54<-214 695>
LayerCount: 2
Fore
SplineSet
83 -268 m 1
 83 749 l 1
 511 749 l 1
 511 -268 l 1
 83 -268 l 1
136 -214 m 1
 457 -214 l 1
 457 695 l 1
 136 695 l 1
 136 -214 l 1
EndSplineSet
Validated: 1
EndChar

StartChar: exclam
Encoding: 33 33 1
Width: 593
GlyphClass: 2
Flags: HMW
HStem: -24.5727 153.613
VStem: 214.997 164.001 255.997 92.3857
LayerCount: 2
Fore
SplineSet
356 738 m 0xa0
 356 732 354.498046875 688.16796875 351.498046875 606.500976562 c 0
 349.420898438 549.961914062 348.3828125 500.692382812 348.3828125 458.692382812 c 0
 348.3828125 440.026367188 348.587890625 422.795898438 348.998046875 407.000976562 c 0
 349.6640625 382.000976562 349.997070312 362.04296875 349.997070312 347.125976562 c 0
 349.997070312 332.208984375 349.6640625 322.333984375 348.997070312 317.5 c 0
 348.108398438 311.056640625 347.6640625 302.022460938 347.6640625 290.397460938 c 0
 347.6640625 284.580078125 347.775390625 278.114257812 347.998046875 271 c 0
 346.665039062 256.333007812 340.998046875 244.833007812 330.998046875 236.5 c 0
 321.739257812 228.784179688 310.765625 224.926757812 298.078125 224.926757812 c 0
 297.0625 224.926757812 296.036132812 224.951171875 294.999023438 225.000976562 c 0
 281.666015625 225.000976562 270.666015625 229.333984375 261.999023438 238.000976562 c 0
 254.487304688 245.512695312 250.731445312 256.029296875 250.731445312 269.55078125 c 0
 250.731445312 271.629882812 250.8203125 273.780273438 250.998046875 276.001953125 c 0
 251.665039062 286.001953125 252.665039062 295.668945312 253.998046875 305.001953125 c 0
 255.331054688 314.334960938 256.1640625 322.16796875 256.497070312 328.500976562 c 0
 256.830078125 334.833984375 257.330078125 349.833984375 257.997070312 373.500976562 c 0
 258.1640625 379.41796875 258.247070312 385.762695312 258.247070312 392.534179688 c 0
 258.247070312 412.846679688 257.497070312 437.001953125 255.997070312 465.000976562 c 0
 255.330078125 491.000976562 254.830078125 518.500976562 254.497070312 547.500976562 c 0
 254.385742188 557.158203125 254.330078125 566.279296875 254.330078125 574.864257812 c 0
 254.330078125 592.059570312 254.552734375 607.10546875 254.998046875 620 c 0
 255.665039062 639.333007812 256.33203125 661.333007812 256.999023438 686 c 0
 257.666015625 710.666992188 257.999023438 727 257.999023438 735 c 0
 258.666015625 753 263.833007812 766.666992188 273.5 776 c 0
 283.166992188 785.333007812 295 790 309 790 c 0
 310 790.047851562 310.986328125 790.071289062 311.959960938 790.071289062 c 0
 324.60546875 790.071289062 334.952148438 786.047851562 343 778 c 0
 351.666992188 769.333007812 356 756 356 738 c 0xa0
298.998046875 -23.9990234375 m 0
 295.47265625 -24.3798828125 292.0390625 -24.5703125 288.697265625 -24.5703125 c 0
 268.658203125 -24.5703125 251.924804688 -17.7158203125 238.497070312 -4.0029296875 c 0
 222.830078125 11.9970703125 214.997070312 31.330078125 214.997070312 53.9970703125 c 0
 214.997070312 73.9970703125 223.830078125 91.330078125 241.497070312 105.997070312 c 0
 259.1640625 120.6640625 278.331054688 128.331054688 298.998046875 128.998046875 c 0
 300.03515625 129.02734375 301.064453125 129.041992188 302.0859375 129.041992188 c 0
 324.02734375 129.041992188 342.165039062 122.194335938 356.498046875 108.499023438 c 0
 371.498046875 94.166015625 378.998046875 76.3330078125 378.998046875 55 c 0xc0
 378.998046875 33.6669921875 371.665039062 15.833984375 356.998046875 1.5009765625 c 0
 342.331054688 -12.83203125 322.998046875 -21.33203125 298.998046875 -23.9990234375 c 0
EndSplineSet
Validated: 524289
EndChar

StartChar: quotedbl
Encoding: 34 34 2
Width: 593
GlyphClass: 2
Flags: HMW
VStem: 167.571 101.426 325.523 103.475
LayerCount: 2
Fore
SplineSet
270 738 m 0
 270.221679688 728.908203125 270.33203125 717.880859375 270.33203125 704.916015625 c 0
 270.33203125 678.904296875 269.885742188 645.09765625 268.99609375 603.498046875 c 0
 267.663085938 541.165039062 265.330078125 498.33203125 261.997070312 474.999023438 c 0
 259.997070312 461.666015625 254.330078125 451.666015625 244.997070312 444.999023438 c 0
 236.512695312 438.938476562 227.202148438 435.908203125 217.065429688 435.908203125 c 0
 216.051757812 435.908203125 215.029296875 435.938476562 213.999023438 435.999023438 c 0
 200.666015625 436.666015625 188.833007812 440.833007812 178.5 448.5 c 0
 169.34765625 455.291015625 164.771484375 464.565429688 164.771484375 476.32421875 c 0
 164.771484375 480.546875 167.571289062 511.731445312 167.571289062 589.744140625 c 0
 167.571289062 596.965820312 167.547851562 604.383789062 167.5 611.999023438 c 0
 167.166992188 665.33203125 166 709.33203125 164 743.999023438 c 0
 163.333007812 751.999023438 164.833007812 758.83203125 168.5 764.499023438 c 0
 172.166992188 770.166015625 177 774.333007812 183 777 c 0
 189 779.666992188 195.166992188 781.5 201.5 782.5 c 0
 207.833007812 783.5 214 783.666992188 220 783 c 0
 226 783 231.666992188 782.333007812 237 781 c 0
 242.333007812 779.666992188 247.5 777.5 252.5 774.5 c 0
 257.5 771.5 261.666992188 766.833007812 265 760.5 c 0
 268.333007812 754.166992188 270 746.666992188 270 738 c 0
429.99609375 737.997070312 m 0
 430.21875 728.875976562 430.329101562 717.805664062 430.329101562 704.786132812 c 0
 430.329101562 678.791015625 429.885742188 645.026367188 428.998046875 603.495117188 c 0
 427.665039062 541.162109375 425.665039062 498.329101562 422.998046875 474.99609375 c 0
 420.998046875 461.663085938 415.165039062 451.663085938 405.498046875 444.99609375 c 0
 396.709960938 438.935546875 387.508789062 435.905273438 377.89453125 435.905273438 c 0
 376.932617188 435.905273438 375.966796875 435.935546875 374.997070312 435.99609375 c 0
 361.6640625 436.663085938 349.6640625 440.830078125 338.997070312 448.497070312 c 0
 330.014648438 454.953125 325.5234375 463.654296875 325.5234375 474.6015625 c 0
 325.5234375 476.654296875 325.681640625 478.786132812 325.997070312 480.997070312 c 0
 327.497070312 506.49609375 328.247070312 537.432617188 328.247070312 573.805664062 c 0
 328.247070312 585.931640625 328.1640625 598.662109375 327.997070312 611.99609375 c 0
 327.330078125 665.329101562 325.997070312 709.329101562 323.997070312 743.99609375 c 0
 323.997070312 751.99609375 325.830078125 758.829101562 329.497070312 764.49609375 c 0
 333.1640625 770.163085938 337.997070312 774.330078125 343.997070312 776.997070312 c 0
 349.997070312 779.6640625 355.997070312 781.497070312 361.997070312 782.497070312 c 0
 367.997070312 783.497070312 373.997070312 783.6640625 379.997070312 782.997070312 c 0
 385.997070312 782.997070312 391.6640625 782.330078125 396.997070312 780.997070312 c 0
 402.330078125 779.6640625 407.663085938 777.497070312 412.99609375 774.497070312 c 0
 418.329101562 771.497070312 422.49609375 766.830078125 425.49609375 760.497070312 c 0
 428.49609375 754.1640625 429.99609375 746.6640625 429.99609375 737.997070312 c 0
EndSplineSet
Validated: 524289
EndChar

StartChar: numbersign
Encoding: 35 35 3
Width: 593
GlyphClass: 2
Flags: HMW
HStem: 192 82 445 84 697.667 20G
LayerCount: 2
Fore
SplineSet
183 42 m 0
 178.333007812 28 168.665039062 16.4990234375 153.998046875 7.4990234375 c 0
 143.84375 1.2685546875 134.168945312 -1.8466796875 124.973632812 -1.8466796875 c 0
 120.88671875 -1.8466796875 116.89453125 -1.2314453125 112.997070312 -0.0009765625 c 0
 100.330078125 2.666015625 90.9970703125 11.166015625 84.9970703125 25.4990234375 c 0
 81.8203125 33.0869140625 80.232421875 41.095703125 80.232421875 49.5244140625 c 0
 80.232421875 57.0166015625 81.4873046875 64.8408203125 83.9970703125 72.998046875 c 0
 89.330078125 90.998046875 98.6630859375 129.665039062 111.99609375 188.998046875 c 1
 81.99609375 188.998046875 l 2
 65.3291015625 188.998046875 52.662109375 192.331054688 43.9951171875 198.998046875 c 0
 31.25 208.801757812 30.91796875 221.170898438 30.91796875 228.732421875 c 0
 30.91796875 239.524414062 34.6103515625 248.61328125 41.9951171875 255.998046875 c 0
 49.9951171875 263.998046875 62.662109375 268.665039062 79.9951171875 269.998046875 c 0
 85.328125 269.998046875 93.4951171875 270.165039062 104.495117188 270.498046875 c 0
 115.495117188 270.831054688 123.662109375 270.998046875 128.995117188 270.998046875 c 1
 162.995117188 443.998046875 l 1
 157.662109375 443.998046875 150.329101562 443.831054688 140.99609375 443.498046875 c 0
 131.663085938 443.165039062 125.330078125 442.998046875 121.997070312 442.998046875 c 0
 120.663085938 442.944335938 119.353515625 442.91796875 118.068359375 442.91796875 c 0
 103.299804688 442.91796875 91.7763671875 446.444335938 83.4970703125 453.498046875 c 0
 70.240234375 464.791015625 69.9248046875 477.244140625 69.9248046875 484.541992188 c 0
 69.9248046875 495.44140625 73.9482421875 504.759765625 81.99609375 512.497070312 c 0
 90.6630859375 520.830078125 103.663085938 525.330078125 120.99609375 525.997070312 c 0
 133.663085938 526.6640625 152.99609375 526.997070312 178.99609375 526.997070312 c 1
 197.663085938 627.6640625 207.330078125 679.6640625 207.997070312 682.997070312 c 0
 213.330078125 699.6640625 221.663085938 711.331054688 232.99609375 717.998046875 c 0
 240.551757812 722.443359375 248.255859375 724.666015625 256.108398438 724.666015625 c 0
 260.034179688 724.666015625 263.997070312 724.110351562 267.997070312 722.999023438 c 0
 281.997070312 720.33203125 292.830078125 713.665039062 300.497070312 702.998046875 c 0
 305.840820312 695.563476562 308.512695312 686.509765625 308.512695312 675.836914062 c 0
 308.512695312 671.197265625 308.0078125 666.250976562 306.998046875 660.999023438 c 2
 279.998046875 528.999023438 l 1
 392.998046875 528.999023438 l 1
 419.998046875 674.999023438 l 2
 425.331054688 692.33203125 433.498046875 704.33203125 444.498046875 710.999023438 c 0
 451.83203125 715.444335938 459.684570312 717.666992188 468.055664062 717.666992188 c 0
 472.240234375 717.666992188 476.5546875 717.111328125 480.999023438 716 c 0
 495.666015625 713.333007812 506.666015625 706.666015625 513.999023438 695.999023438 c 0
 518.744140625 689.096679688 521.1171875 680.798828125 521.1171875 671.10546875 c 0
 521.1171875 665.818359375 520.411132812 660.116210938 518.999023438 653.999023438 c 0
 511.666015625 625.999023438 503.333007812 584.999023438 494 530.999023438 c 1
 505 530.999023438 l 2
 521 530.999023438 534.5 526.499023438 545.5 517.499023438 c 0
 556.5 508.499023438 562.333007812 498.999023438 563 488.999023438 c 0
 563 476.999023438 559 466.83203125 551 458.499023438 c 0
 543 450.166015625 530.666992188 445.666015625 514 444.999023438 c 2
 478 444.999023438 l 1
 449 273.999023438 l 1
 490 273.999023438 l 2
 505.333007812 273.999023438 516 270.499023438 522 263.499023438 c 0
 528 256.499023438 531.333007812 247.33203125 532 235.999023438 c 0
 532 206.666015625 518 191.999023438 490 191.999023438 c 2
 434 191.999023438 l 1
 420.666992188 115.999023438 411 64.666015625 405 37.9990234375 c 0
 399.666992188 23.9990234375 390.166992188 13.166015625 376.5 5.4990234375 c 0
 367.518554688 0.4609375 358.609375 -2.0576171875 349.772460938 -2.0576171875 c 0
 345.162109375 -2.0576171875 340.571289062 -1.3720703125 336 -0.0009765625 c 0
 323.333007812 2.666015625 314 10.4990234375 308 23.4990234375 c 0
 304.823242188 30.380859375 303.235351562 37.77734375 303.235351562 45.6875 c 0
 303.235351562 52.71875 304.490234375 60.15625 307 68 c 0
 313.666992188 94.6669921875 322.333984375 135.666992188 333.000976562 191 c 1
 319.000976562 191 298.66796875 190.833007812 272.000976562 190.5 c 0
 245.333984375 190.166992188 225.666992188 190 213 190 c 1
 199 118 189 68.6669921875 183 42 c 0
263.999023438 444.999023438 m 1
 229 273.998046875 l 1
 256.333007812 274.665039062 295.666015625 274.998046875 346.999023438 274.998046875 c 1
 357.666015625 329.665039062 367.999023438 386.33203125 377.999023438 444.999023438 c 1
 263.999023438 444.999023438 l 1
EndSplineSet
Validated: 524289
EndChar

StartChar: dollar
Encoding: 36 36 4
Width: 593
GlyphClass: 2
Flags: HMW
HStem: -28.9932 84.9932 642.998 79.002
VStem: 70.999 92.001 258.999 87.001 449.001 92.999
LayerCount: 2
Fore
SplineSet
339 -99 m 0
 337.666992188 -113.666992188 332 -124.993164062 322 -132.993164062 c 0
 312 -140.993164062 300.333007812 -144.993164062 287 -144.993164062 c 0
 274.333007812 -144.993164062 264.833007812 -140.493164062 258.5 -131.493164062 c 0
 253.268554688 -124.05859375 250.65234375 -114.0078125 250.65234375 -101.340820312 c 0
 250.65234375 -98.6748046875 250.768554688 -95.892578125 251 -92.994140625 c 0
 251.888671875 -82.330078125 252.333007812 -69.296875 252.333007812 -53.89453125 c 0
 252.333007812 -46.1875 252.221679688 -37.8876953125 251.999023438 -28.994140625 c 1
 248.999023438 -28.994140625 l 2
 224.999023438 -28.994140625 202.499023438 -25.994140625 181.499023438 -19.994140625 c 0
 160.499023438 -13.994140625 142.499023438 -5.994140625 127.499023438 4.005859375 c 0
 112.499023438 14.005859375 99.4990234375 24.6728515625 88.4990234375 36.005859375 c 0
 77.4990234375 47.3388671875 68.666015625 59.671875 61.9990234375 73.0048828125 c 0
 55.9990234375 86.5048828125 52.9990234375 98.1298828125 52.9990234375 107.879882812 c 0
 52.9990234375 111.129882812 53.33203125 114.171875 53.9990234375 117.004882812 c 0
 56.666015625 128.337890625 63.666015625 136.670898438 74.9990234375 142.00390625 c 0
 82.9990234375 145.336914062 89.33203125 147.669921875 93.9990234375 149.002929688 c 0
 98.666015625 150.3359375 103.833007812 150.668945312 109.5 150.001953125 c 0
 115.166992188 149.334960938 120.666992188 146.66796875 126 142.000976562 c 0
 131.333007812 137.333984375 137 130.666992188 143 122 c 0
 156.333007812 101.333007812 171.666015625 85.166015625 188.999023438 73.4990234375 c 0
 206.33203125 61.83203125 227.33203125 55.9990234375 251.999023438 55.9990234375 c 2
 255.999023438 55.9990234375 l 1
 257.33203125 167.33203125 257.999023438 266.665039062 257.999023438 353.998046875 c 1
 254.666015625 353.998046875 248.833007812 354.665039062 240.5 355.998046875 c 0
 232.166992188 357.331054688 226 357.998046875 222 357.998046875 c 0
 198 360.665039062 176 366.998046875 156 376.998046875 c 0
 136 386.998046875 120.166992188 399.165039062 108.5 413.498046875 c 0
 96.8330078125 427.831054688 87.666015625 442.831054688 80.9990234375 458.498046875 c 0
 74.33203125 474.165039062 70.9990234375 489.998046875 70.9990234375 505.998046875 c 0
 70.9990234375 529.998046875 74.666015625 552.998046875 81.9990234375 574.998046875 c 0
 89.33203125 596.998046875 100.499023438 617.498046875 115.499023438 636.498046875 c 0
 130.499023438 655.498046875 149.999023438 671.831054688 173.999023438 685.498046875 c 0
 197.999023438 699.165039062 226.33203125 708.665039062 258.999023438 713.998046875 c 1
 259.666015625 729.998046875 259.999023438 749.331054688 259.999023438 771.998046875 c 0
 260.666015625 808.665039062 274.333007812 826.998046875 301 826.998046875 c 0
 301.555664062 827.010742188 302.106445312 827.016601562 302.65234375 827.016601562 c 0
 331.55078125 827.016601562 346 809.677734375 346 774.999023438 c 2
 346 721.999023438 l 1
 360.666992188 721.33203125 381.166992188 717.999023438 407.5 711.999023438 c 0
 433.833007812 705.999023438 453.333007812 700.33203125 466 694.999023438 c 0
 478.666992188 690.33203125 487.666992188 682.999023438 493 672.999023438 c 0
 497.266601562 664.999023438 499.399414062 656.572265625 499.399414062 647.71875 c 0
 499.399414062 645.505859375 499.266601562 643.266601562 499 641 c 0
 498.333007812 633 495.833007812 626.833007812 491.5 622.5 c 0
 487.166992188 618.166992188 481.833984375 615.5 475.500976562 614.5 c 0
 469.16796875 613.5 463.16796875 613.333007812 457.500976562 614 c 0
 451.833984375 614.666992188 445.666992188 615.666992188 439 617 c 0
 433 618.333007812 425.5 621.166015625 416.5 625.499023438 c 0
 407.5 629.83203125 397.333007812 633.665039062 386 636.998046875 c 0
 374.666992188 640.331054688 361 642.331054688 345 642.998046875 c 1
 344.333007812 589.665039062 343 518.998046875 341 430.998046875 c 1
 371.666992188 426.998046875 399 419.831054688 423 409.498046875 c 0
 447 399.165039062 466.166992188 387.33203125 480.5 373.999023438 c 0
 494.833007812 360.666015625 507 345.333007812 517 328 c 0
 527 310.666992188 533.666992188 293.666992188 537 277 c 0
 540.333007812 260.333007812 542 243 542 225 c 0
 542 194.333007812 536.833007812 165.333007812 526.5 138 c 0
 516.166992188 110.666992188 501.666992188 87 483 67 c 0
 464.333007812 47 442.666015625 29.6669921875 417.999023438 15 c 0
 393.33203125 0.3330078125 366.33203125 -10.6669921875 336.999023438 -18 c 1
 337.666015625 -58 338.333007812 -85 339 -99 c 0
163 531.006835938 m 0
 163 509.673828125 171.500976562 491.006835938 188.500976562 475.006835938 c 0
 205.500976562 459.006835938 228.66796875 447.673828125 258.000976562 441.006835938 c 1
 258.66796875 487.006835938 259.000976562 551.006835938 259.000976562 633.006835938 c 1
 230.333984375 624.33984375 207.166992188 611.33984375 189.5 594.006835938 c 0
 171.833007812 576.673828125 163 555.673828125 163 531.006835938 c 0
449.000976562 208.006835938 m 0
 449.000976562 220.673828125 447.33203125 232.340820312 443.999023438 243.0078125 c 0
 440.666015625 253.674804688 435.333007812 264.841796875 428 276.508789062 c 0
 420.666992188 288.17578125 409.666992188 299.008789062 395 309.008789062 c 0
 380.333007812 319.008789062 362 327.67578125 340 335.008789062 c 1
 340 305.67578125 339.833007812 261.508789062 339.5 202.508789062 c 0
 339.166992188 143.508789062 338.333984375 100.67578125 337.000976562 74.0087890625 c 1
 369.000976562 87.341796875 395.66796875 105.674804688 417.000976562 129.0078125 c 0
 438.333984375 152.340820312 449.000976562 178.673828125 449.000976562 208.006835938 c 0
EndSplineSet
Validated: 524289
EndChar

StartChar: percent
Encoding: 37 37 5
Width: 593
GlyphClass: 2
Flags: HMW
HStem: -28.0313 75.9731 170.999 74 432 75<165.001 173.334 165.001 176> 632 73
VStem: 38.001 71.919 218.063 70.301 305.931 71.992 424.999 88.8789 484.018 71.7321
LayerCount: 2
Fore
SplineSet
154 432 m 0xfe
 130.666992188 432 109.833984375 438.5 91.5009765625 451.5 c 0
 73.16796875 464.5 59.66796875 480.833007812 51.0009765625 500.5 c 0
 42.333984375 520.166992188 38.0009765625 541.333984375 38.0009765625 564.000976562 c 0
 38.0009765625 605.333984375 49.5009765625 639.166992188 72.5009765625 665.5 c 0
 95.5009765625 691.833007812 128.000976562 705 170.000976562 705 c 0
 186.66796875 705 202.16796875 702.166992188 216.500976562 696.5 c 0
 230.833984375 690.833007812 243.666992188 682.333007812 255 671 c 0
 266.333007812 659.666992188 275 644.166992188 281 624.5 c 0
 285.909179688 608.408203125 288.36328125 590.197265625 288.36328125 569.866210938 c 0
 288.36328125 565.348632812 288.2421875 560.7265625 288 556 c 0
 286 515.333007812 274.166992188 484.5 252.5 463.5 c 0
 230.833007812 442.5 198 432 154 432 c 0xfe
63 19 m 0
 77 47.6669921875 110.16796875 107.833984375 162.500976562 199.500976562 c 0
 214.833984375 291.16796875 267.166992188 383.66796875 319.5 477.000976562 c 0
 371.833007812 570.333984375 407 637.000976562 425 677.000976562 c 0
 433 689.000976562 443.5 696.500976562 456.5 699.500976562 c 0
 460.534179688 700.431640625 464.48828125 700.897460938 468.362304688 700.897460938 c 0
 476.970703125 700.897460938 485.18359375 698.598632812 492.999023438 694.000976562 c 0
 499.669921875 691.036132812 513.877929688 683.4609375 513.877929688 665.655273438 c 0xff
 513.877929688 656.331054688 509.918945312 645.446289062 502 633.001953125 c 0
 477.333007812 592.334960938 418.5 488.66796875 325.5 322.000976562 c 0
 232.5 155.333984375 171 42.6669921875 141 -16 c 0
 128.200195312 -39.630859375 113.764648438 -51.4462890625 97.693359375 -51.4462890625 c 0
 92.0009765625 -51.4462890625 86.103515625 -49.9638671875 80.0009765625 -47 c 0
 63.0693359375 -38.95703125 54.603515625 -27.15234375 54.603515625 -11.5849609375 c 0
 54.603515625 -2.6337890625 57.40234375 7.5615234375 63 19 c 0
165.000976562 507 m 0
 181.66796875 507 194.166992188 512.333007812 202.5 523 c 0
 214.970703125 538.962890625 218.063476562 561.026367188 218.063476562 570.180664062 c 0
 218.063476562 590.727539062 213.375976562 606.000976562 204.000976562 616.000976562 c 0
 194.000976562 626.66796875 180.000976562 632.000976562 162.000976562 632.000976562 c 0
 146.000976562 632.000976562 133.66796875 626.16796875 125.000976562 614.500976562 c 0
 122.083007812 610.572265625 109.920898438 592.4140625 109.920898438 562.6015625 c 0
 109.920898438 546.06640625 113.447265625 533.19921875 120.500976562 524 c 0
 128.16796875 514 143.000976562 508.333007812 165.000976562 507 c 0
421 -28 m 0
 397.666992188 -28 377 -21.5 359 -8.5 c 0
 341 4.5 327.5 20.8330078125 318.5 40.5 c 0
 310.12109375 58.810546875 305.930664062 78.4208984375 305.930664062 99.3310546875 c 0
 305.930664062 122.313476562 307.106445312 167.287109375 340 205.5 c 0
 362.666992188 231.833007812 395 245 437 245 c 0
 453.666992188 245 469.166992188 242.333007812 483.5 237 c 0
 497.833007812 231.666992188 510.833007812 223.166992188 522.5 211.5 c 0
 534.166992188 199.833007812 543 184.166015625 549 164.499023438 c 0
 553.5 149.749023438 555.75 133.217773438 555.75 114.905273438 c 0xfe80
 555.75 108.80078125 555.5 102.499023438 555 95.9990234375 c 0
 553 55.33203125 541.166992188 24.33203125 519.5 2.9990234375 c 0
 498.490234375 -17.6875 466.98046875 -28.0302734375 424.970703125 -28.0302734375 c 0
 423.657226562 -28.0302734375 422.333984375 -28.0205078125 421 -28 c 0
432 48 m 0
 432.915039062 47.9619140625 433.81640625 47.9443359375 434.70703125 47.9443359375 c 0
 449.397460938 47.9443359375 460.828125 53.1298828125 469 63.5009765625 c 0
 470.374023438 65.2451171875 484.017578125 83.193359375 484.017578125 108.302734375 c 0
 484.017578125 150.1015625 466.01171875 171.000976562 430 171.000976562 c 0
 414.666992188 171.000976562 402.5 165.16796875 393.5 153.500976562 c 0
 390.3515625 149.418945312 377.922851562 131.494140625 377.922851562 102.913085938 c 0
 377.922851562 86.8427734375 381.615234375 74.0380859375 389 64.5 c 0
 397 54.1669921875 411.333007812 48.6669921875 432 48 c 0
EndSplineSet
Validated: 524289
EndChar

StartChar: ampersand
Encoding: 38 38 6
Width: 593
GlyphClass: 2
Flags: HMW
HStem: -41.998 93.998 -40.3768 21G 645.001 79
VStem: 38.0029 100.997 125.002 95.998 359 83.002
LayerCount: 2
Fore
SplineSet
522 -35 m 0xac
 516.133789062 -38.5849609375 509.91015625 -40.3779296875 503.327148438 -40.3779296875 c 0x6c
 496.443359375 -40.3779296875 489.16796875 -38.41796875 481.5 -34.4990234375 c 0
 466.5 -26.83203125 453.333007812 -13.6650390625 442 5.001953125 c 0
 440.666992188 8.3349609375 436.833984375 18.3349609375 430.500976562 35.001953125 c 0
 424.16796875 51.6689453125 419.334960938 63.6689453125 416.001953125 71.001953125 c 1
 414.001953125 68.3349609375 409.668945312 62.66796875 403.001953125 54.0009765625 c 0
 396.334960938 45.333984375 391.334960938 39.0009765625 388.001953125 35.0009765625 c 0
 384.668945312 31.0009765625 379.3359375 25.0009765625 372.002929688 17.0009765625 c 0
 364.669921875 9.0009765625 358.169921875 2.833984375 352.502929688 -1.4990234375 c 0
 346.8359375 -5.83203125 339.502929688 -10.9990234375 330.502929688 -16.9990234375 c 0
 321.502929688 -22.9990234375 312.8359375 -27.4990234375 304.502929688 -30.4990234375 c 0
 296.169921875 -33.4990234375 286.169921875 -36.166015625 274.502929688 -38.4990234375 c 0
 262.8359375 -40.83203125 251.002929688 -41.9990234375 239.002929688 -41.9990234375 c 0
 201.669921875 -41.9990234375 167.502929688 -32.33203125 136.502929688 -12.9990234375 c 0
 105.502929688 6.333984375 81.3359375 31.6669921875 64.0029296875 63 c 0
 46.669921875 94.3330078125 38.0029296875 128.333007812 38.0029296875 165 c 0xb4
 38.0029296875 291 90.0029296875 376.666992188 194.002929688 422 c 1
 188.002929688 432 180.8359375 444 172.502929688 458 c 0
 164.169921875 472 158.002929688 481.833007812 154.002929688 487.5 c 0
 150.002929688 493.166992188 145.669921875 500.5 141.002929688 509.5 c 0
 136.3359375 518.5 133.168945312 526.333007812 131.501953125 533 c 0
 129.834960938 539.666992188 128.334960938 547.833984375 127.001953125 557.500976562 c 0
 125.668945312 567.16796875 125.001953125 577.66796875 125.001953125 589.000976562 c 0
 125.001953125 601.000976562 126.501953125 612.833984375 129.501953125 624.500976562 c 0
 132.501953125 636.16796875 138.168945312 648.16796875 146.501953125 660.500976562 c 0
 154.834960938 672.833984375 164.501953125 683.666992188 175.501953125 693 c 0
 186.501953125 702.333007812 201.501953125 709.833007812 220.501953125 715.5 c 0
 239.501953125 721.166992188 261.001953125 724 285.001953125 724 c 0
 304.334960938 724 323.334960938 721 342.001953125 715 c 0
 360.668945312 709 377.501953125 700.166992188 392.501953125 688.5 c 0
 407.501953125 676.833007812 419.501953125 661.5 428.501953125 642.5 c 0
 437.501953125 623.5 442.001953125 602.333007812 442.001953125 579 c 0
 442.001953125 557.666992188 439.334960938 537.833984375 434.001953125 519.500976562 c 0
 428.668945312 501.16796875 421.8359375 485.834960938 413.502929688 473.501953125 c 0
 405.169921875 461.168945312 394.669921875 449.3359375 382.002929688 438.002929688 c 0
 369.3359375 426.669921875 357.668945312 417.669921875 347.001953125 411.002929688 c 0
 336.334960938 404.3359375 324.001953125 397.668945312 310.001953125 391.001953125 c 1
 322.001953125 370.334960938 342.334960938 339.66796875 371.001953125 299.000976562 c 0
 399.668945312 258.333984375 418.001953125 231.333984375 426.001953125 218.000976562 c 1
 430.668945312 227.333984375 436.001953125 238.166992188 442.001953125 250.5 c 0
 448.001953125 262.833007812 452.501953125 272.833007812 455.501953125 280.5 c 0
 458.501953125 288.166992188 461.334960938 293.666992188 464.001953125 297 c 0
 476.001953125 314.333007812 487.501953125 325.166015625 498.501953125 329.499023438 c 0
 502.834960938 331.206054688 507.296875 332.059570312 511.888671875 332.059570312 c 0
 518.953125 332.059570312 526.32421875 330.0390625 534.001953125 325.998046875 c 0
 545.334960938 320.665039062 552.16796875 310.83203125 554.500976562 296.499023438 c 0
 554.99609375 293.458984375 555.243164062 290.336914062 555.243164062 287.131835938 c 0
 555.243164062 275.225585938 551.829101562 262.181640625 545 247.999023438 c 0
 541.666992188 241.999023438 531.666992188 228.666015625 515 207.999023438 c 0
 498.333007812 187.33203125 485 168.33203125 475 150.999023438 c 1
 482.333007812 138.33203125 492.5 120.165039062 505.5 96.498046875 c 0
 518.5 72.8310546875 526.333007812 58.998046875 529 54.998046875 c 0
 537.108398438 42.025390625 541.162109375 27.9560546875 541.162109375 12.7919921875 c 0
 541.162109375 9.25390625 540.94140625 5.65625 540.5 1.9990234375 c 0
 538.166992188 -17.333984375 532 -29.6669921875 522 -35 c 0xac
221.000976562 572 m 0
 221.000976562 555.333007812 225.333984375 537 234.000976562 517 c 0
 242.66796875 497 253.334960938 479.333007812 266.001953125 464 c 1
 280.668945312 468.666992188 293.168945312 473.5 303.501953125 478.5 c 0
 313.834960938 483.5 323.66796875 490 333.000976562 498 c 0
 342.333984375 506 349.000976562 515.833007812 353.000976562 527.5 c 0
 357.000976562 539.166992188 359.000976562 553 359.000976562 569 c 0
 359.000976562 593.666992188 351.500976562 612.5 336.500976562 625.5 c 0
 321.500976562 638.5 303.333984375 645 282.000976562 645 c 0
 241.333984375 645 221.000976562 620.666992188 221.000976562 572 c 0
139.000976562 174 m 0xb4
 139.000976562 139.333007812 148.33203125 110.33203125 166.999023438 86.9990234375 c 0
 185.666015625 63.666015625 209.999023438 51.9990234375 239.999023438 51.9990234375 c 0
 249.33203125 51.9990234375 258.499023438 52.9990234375 267.499023438 54.9990234375 c 0
 276.499023438 56.9990234375 284.166015625 58.9990234375 290.499023438 60.9990234375 c 0
 296.83203125 62.9990234375 303.499023438 66.33203125 310.499023438 70.9990234375 c 0
 317.499023438 75.666015625 322.999023438 79.4990234375 326.999023438 82.4990234375 c 0
 330.999023438 85.4990234375 335.83203125 90.166015625 341.499023438 96.4990234375 c 0
 347.166015625 102.83203125 350.833007812 107.33203125 352.5 109.999023438 c 0
 354.166992188 112.666015625 357.666992188 117.499023438 363 124.499023438 c 0
 368.333007812 131.499023438 371.333007812 135.666015625 372 136.999023438 c 0
 360 162.999023438 350 183.33203125 342 197.999023438 c 0
 334 213.33203125 317.833007812 238.33203125 293.5 272.999023438 c 0
 269.166992188 307.666015625 252 333.333007812 242 350 c 1
 222 341.333007812 204.833007812 330.5 190.5 317.5 c 0
 176.166992188 304.5 165.333984375 290.166992188 158.000976562 274.5 c 0
 150.66796875 258.833007812 145.66796875 243 143.000976562 227 c 0
 140.333984375 211 139.000976562 193.333007812 139.000976562 174 c 0xb4
EndSplineSet
Validated: 524289
EndChar

StartChar: quotesingle
Encoding: 39 39 7
Width: 593
GlyphClass: 2
Flags: HMW
HStem: 445.91 325.59
VStem: 244.002 106.332
LayerCount: 2
Fore
SplineSet
350 728 m 0
 350.22265625 719.106445312 350.333984375 708.600585938 350.333984375 696.482421875 c 0
 350.333984375 672.263671875 349.889648438 641.603515625 349.000976562 604.500976562 c 0
 347.66796875 548.833984375 345.334960938 509.333984375 342.001953125 486.000976562 c 0
 340.001953125 472.000976562 334.168945312 461.66796875 324.501953125 455.000976562 c 0
 315.713867188 448.940429688 306.512695312 445.91015625 296.8984375 445.91015625 c 0
 295.936523438 445.91015625 294.970703125 445.940429688 294.000976562 446.000976562 c 0
 280.66796875 446.66796875 268.834960938 451.000976562 258.501953125 459.000976562 c 0
 249.349609375 466.086914062 244.7734375 475.526367188 244.7734375 487.319335938 c 0
 244.7734375 490.916015625 247.251953125 520.942382812 247.251953125 578.998046875 c 0
 247.251953125 589.666015625 247.168945312 600.666992188 247.001953125 612.000976562 c 0
 246.334960938 657.333984375 245.334960938 697.666992188 244.001953125 733 c 0
 244.001953125 741 245.501953125 748 248.501953125 754 c 0
 251.501953125 760 256.168945312 764.166992188 262.501953125 766.5 c 0
 268.834960938 768.833007812 275.001953125 770.5 281.001953125 771.5 c 0
 287.001953125 772.5 293.001953125 772.666992188 299.001953125 772 c 0
 305.001953125 772 310.668945312 771.333007812 316.001953125 770 c 0
 321.334960938 768.666992188 326.66796875 766.5 332.000976562 763.5 c 0
 337.333984375 760.5 341.666992188 756 345 750 c 0
 348.333007812 744 350 736.666992188 350 728 c 0
EndSplineSet
Validated: 524289
EndChar

StartChar: parenleft
Encoding: 40 40 8
Width: 593
GlyphClass: 2
Flags: HMW
HStem: -130.998 83.998 733.002 81
VStem: 147.118 97.3819
LayerCount: 2
Fore
SplineSet
445 -93 m 0
 445 -103.666992188 440.66796875 -112.6640625 432.000976562 -119.997070312 c 0
 423.333984375 -127.330078125 414.333984375 -130.997070312 405.000976562 -130.997070312 c 0
 360.333984375 -130.997070312 319.833984375 -114.997070312 283.500976562 -82.9970703125 c 0
 247.16796875 -50.9970703125 217.500976562 -6.6640625 194.500976562 50.0029296875 c 0
 171.500976562 106.669921875 156.66796875 172.002929688 150.000976562 246.002929688 c 0
 148.079101562 266.04296875 147.118164062 288.569335938 147.118164062 313.58203125 c 0
 147.118164062 349.314453125 149.079101562 390.12109375 153.000976562 436.002929688 c 0
 159.66796875 514.002929688 172.66796875 578.3359375 192.000976562 629.002929688 c 0
 200.66796875 651.002929688 212.16796875 672.8359375 226.500976562 694.502929688 c 0
 240.833984375 716.169921875 257.166992188 736.002929688 275.5 754.002929688 c 0
 293.833007812 772.002929688 314.5 786.502929688 337.5 797.502929688 c 0
 360.5 808.502929688 383.333007812 814.002929688 406 814.002929688 c 0
 432.681640625 814.002929688 446.022460938 800.979492188 446.022460938 774.93359375 c 0
 446.022460938 767.493164062 445.876953125 751.90625 433.999023438 742.502929688 c 0
 425.999023438 736.169921875 415.999023438 733.002929688 403.999023438 733.002929688 c 0
 386.666015625 733.002929688 370.499023438 728.002929688 355.499023438 718.002929688 c 0
 340.499023438 708.002929688 327.33203125 694.3359375 315.999023438 677.002929688 c 0
 304.666015625 659.669921875 294.833007812 640.669921875 286.5 620.002929688 c 0
 278.166992188 599.3359375 271 577.002929688 265 553.002929688 c 0
 256.333007812 518.3359375 250.333007812 470.668945312 247 410.001953125 c 0
 245.333984375 379.66796875 244.500976562 352.16796875 244.500976562 327.500976562 c 0
 244.500976562 302.833984375 245.333984375 281.000976562 247 262.000976562 c 0
 250.333007812 221.333984375 257.5 181.833984375 268.5 143.500976562 c 0
 279.5 105.16796875 292.333007812 72.16796875 307 44.5009765625 c 0
 321.666992188 16.833984375 337.666992188 -5.3330078125 355 -22 c 0
 372.333007812 -38.6669921875 389 -47 405 -47 c 0
 418.333007812 -47 428.333007812 -50.3330078125 435 -57 c 0
 441.666992188 -63.6669921875 445 -75.6669921875 445 -93 c 0
EndSplineSet
Validated: 524289
EndChar

StartChar: parenright
Encoding: 41 41 9
Width: 593
GlyphClass: 2
Flags: HMW
HStem: -131.005 84 732.998 81.002
VStem: 347.634 99.2482
LayerCount: 2
Fore
SplineSet
444 246 m 0
 436.666992188 172 421.50390625 106.662109375 398.50390625 49.9951171875 c 0
 375.50390625 -6.671875 346.00390625 -51.0048828125 310.00390625 -83.0048828125 c 0
 274.00390625 -115.004882812 233.670898438 -131.004882812 189.00390625 -131.004882812 c 0
 179.670898438 -131.004882812 170.670898438 -127.337890625 162.00390625 -120.004882812 c 0
 153.336914062 -112.671875 149.00390625 -103.671875 149.00390625 -93.0048828125 c 0
 149.00390625 -75.671875 152.50390625 -63.671875 159.50390625 -57.0048828125 c 0
 166.50390625 -50.337890625 176.336914062 -47.0048828125 189.00390625 -47.0048828125 c 0
 204.336914062 -47.0048828125 220.50390625 -38.671875 237.50390625 -22.0048828125 c 0
 254.50390625 -5.337890625 270.336914062 16.8291015625 285.00390625 44.49609375 c 0
 299.670898438 72.1630859375 312.670898438 105.330078125 324.00390625 143.997070312 c 0
 335.336914062 182.6640625 342.336914062 221.997070312 345.00390625 261.997070312 c 0
 346.7578125 281.998046875 347.634765625 305.137695312 347.634765625 331.416992188 c 0
 347.634765625 355.067382812 346.923828125 381.260742188 345.502929688 409.997070312 c 0
 342.502929688 470.6640625 336.3359375 518.331054688 327.002929688 552.998046875 c 0
 321.669921875 576.998046875 315.002929688 599.331054688 307.002929688 619.998046875 c 0
 299.002929688 640.665039062 289.169921875 659.665039062 277.502929688 676.998046875 c 0
 265.8359375 694.331054688 252.668945312 707.998046875 238.001953125 717.998046875 c 0
 223.334960938 727.998046875 207.66796875 732.998046875 191.000976562 732.998046875 c 0
 178.333984375 732.998046875 168.000976562 736.165039062 160.000976562 742.498046875 c 0
 152.000976562 748.831054688 148.000976562 758.998046875 148.000976562 772.998046875 c 0
 148.000976562 781.665039062 149.000976562 788.83203125 151.000976562 794.499023438 c 0
 153.000976562 800.166015625 156.500976562 804.333007812 161.500976562 807 c 0
 166.500976562 809.666992188 170.833984375 811.5 174.500976562 812.5 c 0
 178.16796875 813.5 182.66796875 814 188.000976562 814 c 0
 210.66796875 814 233.500976562 808.5 256.500976562 797.5 c 0
 279.500976562 786.5 300.000976562 772 318.000976562 754 c 0
 336.000976562 736 352.16796875 716.166992188 366.500976562 694.5 c 0
 380.833984375 672.833007812 392.666992188 651 402 629 c 0
 421.333007812 578.333007812 434.333007812 514 441 436 c 0
 444.921875 390.118164062 446.8828125 349.311523438 446.8828125 313.579101562 c 0
 446.8828125 288.56640625 445.921875 266.040039062 444 246 c 0
EndSplineSet
Validated: 524289
EndChar

StartChar: asterisk
Encoding: 42 42 10
Width: 593
GlyphClass: 2
Flags: HMW
HStem: 292.998 103.999 306.499 76.5001
LayerCount: 2
Fore
SplineSet
244 139 m 0x40
 241.333007812 131 236.830078125 124.999023438 230.497070312 120.999023438 c 0
 224.1640625 116.999023438 217.1640625 114.666015625 209.497070312 113.999023438 c 0
 201.830078125 113.33203125 194.497070312 113.83203125 187.497070312 115.499023438 c 0
 180.497070312 117.166015625 174.330078125 119.333007812 168.997070312 122 c 0
 162.997070312 125.333007812 157.997070312 130.166015625 153.997070312 136.499023438 c 0
 149.997070312 142.83203125 147.330078125 150.665039062 145.997070312 159.998046875 c 0
 144.6640625 169.331054688 146.6640625 178.998046875 151.997070312 188.998046875 c 2
 218.997070312 297.998046875 l 1
 164.330078125 294.665039062 123.997070312 292.998046875 97.9970703125 292.998046875 c 0
 81.9970703125 292.998046875 69.330078125 298.331054688 59.9970703125 308.998046875 c 0
 50.6640625 319.665039062 45.9970703125 330.998046875 45.9970703125 342.998046875 c 0
 45.9970703125 348.998046875 46.830078125 355.165039062 48.4970703125 361.498046875 c 0
 50.1640625 367.831054688 52.6640625 373.831054688 55.9970703125 379.498046875 c 0
 59.330078125 385.165039062 64.4970703125 389.665039062 71.4970703125 392.998046875 c 0
 78.4970703125 396.331054688 86.330078125 397.6640625 94.9970703125 396.997070312 c 0x80
 125.6640625 394.330078125 170.997070312 390.997070312 230.997070312 386.997070312 c 1
 202.330078125 435.6640625 178.663085938 472.997070312 159.99609375 498.997070312 c 0
 152.077148438 512.006835938 148.118164062 524.776367188 148.118164062 537.306640625 c 0
 148.118164062 539.544921875 148.244140625 541.775390625 148.497070312 543.998046875 c 0
 150.1640625 558.665039062 156.331054688 568.33203125 166.998046875 572.999023438 c 0
 172.998046875 576.999023438 180.498046875 579.166015625 189.498046875 579.499023438 c 0
 198.498046875 579.83203125 207.665039062 577.33203125 216.998046875 571.999023438 c 0
 226.331054688 566.666015625 233.6640625 558.666015625 238.997070312 547.999023438 c 0
 246.330078125 531.999023438 265.997070312 493.666015625 297.997070312 432.999023438 c 1
 324.6640625 478.33203125 344.6640625 516.33203125 357.997070312 546.999023438 c 0
 362.6640625 557.666015625 369.497070312 565.666015625 378.497070312 570.999023438 c 0
 387.497070312 576.33203125 396.1640625 578.83203125 404.497070312 578.499023438 c 0
 412.830078125 578.166015625 419.997070312 575.666015625 425.997070312 570.999023438 c 0
 432.6640625 567.666015625 438.1640625 562.333007812 442.497070312 555 c 0
 446.830078125 547.666992188 448.997070312 539 448.997070312 529 c 0
 448.997070312 519 445.6640625 509.333007812 438.997070312 500 c 0
 417.6640625 468.666992188 394.331054688 429.666992188 368.998046875 383 c 1
 426.998046875 383 468.331054688 386.666992188 492.998046875 394 c 0
 497.665039062 395.485351562 502.12890625 396.227539062 506.390625 396.227539062 c 0
 515.5234375 396.227539062 523.7265625 392.818359375 530.999023438 386 c 0
 541.666015625 376 547.333007812 365.333007812 548 354 c 0
 548 348 547.333007812 342 546 336 c 0
 544.666992188 330 542.333984375 324 539.000976562 318 c 0
 535.66796875 312 531.000976562 307.333007812 525.000976562 304 c 0
 519.000976562 300.666992188 511.66796875 300 503.000976562 302 c 0
 486 305 456.811523438 306.5 415.435546875 306.5 c 0
 401.64453125 306.5 386.499023438 306.333007812 370 306 c 1
 437 190 l 2
 442.974609375 177.506835938 445.961914062 166.23046875 445.961914062 156.170898438 c 0
 445.961914062 153.883789062 445.807617188 151.66015625 445.499023438 149.499023438 c 0
 443.83203125 137.83203125 438.999023438 129.33203125 430.999023438 123.999023438 c 0
 424.33203125 119.999023438 415.83203125 117.666015625 405.499023438 116.999023438 c 0
 404.20703125 116.916015625 402.915039062 116.874023438 401.623046875 116.874023438 c 2
 374.5 122.999023438 l 2
 364.166992188 127.666015625 357.666992188 135.333007812 355 146 c 0
 346.333007812 172.666992188 328.666015625 211 301.999023438 261 c 1
 270.666015625 199.666992188 251.333007812 159 244 139 c 0x40
EndSplineSet
Validated: 524289
EndChar

StartChar: plus
Encoding: 43 43 11
Width: 593
GlyphClass: 2
Flags: HMW
HStem: 359.8 79.1992
VStem: 255.003 80.9971
LayerCount: 2
Fore
SplineSet
336 250 m 0
 336 234.666992188 332.670898438 223.833007812 326.00390625 217.5 c 0
 319.336914062 211.166992188 310.00390625 208 298.00390625 208 c 0
 269.336914062 208 255.00390625 222 255.00390625 250 c 2
 255.00390625 357 l 1
 241.670898438 357 223.670898438 356.833007812 201.00390625 356.5 c 0
 178.336914062 356.166992188 162.669921875 356 154.002929688 356 c 0
 137.3359375 356 125.002929688 360.166992188 117.002929688 368.5 c 0
 105.362304688 380.625 104.92578125 393.616210938 104.92578125 401.888671875 c 0
 104.92578125 413.296875 108.618164062 423.000976562 116.002929688 431.000976562 c 0
 123.431640625 439.048828125 134.595703125 443.072265625 149.49609375 443.072265625 c 0
 150.642578125 443.072265625 151.811523438 443.048828125 153.002929688 443.000976562 c 0
 199.669921875 441.66796875 233.669921875 441.000976562 255.002929688 441.000976562 c 1
 255.002929688 499.8203125 252.91796875 548.575195312 252.91796875 552.581054688 c 0
 252.91796875 578.860351562 267.279296875 592 296.002929688 592 c 0
 297.336914062 592.06640625 298.645507812 592.099609375 299.928710938 592.099609375 c 0
 311.477539062 592.099609375 321.001953125 589.399414062 328.500976562 584 c 0
 335.684570312 578.827148438 339.276367188 569.69140625 339.276367188 556.590820312 c 0
 339.276367188 554.495117188 339.184570312 552.297851562 339.000976562 549.999023438 c 0
 337.000976562 511.33203125 336.000976562 474.33203125 336.000976562 438.999023438 c 1
 446.000976562 438.999023438 l 2
 461.333984375 438.999023438 472.166992188 435.666015625 478.5 428.999023438 c 0
 484.833007812 422.33203125 488.333007812 413.33203125 489 401.999023438 c 0
 489 395.999023438 488.333007812 390.499023438 487 385.499023438 c 0
 485.666992188 380.499023438 483.666992188 375.666015625 481 370.999023438 c 0
 478.333007812 366.33203125 474 362.83203125 468 360.499023438 c 0
 462 358.166015625 454.666992188 357.333007812 446 358 c 0
 435.600585938 359.200195312 418.12109375 359.799804688 393.561523438 359.799804688 c 0
 377.1875 359.799804688 357.666992188 359.533203125 335 359 c 1
 335 341 335.166992188 319.666992188 335.5 295 c 0
 335.833007812 270.333007812 336 255.333007812 336 250 c 0
EndSplineSet
Validated: 524289
EndChar

StartChar: comma
Encoding: 44 44 12
Width: 593
GlyphClass: 2
Flags: HMW
VStem: 194.499 204.501
LayerCount: 2
Fore
SplineSet
399 96 m 0
 392.333007812 63.3330078125 378 12.9990234375 356 -55.0009765625 c 0
 334 -123.000976562 317 -165.000976562 305 -181.000976562 c 0
 294.333007812 -195.000976562 280.833007812 -205.000976562 264.5 -211.000976562 c 0
 254.700195312 -214.600585938 245.80078125 -216.400390625 237.80078125 -216.400390625 c 0
 232.467773438 -216.400390625 227.534179688 -215.600585938 223.000976562 -214.000976562 c 0
 216.333984375 -212.000976562 210.166992188 -208.000976562 204.5 -202.000976562 c 0
 198.833007812 -196.000976562 195.5 -188.66796875 194.5 -180.000976562 c 0
 193.5 -171.333984375 196 -162.333984375 202 -153.000976562 c 0
 216 -133.000976562 235.333007812 -89.0009765625 260 -21.0009765625 c 0
 284.666992188 46.9990234375 299.666992188 94.33203125 305 120.999023438 c 0
 307 130.33203125 311.666992188 137.665039062 319 142.998046875 c 0
 326.333007812 148.331054688 334 150.998046875 342 150.998046875 c 0
 350 150.998046875 358 150.331054688 366 148.998046875 c 0
 376.666992188 145.665039062 385.333984375 139.33203125 392.000976562 129.999023438 c 0
 397.12890625 122.8203125 399.692382812 114.458007812 399.692382812 104.912109375 c 0
 399.692382812 102.047851562 399.461914062 99.0771484375 399 96 c 0
EndSplineSet
Validated: 524289
EndChar

StartChar: hyphen
Encoding: 45 45 13
Width: 593
GlyphClass: 2
Flags: HMW
HStem: 243 87<171.667 197.333> 251 82<405.001 415.667 405.001 422.333>
VStem: 142.809 308.191
LayerCount: 2
Fore
SplineSet
184 330 m 0xa0
 222 330 267.333984375 330.5 320.000976562 331.5 c 0
 372.66796875 332.5 402.000976562 333 408.000976562 333 c 0
 423.333984375 333 434.166992188 329.5 440.5 322.5 c 0
 446.833007812 315.5 450.333007812 306.333007812 451 295 c 0
 451 265.666992188 436.666992188 251 408 251 c 0x60
 399.333007812 251 365.833007812 249.666992188 307.5 247 c 0
 249.166992188 244.333007812 208.666992188 243 186 243 c 0
 157.333007812 243 143 257.333007812 143 286 c 0
 142.872070312 287.872070312 142.80859375 289.684570312 142.80859375 291.4375 c 0
 142.80859375 317.145507812 156.5390625 330 184 330 c 0xa0
EndSplineSet
Validated: 524289
EndChar

StartChar: period
Encoding: 46 46 14
Width: 593
GlyphClass: 2
Flags: HMW
HStem: -14.5617 154.604
VStem: 214.999 164.001
LayerCount: 2
Fore
SplineSet
299 -14 m 0
 295.536132812 -14.3740234375 292.161132812 -14.5615234375 288.875 -14.5615234375 c 0
 268.7578125 -14.5615234375 251.965820312 -7.5439453125 238.499023438 6.49609375 c 0
 222.83203125 22.8291015625 214.999023438 41.99609375 214.999023438 63.99609375 c 0
 214.999023438 84.6630859375 223.83203125 102.330078125 241.499023438 116.997070312 c 0
 259.166015625 131.6640625 278.333007812 139.331054688 299 139.998046875 c 0
 300.037109375 140.02734375 301.06640625 140.041992188 302.087890625 140.041992188 c 0
 324.029296875 140.041992188 342.166992188 133.194335938 356.5 119.499023438 c 0
 371.5 105.166015625 379 86.9990234375 379 64.9990234375 c 0
 379 43.666015625 371.666992188 25.8330078125 357 11.5 c 0
 342.333007812 -2.8330078125 323 -11.3330078125 299 -14 c 0
EndSplineSet
Validated: 524289
EndChar

StartChar: slash
Encoding: 47 47 15
Width: 593
GlyphClass: 2
Flags: W
LayerCount: 2
Fore
SplineSet
538 676 m 0
 520.666992188 642 472 558.49609375 392 425.49609375 c 0
 312 292.49609375 263.333007812 209.99609375 246 177.99609375 c 0
 235.333007812 157.329101562 218 122.329101562 194 72.99609375 c 0
 170 23.6630859375 155 -6.3369140625 149 -17.00390625 c 0
 138.333007812 -35.6708984375 124.833007812 -48.6708984375 108.5 -56.00390625 c 0
 100.333007812 -59.669921875 92.7080078125 -61.5029296875 85.625 -61.5029296875 c 0
 78.5419921875 -61.5029296875 72 -59.669921875 66 -56.0029296875 c 0
 56 -50.669921875 50 -38.3369140625 48 -19.00390625 c 0
 47.6474609375 -15.5927734375 47.470703125 -12.2333984375 47.470703125 -8.92578125 c 0
 47.470703125 6.51171875 51.314453125 20.8193359375 59.0009765625 33.99609375 c 0
 156.333984375 193.99609375 239.666992188 336.329101562 309 460.99609375 c 0
 352.333007812 537.663085938 398.333007812 624.330078125 447 720.997070312 c 0
 452.333007812 731.6640625 459.666015625 739.831054688 468.999023438 745.498046875 c 0
 478.33203125 751.165039062 487.33203125 753.83203125 495.999023438 753.499023438 c 0
 504.666015625 753.166015625 513.333007812 751.333007812 522 748 c 0
 534 742 541.666992188 732.666992188 545 720 c 0
 545.98046875 716.274414062 546.470703125 712.375976562 546.470703125 708.3046875 c 0
 546.470703125 698.533203125 543.647460938 687.764648438 538 676 c 0
EndSplineSet
Validated: 524289
EndChar

StartChar: zero
Encoding: 48 48 16
Width: 593
GlyphClass: 2
Flags: HMW
HStem: -24 83.999 636.999 81.001
VStem: 61.002 95.502 436.006 96.8403
LayerCount: 2
Fore
SplineSet
275 -24 m 0
 243.666992188 -24 214.8359375 -18.33203125 188.502929688 -6.9990234375 c 0
 162.169921875 4.333984375 139.669921875 20.0009765625 121.002929688 40.0009765625 c 0
 102.3359375 60.0009765625 87.6689453125 85.0009765625 77.001953125 115.000976562 c 0
 66.962890625 143.235351562 61.943359375 174.126953125 61.943359375 207.67578125 c 0
 61.943359375 209.7734375 61.962890625 211.881835938 62.001953125 214 c 0
 62.001953125 220.666992188 61.8349609375 237.166992188 61.501953125 263.5 c 0
 61.1689453125 289.833007812 61.001953125 310.833007812 61.001953125 326.5 c 0
 61.001953125 342.166992188 61.501953125 363.833984375 62.501953125 391.500976562 c 0
 63.501953125 419.16796875 65.3349609375 443.000976562 68.001953125 463.000976562 c 0
 70.6689453125 483.000976562 74.1689453125 504.500976562 78.501953125 527.500976562 c 0
 82.8349609375 550.500976562 88.66796875 570.66796875 96.0009765625 588.000976562 c 0
 112.000976562 630.000976562 139.000976562 662.16796875 177.000976562 684.500976562 c 0
 215.000976562 706.833984375 261.333984375 718.000976562 316.000976562 718.000976562 c 0
 343.333984375 718.000976562 369.000976562 713.333984375 393.000976562 704.000976562 c 0
 417.000976562 694.66796875 438.333984375 681.000976562 457.000976562 663.000976562 c 0
 475.66796875 645.000976562 491.16796875 621.66796875 503.500976562 593.000976562 c 0
 515.833984375 564.333984375 523.666992188 531.333984375 527 494.000976562 c 0
 529.666992188 460.66796875 531.5 422.834960938 532.5 380.501953125 c 0
 532.73046875 370.733398438 532.845703125 360.947265625 532.845703125 351.143554688 c 0
 532.845703125 318.459960938 531.563476562 285.579101562 529 252.500976562 c 0
 525.666992188 209.500976562 521 176.66796875 515 154.000976562 c 0
 509 131.333984375 502.333007812 111.333984375 495 94.0009765625 c 0
 487.666992188 76.66796875 479.833984375 61.66796875 471.500976562 49.0009765625 c 0
 463.16796875 36.333984375 453.834960938 25.6669921875 443.501953125 17 c 0
 433.168945312 8.3330078125 422.168945312 1.3330078125 410.501953125 -4 c 0
 398.834960938 -9.3330078125 385.66796875 -13.5 371.000976562 -16.5 c 0
 356.333984375 -19.5 341.666992188 -21.5 327 -22.5 c 0
 312.333007812 -23.5 295 -24 275 -24 c 0
160.001953125 230.000976562 m 0
 160.001953125 227.333984375 160.172851562 223.333984375 160.505859375 218.000976562 c 0
 160.838867188 212.66796875 161.005859375 209.000976562 161.005859375 207.000976562 c 1
 250.338867188 329.000976562 330.671875 454.333984375 402.004882812 583.000976562 c 1
 390.004882812 600.333984375 375.337890625 613.666992188 358.004882812 623 c 0
 340.671875 632.333007812 322.004882812 637 302.004882812 637 c 0
 264.671875 637 235.504882812 626.666992188 214.504882812 606 c 0
 193.504882812 585.333007812 177.671875 552 167.004882812 506 c 0
 163.004882812 489.333007812 160.171875 469.833007812 158.504882812 447.5 c 0
 157.115234375 428.885742188 156.420898438 407.029296875 156.420898438 381.930664062 c 0
 156.420898438 376.916992188 156.448242188 371.7734375 156.50390625 366.500976562 c 0
 156.836914062 334.833984375 157.169921875 312.500976562 157.502929688 299.500976562 c 0
 157.8359375 286.500976562 158.668945312 263.333984375 160.001953125 230.000976562 c 0
421.005859375 168.000976562 m 0
 423.672851562 176.000976562 426.505859375 198 429.505859375 234 c 0
 432.505859375 270 434.672851562 311.166992188 436.005859375 357.5 c 0
 436.38671875 370.736328125 436.577148438 383.823242188 436.577148438 396.760742188 c 0
 436.577148438 429.109375 435.38671875 460.522460938 433.005859375 491 c 1
 361.672851562 344.333007812 277.672851562 221.333007812 181.005859375 122 c 1
 199.005859375 80.6669921875 230.338867188 60 275.005859375 60 c 0
 293.005859375 60 309.172851562 61.5 323.505859375 64.5 c 0
 337.838867188 67.5 351.505859375 72.8330078125 364.505859375 80.5 c 0
 377.505859375 88.1669921875 388.505859375 99.333984375 397.505859375 114.000976562 c 0
 406.505859375 128.66796875 414.338867188 146.66796875 421.005859375 168.000976562 c 0
EndSplineSet
Validated: 524289
EndChar

StartChar: one
Encoding: 49 49 17
Width: 593
GlyphClass: 2
Flags: HMW
HStem: -9 85.5 -5 89<90.002 113.002 90.002 113.002> 511.539 21G
VStem: 249.335 96.6644 259.001 91.498
LayerCount: 2
Fore
SplineSet
540.080078125 34.8388671875 m 0xb0
 540.080078125 22.892578125 536.5546875 12.779296875 529.501953125 4.5 c 0
 521.834960938 -4.5 508.334960938 -9 489.001953125 -9 c 0xb0
 480.334960938 -9 420.834960938 -8.3330078125 310.501953125 -7 c 0
 200.168945312 -5.6669921875 129.001953125 -5 97.001953125 -5 c 0
 82.3349609375 -5 71.501953125 -1 64.501953125 7 c 0
 57.501953125 15 54.001953125 25.3330078125 54.001953125 38 c 0
 53.9443359375 39.16015625 53.9150390625 40.302734375 53.9150390625 41.4267578125 c 0
 53.9150390625 53.2294921875 57.111328125 63.0869140625 63.501953125 71 c 0
 70.501953125 79.6669921875 82.001953125 84 98.001953125 84 c 0
 128.001953125 84 179.001953125 83.6669921875 251.001953125 83 c 1
 251.001953125 109.666992188 250.668945312 131 250.001953125 147 c 0
 249.556640625 150.556640625 249.333984375 159.600585938 249.333984375 174.131835938 c 0x70
 249.333984375 181.38671875 249.389648438 190.009765625 249.500976562 200 c 0
 249.833984375 230 250.000976562 251.666992188 250.000976562 265 c 0
 250.000976562 278.333007812 250.66796875 303 252.000976562 339 c 0
 253.333984375 375 254.333984375 401.833007812 255.000976562 419.5 c 0
 255.66796875 437.166992188 257.000976562 465.166992188 259.000976562 503.5 c 0
 261.000976562 541.833007812 262.333984375 570 263.000976562 588 c 1
 213.66796875 546.666992188 177.66796875 522 155.000976562 514 c 0
 150.8984375 512.359375 146.780273438 511.5390625 142.646484375 511.5390625 c 0
 133.344726562 511.5390625 123.962890625 515.692382812 114.500976562 524 c 0
 101.469726562 535.44140625 94.9541015625 546.8828125 94.9541015625 558.32421875 c 0
 94.9541015625 558.8828125 94.9697265625 559.44140625 95.0009765625 560 c 0
 95.0009765625 570.666992188 97.333984375 580.166992188 102.000976562 588.5 c 0
 106.66796875 596.833007812 115.000976562 605.333007812 127.000976562 614 c 0
 146.333984375 628.666992188 166.666992188 644.833984375 188 662.500976562 c 0
 209.333007812 680.16796875 224.666015625 693.000976562 233.999023438 701.000976562 c 0
 243.33203125 709.000976562 252.999023438 715.833984375 262.999023438 721.500976562 c 0
 272.999023438 727.16796875 281.666015625 730.000976562 288.999023438 730.000976562 c 0
 302.999023438 730.000976562 317.666015625 724.000976562 332.999023438 712.000976562 c 0
 348.33203125 700.000976562 355.999023438 690.000976562 355.999023438 682.000976562 c 0
 355.999023438 666.66796875 354.166015625 612.16796875 350.499023438 518.500976562 c 0x68
 346.83203125 424.833984375 344.999023438 370.000976562 344.999023438 354.000976562 c 0
 344.999023438 287.333984375 345.33203125 231.666992188 345.999023438 187 c 0
 345.999023438 162.333007812 346.666015625 126.333007812 347.999023438 79 c 1
 367.33203125 79 387.665039062 78.6669921875 408.998046875 78 c 0
 430.331054688 77.3330078125 447.831054688 76.8330078125 461.498046875 76.5 c 0
 475.165039062 76.1669921875 484.998046875 76 490.998046875 76 c 0
 509.665039062 76 522.33203125 72.5 528.999023438 65.5 c 0
 534.423828125 59.8046875 540.080078125 50.1865234375 540.080078125 34.8388671875 c 0xb0
EndSplineSet
Validated: 524289
EndChar

StartChar: two
Encoding: 50 50 18
Width: 593
GlyphClass: 2
Flags: HMW
HStem: -18.0049 84.0049 -14.0059 91.0059 637.997 83.999
VStem: 64.002 99.9971 417.001 98.9971
LayerCount: 2
Fore
SplineSet
497 -12 m 0x78
 469 -12 434.169921875 -12.6728515625 392.502929688 -14.005859375 c 0x78
 350.8359375 -15.3388671875 314.002929688 -16.671875 282.002929688 -18.0048828125 c 0
 250.002929688 -19.337890625 217.169921875 -20.0048828125 183.502929688 -20.0048828125 c 0
 149.8359375 -20.0048828125 123.668945312 -18.671875 105.001953125 -16.0048828125 c 0
 90.3349609375 -14.671875 79.8349609375 -5.671875 73.501953125 10.9951171875 c 0
 67.1689453125 27.662109375 64.001953125 51.662109375 64.001953125 82.9951171875 c 0
 64.001953125 111.662109375 70.1689453125 141.829101562 82.501953125 173.49609375 c 0
 94.8349609375 205.163085938 113.001953125 235.49609375 137.001953125 264.49609375 c 0
 161.001953125 293.49609375 189.001953125 316.99609375 221.001953125 334.99609375 c 0
 292.334960938 374.99609375 338.334960938 402.99609375 359.001953125 418.99609375 c 0
 386.334960938 440.329101562 403.66796875 462.99609375 411.000976562 486.99609375 c 0
 415.000976562 500.99609375 417.000976562 518.329101562 417.000976562 538.99609375 c 0
 417.000976562 573.663085938 406.833984375 598.830078125 386.500976562 614.497070312 c 0
 366.16796875 630.1640625 337.334960938 637.997070312 300.001953125 637.997070312 c 0
 274.001953125 637.997070312 249.168945312 629.997070312 225.501953125 613.997070312 c 0
 201.834960938 597.997070312 183.66796875 580.330078125 171.000976562 560.997070312 c 0
 165.000976562 552.330078125 159.333984375 545.497070312 154.000976562 540.497070312 c 0
 148.66796875 535.497070312 143.000976562 532.6640625 137.000976562 531.997070312 c 0
 131.000976562 531.330078125 125.66796875 531.663085938 121.000976562 532.99609375 c 0
 116.333984375 534.329101562 110.000976562 536.662109375 102.000976562 539.995117188 c 0
 90.66796875 545.995117188 83.66796875 554.662109375 81.0009765625 565.995117188 c 0
 80.333984375 568.828125 80.0009765625 571.870117188 80.0009765625 575.120117188 c 0
 80.0009765625 584.870117188 83.0009765625 596.495117188 89.0009765625 609.995117188 c 0
 95.66796875 622.662109375 105.66796875 635.329101562 119.000976562 647.99609375 c 0
 132.333984375 660.663085938 147.666992188 672.663085938 165 683.99609375 c 0
 182.333007812 695.329101562 202.666015625 704.49609375 225.999023438 711.49609375 c 0
 249.33203125 718.49609375 272.665039062 721.99609375 295.998046875 721.99609375 c 0
 367.998046875 721.99609375 422.665039062 705.329101562 459.998046875 671.99609375 c 0
 497.331054688 638.663085938 515.998046875 588.663085938 515.998046875 521.99609375 c 0
 515.998046875 466.663085938 501.998046875 422.330078125 473.998046875 388.997070312 c 0
 453.331054688 364.330078125 415.998046875 336.997070312 361.998046875 306.997070312 c 0
 348.665039062 298.997070312 325.665039062 286.6640625 292.998046875 269.997070312 c 0
 264.331054688 254.6640625 240.331054688 235.831054688 220.998046875 213.498046875 c 0
 201.665039062 191.165039062 187.83203125 168.33203125 179.499023438 144.999023438 c 0
 171.166015625 121.666015625 165.999023438 96.3330078125 163.999023438 69 c 1
 201.33203125 67 237.33203125 66 271.999023438 66 c 0xb8
 306.666015625 66 333.666015625 66.5 352.999023438 67.5 c 0
 372.33203125 68.5 394.665039062 70 419.998046875 72 c 0
 445.331054688 74 461.998046875 75.3330078125 469.998046875 76 c 0
 470.665039062 76 473.83203125 76.1669921875 479.499023438 76.5 c 0
 485.166015625 76.8330078125 488.999023438 77 490.999023438 77 c 2
 500.999023438 77 l 2
 505.666015625 77 509.166015625 76.3330078125 511.499023438 75 c 0
 513.83203125 73.6669921875 516.499023438 72 519.499023438 70 c 0
 522.499023438 68 524.83203125 65.3330078125 526.499023438 62 c 0
 528.166015625 58.6669921875 529.333007812 54.6669921875 530 50 c 0
 530.666992188 42 530.333984375 33.5 529.000976562 24.5 c 0
 527.66796875 15.5 524.16796875 7.1669921875 518.500976562 -0.5 c 0
 512.833984375 -8.1669921875 505.666992188 -12 497 -12 c 0x78
EndSplineSet
Validated: 524289
EndChar

StartChar: three
Encoding: 51 51 19
Width: 593
GlyphClass: 2
Flags: HMW
HStem: -23.9941 84 318.006 100 638.006 83.998
VStem: 404.02 99.0491 426.002 99.998
LayerCount: 2
Fore
SplineSet
526 199 m 0xe8
 526 130.333007812 504.830078125 76.0078125 462.497070312 36.0078125 c 0
 420.1640625 -3.9921875 360.6640625 -23.9921875 283.997070312 -23.9921875 c 0
 260.6640625 -23.9921875 237.331054688 -20.4921875 213.998046875 -13.4921875 c 0
 190.665039062 -6.4921875 170.498046875 2.5078125 153.498046875 13.5078125 c 0
 136.498046875 24.5078125 121.331054688 36.5078125 107.998046875 49.5078125 c 0
 94.6650390625 62.5078125 84.33203125 75.3408203125 76.9990234375 88.0078125 c 0
 70.9990234375 99.5078125 67.9990234375 110.2578125 67.9990234375 120.2578125 c 0
 67.9990234375 123.590820312 68.33203125 126.840820312 68.9990234375 130.0078125 c 0
 71.666015625 142.674804688 78.9990234375 151.674804688 90.9990234375 157.0078125 c 0
 100.194335938 161.60546875 108.755859375 163.904296875 116.682617188 163.904296875 c 0
 120.25 163.904296875 123.689453125 163.438476562 127 162.5078125 c 0
 137.666992188 159.5078125 148.333984375 151.0078125 159.000976562 137.0078125 c 0
 173.66796875 117.0078125 192.334960938 99.1748046875 215.001953125 83.5078125 c 0
 237.668945312 67.8408203125 262.001953125 60.0078125 288.001953125 60.0078125 c 0
 328.001953125 60.0078125 361.001953125 71.3408203125 387.001953125 94.0078125 c 0
 413.001953125 116.674804688 426.001953125 146.0078125 426.001953125 182.0078125 c 0xe8
 426.001953125 204.0078125 422.668945312 223.0078125 416.001953125 239.0078125 c 0
 409.334960938 255.0078125 398.66796875 269.0078125 384.000976562 281.0078125 c 0
 369.333984375 293.0078125 349.166992188 302.174804688 323.5 308.5078125 c 0
 297.833007812 314.840820312 268 318.0078125 234 318.0078125 c 0
 220 318.0078125 207.833007812 323.5078125 197.5 334.5078125 c 0
 187.166992188 345.5078125 182 357.674804688 182 371.0078125 c 0
 182 385.0078125 185.666992188 396.340820312 193 405.0078125 c 0
 200.333007812 413.674804688 211 418.0078125 225 418.0078125 c 0
 281 418.0078125 325 429.174804688 357 451.5078125 c 0
 388.346679688 473.384765625 404.020507812 505.017578125 404.020507812 546.407226562 c 0
 404.020507812 547.26953125 404.013671875 548.13671875 404 549.0078125 c 0
 404.01953125 549.903320312 404.029296875 550.791992188 404.029296875 551.673828125 c 0
 404.029296875 580.333984375 393.51953125 601.778320312 372.5 616.006835938 c 0
 350.833007812 630.673828125 319.666015625 638.006835938 278.999023438 638.006835938 c 0
 270.999023438 638.006835938 263.166015625 637.173828125 255.499023438 635.506835938 c 0
 247.83203125 633.83984375 241.665039062 632.172851562 236.998046875 630.505859375 c 0
 232.331054688 628.838867188 227.331054688 626.005859375 221.998046875 622.005859375 c 0
 216.665039062 618.005859375 212.165039062 614.672851562 208.498046875 612.005859375 c 0
 204.831054688 609.338867188 200.831054688 605.005859375 196.498046875 599.005859375 c 0
 192.165039062 593.005859375 188.83203125 588.838867188 186.499023438 586.505859375 c 0
 184.166015625 584.172851562 180.999023438 579.33984375 176.999023438 572.006835938 c 0
 166.33203125 557.33984375 155.499023438 548.672851562 144.499023438 546.005859375 c 0
 141.356445312 545.244140625 138.118164062 544.86328125 134.784179688 544.86328125 c 0
 126.451171875 544.86328125 117.522460938 547.244140625 107.999023438 552.005859375 c 0
 96.666015625 557.338867188 89.8330078125 566.171875 87.5 578.504882812 c 0
 86.8955078125 581.702148438 86.5927734375 585.044921875 86.5927734375 588.533203125 c 0
 86.5927734375 598.500976562 89.0625 609.658203125 94.0009765625 622.004882812 c 0
 100.66796875 635.337890625 109.334960938 647.504882812 120.001953125 658.504882812 c 0
 130.668945312 669.504882812 143.001953125 680.004882812 157.001953125 690.004882812 c 0
 171.001953125 700.004882812 188.168945312 707.837890625 208.501953125 713.504882812 c 0
 228.834960938 719.171875 250.66796875 722.004882812 274.000976562 722.004882812 c 0
 350.66796875 722.004882812 408.334960938 706.004882812 447.001953125 674.004882812 c 0
 484.379882812 643.071289062 503.069335938 597.809570312 503.069335938 538.21875 c 0xf0
 503.069335938 536.1640625 503.046875 534.092773438 503.002929688 532.00390625 c 0
 503.002929688 512.670898438 500.502929688 495.170898438 495.502929688 479.50390625 c 0
 490.502929688 463.836914062 483.669921875 450.50390625 475.002929688 439.50390625 c 0
 466.3359375 428.50390625 455.668945312 418.836914062 443.001953125 410.50390625 c 0
 430.334960938 402.170898438 417.501953125 395.670898438 404.501953125 391.00390625 c 0
 391.501953125 386.336914062 377.668945312 382.669921875 363.001953125 380.002929688 c 1
 390.334960938 374.002929688 413.66796875 366.669921875 433.000976562 358.002929688 c 0
 452.333984375 349.3359375 469.166992188 338.168945312 483.5 324.501953125 c 0
 497.833007812 310.834960938 508.5 293.66796875 515.5 273.000976562 c 0
 522.5 252.333984375 526 227.666992188 526 199 c 0xe8
EndSplineSet
Validated: 524289
EndChar

StartChar: four
Encoding: 52 52 20
Width: 593
GlyphClass: 2
Flags: HMW
HStem: -23.001 21G 224.234 80.335
VStem: 364.003 87.4971 371.002 88.998 371.002 97.0561
LayerCount: 2
Fore
SplineSet
466 55 m 0xd0
 467.372070312 47.68359375 468.057617188 40.71875 468.057617188 34.107421875 c 0
 468.057617188 21.4423828125 465.540039062 10.072265625 460.502929688 -0.001953125 c 0
 452.8359375 -15.3349609375 441.668945312 -23.001953125 427.001953125 -23.001953125 c 0
 414.334960938 -23.001953125 402.001953125 -18.1689453125 390.001953125 -8.501953125 c 0
 378.001953125 1.1650390625 371.668945312 10.998046875 371.001953125 20.998046875 c 2
 371.001953125 59.998046875 l 1
 371.001953125 137.498046875 l 1xc8
 371.001953125 223.998046875 l 1xd0
 356.729492188 224.155273438 342.973632812 224.233398438 329.734375 224.233398438 c 0
 230.423828125 224.233398438 160.1796875 219.822265625 119.001953125 210.999023438 c 0
 108.334960938 208.999023438 98.66796875 209.33203125 90.0009765625 211.999023438 c 0
 81.333984375 214.666015625 74.5009765625 219.333007812 69.5009765625 226 c 0
 64.5009765625 232.666992188 60.66796875 240.333984375 58.0009765625 249.000976562 c 0
 55.333984375 257.66796875 54.0009765625 266.66796875 54.0009765625 276.000976562 c 0
 54.0009765625 285.333984375 55.66796875 294.333984375 59.0009765625 303.000976562 c 0
 65.66796875 321.66796875 83.5009765625 352.16796875 112.500976562 394.500976562 c 0
 141.500976562 436.833984375 179.16796875 489.166992188 225.500976562 551.5 c 0
 271.833984375 613.833007812 304.666992188 659 324 687 c 0
 332.666992188 699.666992188 342.5 709.166992188 353.5 715.5 c 0
 364.5 721.833007812 375 725 385 725 c 0
 387.423828125 725.2421875 389.809570312 725.36328125 392.15625 725.36328125 c 0
 402.71875 725.36328125 412.5 722.909179688 421.5 718 c 0
 432.5 712 439.333007812 701.666992188 442 687 c 0
 446 663.666992188 449.166992188 627.666992188 451.5 579 c 0xe0
 453.833007812 530.333007812 455.333007812 489.166015625 456 455.499023438 c 0
 456.666992188 421.83203125 457.666992188 370.999023438 459 302.999023438 c 1
 470.333007812 302.33203125 483 301.999023438 497 301.999023438 c 0
 512.333007812 301.999023438 523.166015625 298.499023438 529.499023438 291.499023438 c 0
 535.83203125 284.499023438 539.33203125 275.33203125 539.999023438 263.999023438 c 0
 539.999023438 234.666015625 525.666015625 219.999023438 496.999023438 219.999023438 c 0
 483.666015625 219.999023438 471.333007812 220.33203125 460 220.999023438 c 1
 461.333007812 123.666015625 463.333007812 68.3330078125 466 55 c 0xd0
364.001953125 601.997070312 m 1xe0
 265.334960938 472.6640625 198.334960938 372.330078125 163.001953125 300.997070312 c 1
 200.146484375 303.377929688 246.134765625 304.568359375 300.967773438 304.568359375 c 0
 322.897460938 304.568359375 346.2421875 304.377929688 371.001953125 303.997070312 c 1
 371.001953125 428.6640625 368.668945312 527.997070312 364.001953125 601.997070312 c 1xe0
EndSplineSet
Validated: 524289
EndChar

StartChar: five
Encoding: 53 53 21
Width: 593
GlyphClass: 2
Flags: HMW
HStem: -18.001 83.998 419.997 89.0029 619 88.998 630 79.998
VStem: 69.596 93.405 76.9961 88.0029 434.994 100.006
LayerCount: 2
Fore
SplineSet
535 296 m 0xda
 535 246.666992188 528.825195312 202.166015625 516.4921875 162.499023438 c 0
 504.159179688 122.83203125 486.826171875 89.83203125 464.493164062 63.4990234375 c 0
 442.16015625 37.166015625 415.327148438 16.9990234375 383.994140625 2.9990234375 c 0
 352.661132812 -11.0009765625 318.328125 -18.0009765625 280.995117188 -18.0009765625 c 0
 251.662109375 -18.0009765625 224.662109375 -15.0009765625 199.995117188 -9.0009765625 c 0
 175.328125 -3.0009765625 154.661132812 5.33203125 137.994140625 15.9990234375 c 0
 121.327148438 26.666015625 107.327148438 37.8330078125 95.994140625 49.5 c 0
 84.6611328125 61.1669921875 75.328125 73.333984375 67.9951171875 86.0009765625 c 0
 61.9951171875 99.5009765625 58.9951171875 111.125976562 58.9951171875 120.875976562 c 0
 58.9951171875 124.125976562 59.328125 127.16796875 59.9951171875 130.000976562 c 0
 62.662109375 141.333984375 69.662109375 150.000976562 80.9951171875 156.000976562 c 0
 88.328125 159.333984375 94.4951171875 161.666992188 99.4951171875 163 c 0
 104.495117188 164.333007812 109.995117188 164.666015625 115.995117188 163.999023438 c 0
 121.995117188 163.33203125 127.662109375 160.665039062 132.995117188 155.998046875 c 0
 138.328125 151.331054688 143.995117188 144.6640625 149.995117188 135.997070312 c 0
 179.995117188 89.9970703125 220.662109375 66.6640625 271.995117188 65.9970703125 c 0
 321.995117188 65.9970703125 361.662109375 85.830078125 390.995117188 125.497070312 c 0
 420.328125 165.1640625 434.995117188 218.331054688 434.995117188 284.998046875 c 0
 434.995117188 326.331054688 425.828125 359.1640625 407.495117188 383.497070312 c 0
 389.162109375 407.830078125 360.995117188 419.997070312 322.995117188 419.997070312 c 0
 312.995117188 419.997070312 303.328125 419.497070312 293.995117188 418.497070312 c 0
 284.662109375 417.497070312 276.662109375 416.1640625 269.995117188 414.497070312 c 0
 263.328125 412.830078125 256.328125 410.330078125 248.995117188 406.997070312 c 0
 241.662109375 403.6640625 235.829101562 400.997070312 231.49609375 398.997070312 c 0
 227.163085938 396.997070312 221.830078125 393.330078125 215.497070312 387.997070312 c 0
 209.1640625 382.6640625 204.997070312 378.997070312 202.997070312 376.997070312 c 0
 200.997070312 374.997070312 196.6640625 370.830078125 189.997070312 364.497070312 c 0
 183.330078125 358.1640625 179.330078125 354.331054688 177.997070312 352.998046875 c 0
 172.6640625 348.331054688 166.1640625 344.331054688 158.497070312 340.998046875 c 0
 150.830078125 337.665039062 142.330078125 335.498046875 132.997070312 334.498046875 c 0
 123.6640625 333.498046875 114.331054688 334.998046875 104.998046875 338.998046875 c 0
 93.6650390625 343.665039062 85.1650390625 353.998046875 79.498046875 369.998046875 c 0
 73.8310546875 385.998046875 70.6640625 405.665039062 69.9970703125 428.998046875 c 0
 69.73046875 438.331054688 69.5966796875 447.530273438 69.5966796875 456.596679688 c 0xda
 69.5966796875 470.197265625 69.896484375 483.498046875 70.49609375 496.499023438 c 0
 71.49609375 518.166015625 72.8291015625 541.499023438 74.49609375 566.499023438 c 0
 76.1630859375 591.499023438 76.99609375 608.666015625 76.99609375 617.999023438 c 1
 71.6630859375 626.666015625 68.330078125 636.499023438 66.9970703125 647.499023438 c 0
 65.6640625 658.499023438 66.1640625 668.666015625 68.4970703125 677.999023438 c 0
 70.830078125 687.33203125 75.4970703125 695.33203125 82.4970703125 701.999023438 c 0
 89.4970703125 708.666015625 97.6640625 711.999023438 106.997070312 711.999023438 c 0
 131.6640625 711.999023438 189.831054688 711.33203125 281.498046875 709.999023438 c 0xd6
 373.165039062 708.666015625 442.998046875 707.999023438 490.998046875 707.999023438 c 0
 499.665039062 707.999023438 506.83203125 704.33203125 512.499023438 696.999023438 c 0
 518.166015625 689.666015625 521.833007812 681.333007812 523.5 672 c 0
 525.166992188 662.666992188 525.333984375 654 524.000976562 646 c 0
 523.333984375 641.333007812 522.166992188 637.333007812 520.5 634 c 0
 518.833007812 630.666992188 516.5 628.166992188 513.5 626.5 c 0
 510.5 624.833007812 507.833007812 623.333007812 505.5 622 c 0
 503.166992188 620.666992188 499.666992188 619.833984375 495 619.500976562 c 0
 490.333007812 619.16796875 487 619.000976562 485 619.000976562 c 0xe6
 483 619.000976562 479.166992188 619.333984375 473.5 620.000976562 c 0
 467.833007812 620.66796875 464.666015625 621.000976562 463.999023438 621.000976562 c 0
 454.666015625 621.000976562 437.999023438 622.000976562 413.999023438 624.000976562 c 0
 389.999023438 626.000976562 368.666015625 627.500976562 349.999023438 628.500976562 c 0
 331.33203125 629.500976562 305.33203125 630.000976562 271.999023438 630.000976562 c 0
 238.666015625 630.000976562 203.666015625 629.000976562 166.999023438 627.000976562 c 1
 166.999023438 620.333984375 166.33203125 601.000976562 164.999023438 569.000976562 c 0xd6
 163.666015625 537.000976562 162.833007812 513.833984375 162.5 499.500976562 c 0
 162.388671875 494.727539062 162.333007812 489.270507812 162.333007812 483.129882812 c 0
 162.333007812 470.830078125 162.555664062 455.787109375 163.000976562 438 c 1
 181.66796875 458.666992188 207.000976562 475.666992188 239.000976562 489 c 0
 271.000976562 502.333007812 307.66796875 509 349.000976562 509 c 0
 378.333984375 509 404.833984375 503.5 428.500976562 492.5 c 0
 452.16796875 481.5 471.66796875 466.333007812 487.000976562 447 c 0
 502.333984375 427.666992188 514.166992188 405.166992188 522.5 379.5 c 0
 530.833007812 353.833007812 535 326 535 296 c 0xda
EndSplineSet
Validated: 524289
EndChar

StartChar: six
Encoding: 54 54 22
Width: 593
GlyphClass: 2
Flags: HMW
HStem: -21.9971 84.0049 393.004 87.9961
VStem: 56.9342 91.0658 439 98<227.333 249.672>
LayerCount: 2
Fore
SplineSet
537 246 m 0
 537 208.666992188 530.833007812 173.502929688 518.5 140.502929688 c 0
 506.166992188 107.502929688 489.333984375 79.169921875 468.000976562 55.5029296875 c 0
 446.66796875 31.8359375 421.16796875 13.0029296875 391.500976562 -0.9970703125 c 0
 361.833984375 -14.9970703125 330.333984375 -21.9970703125 297.000976562 -21.9970703125 c 0
 255.66796875 -21.9970703125 219.66796875 -14.1640625 189.000976562 1.5029296875 c 0
 158.333984375 17.169921875 133.166992188 39.8369140625 113.5 69.50390625 c 0
 93.8330078125 99.1708984375 79.3330078125 134.670898438 70 176.00390625 c 0
 61.2890625 214.580078125 56.93359375 257.51171875 56.93359375 304.798828125 c 0
 56.93359375 308.177734375 56.9560546875 311.579101562 57.0009765625 315.002929688 c 0
 57.66796875 372.3359375 63.3349609375 424.002929688 74.001953125 470.002929688 c 0
 84.6689453125 516.002929688 99.501953125 554.669921875 118.501953125 586.002929688 c 0
 137.501953125 617.3359375 161.001953125 643.8359375 189.001953125 665.502929688 c 0
 217.001953125 687.169921875 247.168945312 703.669921875 279.501953125 715.002929688 c 0
 311.834960938 726.3359375 347.66796875 733.668945312 387.000976562 737.001953125 c 0
 389.920898438 737.255859375 392.774414062 737.3828125 395.561523438 737.3828125 c 0
 407.409179688 737.3828125 418.055664062 735.088867188 427.500976562 730.500976562 c 0
 439.16796875 724.833984375 445.66796875 715.666992188 447.000976562 703 c 0
 447.66796875 695 443.66796875 686.166992188 435.000976562 676.5 c 0
 426.333984375 666.833007812 416.666992188 660.333007812 406 657 c 0
 398.666992188 655 387.5 652.333007812 372.5 649 c 0
 357.5 645.666992188 344.666992188 642.5 334 639.5 c 0
 323.333007812 636.5 310.666015625 632 295.999023438 626 c 0
 281.33203125 620 266.83203125 611.333007812 252.499023438 600 c 0
 238.166015625 588.666992188 223.999023438 575 209.999023438 559 c 0
 195.33203125 541.666992188 181.83203125 518 169.499023438 488 c 0
 157.166015625 458 149.333007812 431.333007812 146 408 c 1
 166.666992188 432.666992188 193.666992188 451 227 463 c 0
 260.333007812 475 297.333007812 481 338 481 c 0
 368.666992188 481 396 476.666992188 420 468 c 0
 444 459.333007812 464.833007812 445.666015625 482.5 426.999023438 c 0
 500.166992188 408.33203125 513.666992188 383.83203125 523 353.499023438 c 0
 532.333007812 323.166015625 537 287.333007812 537 246 c 0
148 230.002929688 m 0
 149.333007812 215.3359375 152.333984375 200.506835938 157.000976562 185.506835938 c 0
 161.66796875 170.506835938 168.16796875 155.33984375 176.500976562 140.006835938 c 0
 184.833984375 124.673828125 194.666992188 111.340820312 206 100.0078125 c 0
 217.333007812 88.6748046875 231 79.5078125 247 72.5078125 c 0
 263 65.5078125 280 62.0078125 298 62.0078125 c 0
 322.666992188 62.0078125 346 70.6748046875 368 88.0078125 c 0
 390 105.340820312 407.333007812 127.173828125 420 153.506835938 c 0
 432.666992188 179.83984375 439 206.672851562 439 234.005859375 c 0
 439 265.338867188 436.333007812 291.671875 431 313.004882812 c 0
 425.666992188 334.337890625 417.166992188 350.670898438 405.5 362.00390625 c 0
 393.833007812 373.336914062 380.666015625 381.336914062 365.999023438 386.00390625 c 0
 351.33203125 390.670898438 333.33203125 393.00390625 311.999023438 393.00390625 c 0
 278.666015625 393.00390625 247.333007812 384.336914062 218 367.00390625 c 0
 188.666992188 349.670898438 164.666992188 327.670898438 146 301.00390625 c 1
 146 272.336914062 146.666992188 248.669921875 148 230.002929688 c 0
EndSplineSet
Validated: 524289
EndChar

StartChar: seven
Encoding: 55 55 23
Width: 593
GlyphClass: 2
Flags: HMW
HStem: -22.9443 21G 622.497 90.5
LayerCount: 2
Fore
SplineSet
197 26 m 0
 189 8.6669921875 178.495117188 -4.3349609375 165.495117188 -13.001953125 c 0
 155.553710938 -19.6298828125 145.709960938 -22.943359375 135.963867188 -22.943359375 c 0
 132.96484375 -22.943359375 129.974609375 -22.6298828125 126.994140625 -22.001953125 c 0
 112.994140625 -18.6689453125 103.161132812 -10.6689453125 97.494140625 1.998046875 c 0
 94.890625 7.818359375 93.5888671875 13.919921875 93.5888671875 20.302734375 c 0
 93.5888671875 27.8115234375 95.390625 35.7099609375 98.994140625 43.998046875 c 0
 132.994140625 112.665039062 169.494140625 180.998046875 208.494140625 248.998046875 c 0
 247.494140625 316.998046875 279.827148438 371.165039062 305.494140625 411.498046875 c 0
 331.161132812 451.831054688 354.828125 490.998046875 376.495117188 528.998046875 c 0
 398.162109375 566.998046875 412.662109375 597.998046875 419.995117188 621.998046875 c 1
 388.357421875 623.088867188 355.62890625 623.634765625 321.809570312 623.634765625 c 0
 293.62890625 623.634765625 264.690429688 623.255859375 234.995117188 622.498046875 c 0
 169.662109375 620.831054688 126.995117188 617.331054688 106.995117188 611.998046875 c 0
 98.9951171875 609.998046875 91.828125 610.331054688 85.4951171875 612.998046875 c 0
 79.162109375 615.665039062 73.9951171875 619.665039062 69.9951171875 624.998046875 c 0
 65.9951171875 630.331054688 62.9951171875 635.998046875 60.9951171875 641.998046875 c 0
 58.9951171875 647.998046875 57.9951171875 653.998046875 57.9951171875 659.998046875 c 0
 57.9951171875 671.998046875 60.9951171875 681.498046875 66.9951171875 688.498046875 c 0
 72.9951171875 695.498046875 83.9951171875 700.665039062 99.9951171875 703.998046875 c 0
 124.662109375 708.665039062 158.829101562 711.665039062 202.49609375 712.998046875 c 0
 224.330078125 713.6640625 245.2890625 713.997070312 265.373046875 713.997070312 c 0
 285.45703125 713.997070312 304.666015625 713.6640625 322.999023438 712.998046875 c 0
 359.666015625 711.665039062 395.666015625 710.33203125 430.999023438 708.999023438 c 0
 466.33203125 707.666015625 485.33203125 706.999023438 487.999023438 706.999023438 c 0
 494.666015625 706.999023438 501.499023438 705.499023438 508.499023438 702.499023438 c 0
 515.499023438 699.499023438 521.83203125 694.666015625 527.499023438 687.999023438 c 0
 531.833984375 682.8984375 536.522460938 674.20703125 536.522460938 660.463867188 c 0
 536.522460938 650.153320312 533.34765625 638.331054688 526.998046875 624.997070312 c 0
 517.665039062 604.997070312 500.83203125 574.830078125 476.499023438 534.497070312 c 0
 452.166015625 494.1640625 426.833007812 452.831054688 400.5 410.498046875 c 0
 374.166992188 368.165039062 342.166992188 311.83203125 304.5 241.499023438 c 0
 266.833007812 171.166015625 231 99.3330078125 197 26 c 0
EndSplineSet
Validated: 524289
EndChar

StartChar: eight
Encoding: 56 56 24
Width: 593
GlyphClass: 2
Flags: W
HStem: -27.9922 85.9971<203.677 378.525> 646.004 72.001<219.913 353.63>
VStem: 50.9961 85.998<120.066 256.492> 77.9971 93.998<487.944 598.703> 408.995 90.002<483.938 592.01> 449.994 93.0059<121.363 264.134>
LayerCount: 2
Fore
SplineSet
543 204 m 0xc4
 543 182.666992188 540.162109375 161.338867188 534.495117188 140.005859375 c 0
 528.828125 118.672851562 519.328125 97.83984375 505.995117188 77.5068359375 c 0
 492.662109375 57.173828125 476.329101562 39.3408203125 456.99609375 24.0078125 c 0
 437.663085938 8.6748046875 412.99609375 -3.8251953125 382.99609375 -13.4921875 c 0
 352.99609375 -23.1591796875 319.663085938 -27.9921875 282.99609375 -27.9921875 c 0
 249.663085938 -27.9921875 219.330078125 -23.3251953125 191.997070312 -13.9921875 c 0
 164.6640625 -4.6591796875 142.497070312 7.173828125 125.497070312 21.5068359375 c 0
 108.497070312 35.83984375 94.1640625 53.0068359375 82.4970703125 73.0068359375 c 0
 70.830078125 93.0068359375 62.6630859375 113.173828125 57.99609375 133.506835938 c 0
 53.3291015625 153.83984375 50.99609375 174.672851562 50.99609375 196.005859375 c 0xe4
 50.99609375 218.672851562 56.6630859375 243.005859375 67.99609375 269.005859375 c 0
 79.3291015625 295.005859375 95.8291015625 319.005859375 117.49609375 341.005859375 c 0
 139.163085938 363.005859375 163.330078125 378.338867188 189.997070312 387.005859375 c 1
 154.6640625 403.672851562 127.1640625 425.505859375 107.497070312 452.505859375 c 0
 87.830078125 479.505859375 77.9970703125 507.005859375 77.9970703125 535.005859375 c 0
 77.9970703125 543.005859375 78.6640625 551.505859375 79.9970703125 560.505859375 c 0
 81.330078125 569.505859375 83.830078125 580.172851562 87.4970703125 592.505859375 c 0
 91.1640625 604.838867188 96.1640625 616.671875 102.497070312 628.004882812 c 0
 108.830078125 639.337890625 117.497070312 650.504882812 128.497070312 661.504882812 c 0
 139.497070312 672.504882812 151.997070312 682.171875 165.997070312 690.504882812 c 0
 179.997070312 698.837890625 197.497070312 705.504882812 218.497070312 710.504882812 c 0
 239.497070312 715.504882812 262.330078125 718.004882812 286.997070312 718.004882812 c 0
 312.997070312 718.004882812 336.497070312 715.504882812 357.497070312 710.504882812 c 0
 378.497070312 705.504882812 396.1640625 698.837890625 410.497070312 690.504882812 c 0
 424.830078125 682.171875 437.497070312 672.504882812 448.497070312 661.504882812 c 0
 459.497070312 650.504882812 467.997070312 639.337890625 473.997070312 628.004882812 c 0
 479.997070312 616.671875 484.997070312 604.671875 488.997070312 592.004882812 c 0
 492.997070312 579.337890625 495.6640625 568.170898438 496.997070312 558.50390625 c 0
 498.330078125 548.836914062 498.997070312 539.669921875 498.997070312 531.002929688 c 0xd8
 498.997070312 523.002929688 497.997070312 515.002929688 495.997070312 507.002929688 c 0
 493.997070312 499.002929688 491.330078125 492.002929688 487.997070312 486.002929688 c 0
 484.6640625 480.002929688 480.331054688 473.669921875 474.998046875 467.002929688 c 0
 469.665039062 460.3359375 464.665039062 454.668945312 459.998046875 450.001953125 c 0
 455.331054688 445.334960938 449.331054688 440.001953125 441.998046875 434.001953125 c 0
 434.665039062 428.001953125 428.83203125 423.501953125 424.499023438 420.501953125 c 0
 420.166015625 417.501953125 413.999023438 413.334960938 405.999023438 408.001953125 c 0
 397.999023438 402.668945312 392.666015625 399.001953125 389.999023438 397.001953125 c 1
 414.666015625 386.334960938 436.333007812 374.334960938 455 361.001953125 c 0
 473.666992188 347.668945312 488.5 334.501953125 499.5 321.501953125 c 0
 510.5 308.501953125 519.333007812 294.668945312 526 280.001953125 c 0
 532.666992188 265.334960938 537.166992188 252.16796875 539.5 240.500976562 c 0
 541.833007812 228.833984375 543 216.666992188 543 204 c 0xc4
171.995117188 538.004882812 m 0xd8
 171.995117188 516.004882812 182.162109375 496.504882812 202.495117188 479.504882812 c 0
 222.828125 462.504882812 256.328125 445.337890625 302.995117188 428.004882812 c 1
 330.995117188 439.337890625 355.662109375 454.670898438 376.995117188 474.00390625 c 0
 398.328125 493.336914062 408.995117188 511.336914062 408.995117188 528.00390625 c 0
 408.995117188 546.670898438 403.662109375 565.00390625 392.995117188 583.00390625 c 0
 382.328125 601.00390625 367.495117188 616.00390625 348.495117188 628.00390625 c 0
 329.495117188 640.00390625 308.995117188 646.00390625 286.995117188 646.00390625 c 0
 255.662109375 646.00390625 228.662109375 634.836914062 205.995117188 612.50390625 c 0
 183.328125 590.170898438 171.995117188 565.337890625 171.995117188 538.004882812 c 0xd8
286.995117188 58.0048828125 m 0
 306.328125 58.0048828125 325.66015625 60.8330078125 344.993164062 66.5 c 0
 364.326171875 72.1669921875 381.826171875 80.333984375 397.493164062 91.0009765625 c 0
 413.16015625 101.66796875 425.827148438 115.66796875 435.494140625 133.000976562 c 0
 445.161132812 150.333984375 449.994140625 168.666992188 449.994140625 188 c 0
 449.994140625 198.666992188 448.994140625 208.833984375 446.994140625 218.500976562 c 0
 444.994140625 228.16796875 440.994140625 239.334960938 434.994140625 252.001953125 c 0
 428.994140625 264.668945312 420.661132812 276.3359375 409.994140625 287.002929688 c 0
 399.327148438 297.669921875 384.494140625 308.836914062 365.494140625 320.50390625 c 0
 346.494140625 332.170898438 324.327148438 342.670898438 298.994140625 352.00390625 c 1
 250.994140625 339.336914062 211.994140625 317.336914062 181.994140625 286.00390625 c 0
 151.994140625 254.670898438 136.994140625 221.337890625 136.994140625 186.004882812 c 0xe4
 136.994140625 161.337890625 144.494140625 139.004882812 159.494140625 119.004882812 c 0
 174.494140625 99.0048828125 193.327148438 83.837890625 215.994140625 73.5048828125 c 0
 238.661132812 63.171875 262.328125 58.0048828125 286.995117188 58.0048828125 c 0
EndSplineSet
Validated: 524289
EndChar

StartChar: nine
Encoding: 57 57 25
Width: 593
GlyphClass: 2
Flags: HMW
HStem: -22.3812 21G 234.998 89 654.995 84.0049
VStem: 56.002 98.0049 449.172 87.8928
LayerCount: 2
Fore
SplineSet
183 -22 m 0
 180.077148438 -22.25390625 177.219726562 -22.3828125 174.430664062 -22.3828125 c 0
 162.587890625 -22.3828125 151.94921875 -20.091796875 142.506835938 -15.5048828125 c 0
 130.83984375 -9.837890625 124.33984375 -0.6708984375 123.006835938 11.99609375 c 0
 122.33984375 20.6630859375 126.172851562 29.6630859375 134.505859375 38.99609375 c 0
 142.838867188 48.3291015625 152.671875 54.662109375 164.004882812 57.9951171875 c 0
 171.337890625 59.9951171875 183.170898438 62.662109375 199.50390625 65.9951171875 c 0
 215.836914062 69.328125 230.50390625 72.828125 243.50390625 76.4951171875 c 0
 256.50390625 80.162109375 271.170898438 84.9951171875 287.50390625 90.9951171875 c 0
 303.836914062 96.9951171875 319.669921875 105.328125 335.002929688 115.995117188 c 0
 350.3359375 126.662109375 364.3359375 139.329101562 377.002929688 153.99609375 c 0
 393.669921875 173.329101562 408.502929688 195.829101562 421.502929688 221.49609375 c 0
 434.502929688 247.163085938 443.669921875 270.330078125 449.002929688 290.997070312 c 1
 430.3359375 269.6640625 406.3359375 254.997070312 377.002929688 246.997070312 c 0
 347.669921875 238.997070312 311.669921875 234.997070312 269.002929688 234.997070312 c 0
 239.669921875 234.997070312 211.669921875 241.830078125 185.002929688 255.497070312 c 0
 158.3359375 269.1640625 135.668945312 287.331054688 117.001953125 309.998046875 c 0
 98.3349609375 332.665039062 83.501953125 358.83203125 72.501953125 388.499023438 c 0
 61.501953125 418.166015625 56.001953125 448.333007812 56.001953125 479 c 0
 56.001953125 516.333007812 62.3349609375 551.166015625 75.001953125 583.499023438 c 0
 87.6689453125 615.83203125 104.668945312 643.33203125 126.001953125 665.999023438 c 0
 147.334960938 688.666015625 172.66796875 706.499023438 202.000976562 719.499023438 c 0
 231.333984375 732.499023438 262.666992188 738.999023438 296 738.999023438 c 0
 378 738.999023438 439 707.999023438 479 645.999023438 c 0
 517.709960938 585.999023438 537.064453125 500.711914062 537.064453125 390.138671875 c 0
 537.064453125 386.454101562 537.04296875 382.741210938 537 379 c 0
 536.333007812 325.666992188 529.666015625 277.5 516.999023438 234.5 c 0
 504.33203125 191.5 487.33203125 155 465.999023438 125 c 0
 444.666015625 95 419.166015625 69.3330078125 389.499023438 48 c 0
 359.83203125 26.6669921875 327.83203125 10.5 293.499023438 -0.5 c 0
 259.166015625 -11.5 222.333007812 -18.6669921875 183 -22 c 0
154.005859375 490.993164062 m 0
 154.005859375 436.326171875 165.8359375 394.829101562 189.502929688 366.49609375 c 0
 213.169921875 338.163085938 248.336914062 323.99609375 295.00390625 323.99609375 c 0
 324.336914062 323.99609375 353.00390625 330.663085938 381.00390625 343.99609375 c 0
 409.00390625 357.329101562 431.670898438 375.662109375 449.00390625 398.995117188 c 0
 449.115234375 402.21875 449.170898438 405.720703125 449.170898438 409.500976562 c 0
 449.170898438 428.388671875 447.782226562 454.219726562 445.004882812 486.994140625 c 0
 443.671875 501.661132812 440.838867188 516.494140625 436.505859375 531.494140625 c 0
 432.172851562 546.494140625 425.672851562 561.661132812 417.005859375 576.994140625 c 0
 408.338867188 592.327148438 398.338867188 605.66015625 387.005859375 616.993164062 c 0
 375.672851562 628.326171875 362.005859375 637.493164062 346.005859375 644.493164062 c 0
 330.005859375 651.493164062 313.005859375 654.993164062 295.005859375 654.993164062 c 0
 270.338867188 654.993164062 247.005859375 646.993164062 225.005859375 630.993164062 c 0
 203.005859375 614.993164062 185.672851562 594.493164062 173.005859375 569.493164062 c 0
 160.338867188 544.493164062 154.005859375 518.326171875 154.005859375 490.993164062 c 0
EndSplineSet
Validated: 524289
EndChar

StartChar: colon
Encoding: 58 58 26
Width: 593
GlyphClass: 2
Flags: HMW
HStem: 39.8998 155.096 306.91 155.09
VStem: 231.668 127.695
LayerCount: 2
Fore
SplineSet
359 417 m 0
 359.2421875 413 359.36328125 408.956054688 359.36328125 404.868164062 c 0
 359.36328125 386.470703125 356.909179688 367.1796875 352 346.997070312 c 0
 348.666992188 333.6640625 341.333984375 323.497070312 330.000976562 316.497070312 c 0
 319.653320312 310.106445312 309.583984375 306.91015625 299.791992188 306.91015625 c 0
 298.859375 306.91015625 297.928710938 306.939453125 297.000976562 306.997070312 c 0
 257.000976562 308.997070312 235.66796875 324.330078125 233.000976562 352.997070312 c 0
 232.112304688 364.994140625 231.66796875 379.211914062 231.66796875 395.651367188 c 0
 231.66796875 403.876953125 231.779296875 412.659179688 232.001953125 421.997070312 c 0
 232.001953125 430.6640625 234.501953125 437.831054688 239.501953125 443.498046875 c 0
 244.501953125 449.165039062 250.668945312 453.33203125 258.001953125 455.999023438 c 0
 265.334960938 458.666015625 272.334960938 460.333007812 279.001953125 461 c 0
 285.668945312 461.666992188 292.001953125 462 298.001953125 462 c 0
 304.001953125 462 310.168945312 461.333007812 316.501953125 460 c 0
 322.834960938 458.666992188 329.16796875 456.5 335.500976562 453.5 c 0
 341.833984375 450.5 347.166992188 445.833007812 351.5 439.5 c 0
 355.833007812 433.166992188 358.333007812 425.666992188 359 417 c 0
360 149.997070312 m 0
 361.5 141.249023438 362.249023438 132.40625 362.249023438 123.469726562 c 0
 362.249023438 108.571289062 360.165039062 93.412109375 355.998046875 77.9931640625 c 0
 352.665039062 64.66015625 344.33203125 54.8271484375 330.999023438 48.494140625 c 0
 318.936523438 42.7646484375 307.692382812 39.8994140625 297.266601562 39.8994140625 c 0
 296.168945312 39.8994140625 295.080078125 39.931640625 294 39.9951171875 c 0
 280.666992188 40.662109375 267.666992188 44.8291015625 255 52.49609375 c 0
 242.333007812 60.1630859375 235.333007812 70.99609375 234 84.99609375 c 0
 233.333007812 98.99609375 232.833007812 107.829101562 232.5 111.49609375 c 0
 232.166992188 115.163085938 232.5 121.99609375 233.5 131.99609375 c 0
 234.5 141.99609375 235 149.663085938 235 154.99609375 c 0
 235 162.99609375 237.333007812 169.99609375 242 175.99609375 c 0
 246.666992188 181.99609375 252.5 186.163085938 259.5 188.49609375 c 0
 266.5 190.829101562 273.333007812 192.49609375 280 193.49609375 c 0
 286.666992188 194.49609375 293 194.99609375 299 194.99609375 c 0
 307 194.99609375 315 193.829101562 323 191.49609375 c 0
 331 189.163085938 338.666992188 184.330078125 346 176.997070312 c 0
 353.333007812 169.6640625 358 160.6640625 360 149.997070312 c 0
EndSplineSet
Validated: 524289
EndChar

StartChar: semicolon
Encoding: 59 59 27
Width: 593
GlyphClass: 2
Flags: HMW
HStem: 264.912 155.087
VStem: 261.665 127.698
LayerCount: 2
Fore
SplineSet
389 375 m 0
 389.2421875 371.000976562 389.36328125 366.958984375 389.36328125 362.872070312 c 0
 389.36328125 344.473632812 386.908203125 325.182617188 381.999023438 304.999023438 c 0
 378.666015625 291.666015625 371.499023438 281.499023438 360.499023438 274.499023438 c 0
 350.456054688 268.108398438 340.2734375 264.912109375 329.952148438 264.912109375 c 0
 328.96875 264.912109375 327.984375 264.94140625 326.999023438 264.999023438 c 0
 318.33203125 265.666015625 309.499023438 267.499023438 300.499023438 270.499023438 c 0
 291.499023438 273.499023438 283.166015625 278.666015625 275.499023438 285.999023438 c 0
 267.83203125 293.33203125 263.665039062 301.999023438 262.998046875 311.999023438 c 0
 262.109375 323.99609375 261.665039062 338.213867188 261.665039062 354.653320312 c 0
 261.665039062 362.87890625 261.776367188 371.661132812 261.999023438 380.999023438 c 0
 261.999023438 388.999023438 264.33203125 395.999023438 268.999023438 401.999023438 c 0
 273.666015625 407.999023438 279.833007812 412.166015625 287.5 414.499023438 c 0
 295.166992188 416.83203125 302.5 418.499023438 309.5 419.499023438 c 0
 316.5 420.499023438 322.666992188 420.666015625 328 419.999023438 c 0
 334 419.999023438 340 419.499023438 346 418.499023438 c 0
 352 417.499023438 358.333007812 415.33203125 365 411.999023438 c 0
 371.666992188 408.666015625 377.166992188 403.833007812 381.5 397.5 c 0
 385.833007812 391.166992188 388.333007812 383.666992188 389 375 c 0
369.999023438 74 m 0
 368.666015625 52.6669921875 346.999023438 -34.333984375 304.999023438 -187.000976562 c 0
 301.666015625 -201.000976562 294.833007812 -211.16796875 284.5 -217.500976562 c 0
 275.151367188 -223.23046875 265.666015625 -226.095703125 256.043945312 -226.095703125 c 0
 255.030273438 -226.095703125 254.015625 -226.063476562 252.999023438 -226 c 0
 239.666015625 -225.333007812 227.833007812 -221 217.5 -213 c 0
 208.34765625 -205.9140625 203.771484375 -196.474609375 203.771484375 -184.681640625 c 0
 203.771484375 -172.114257812 211.672851562 -128.228515625 224.999023438 -63 c 0
 237.666015625 -1 247.666015625 46.3330078125 254.999023438 79 c 0
 256.999023438 89 259.999023438 97 263.999023438 103 c 0
 267.999023438 109 272.499023438 113 277.499023438 115 c 0
 282.499023438 117 287.83203125 118.333007812 293.499023438 119 c 0
 299.166015625 119.666992188 303.999023438 119.666992188 307.999023438 119 c 0
 313.999023438 119 320.499023438 118.166992188 327.499023438 116.5 c 0
 334.499023438 114.833007812 341.499023438 112.5 348.499023438 109.5 c 0
 355.499023438 106.5 360.999023438 102 364.999023438 96 c 0
 368.999023438 90 370.666015625 82.6669921875 369.999023438 74 c 0
EndSplineSet
Validated: 524289
EndChar

StartChar: less
Encoding: 60 60 28
Width: 593
GlyphClass: 2
Flags: HMW
HStem: -12.3989 21G
LayerCount: 2
Fore
SplineSet
542 14 m 0
 538.666992188 7.3330078125 533.666992188 1.6689453125 527 -2.998046875 c 0
 520.333007812 -7.6650390625 511.5 -10.6650390625 500.5 -11.998046875 c 0
 498.30078125 -12.2646484375 496.000976562 -12.3974609375 493.6015625 -12.3974609375 c 0
 484.000976562 -12.3974609375 472.80078125 -10.2646484375 460 -5.998046875 c 0
 443.333007812 -0.6650390625 422.833007812 11.001953125 398.5 29.001953125 c 0
 374.166992188 47.001953125 347.833984375 68.501953125 319.500976562 93.501953125 c 0
 291.16796875 118.501953125 263.000976562 144.001953125 235.000976562 170.001953125 c 0
 207.000976562 196.001953125 177.500976562 222.834960938 146.500976562 250.501953125 c 0
 115.500976562 278.168945312 89.333984375 299.668945312 68.0009765625 315.001953125 c 0
 59.333984375 321.001953125 53.6669921875 330.001953125 51 342.001953125 c 0
 49.7451171875 347.6484375 49.1171875 353.184570312 49.1171875 358.610351562 c 0
 49.1171875 364.713867188 49.9111328125 370.677734375 51.4990234375 376.500976562 c 0
 54.4990234375 387.500976562 60.33203125 395.333984375 68.9990234375 400.000976562 c 0
 106.999023438 428.000976562 151.499023438 463.16796875 202.499023438 505.500976562 c 0
 253.499023438 547.833984375 300.166015625 586.166992188 342.499023438 620.5 c 0
 384.83203125 654.833007812 422.33203125 682 454.999023438 702 c 0
 465.666015625 708.666992188 475.499023438 712.166992188 484.499023438 712.5 c 0
 493.499023438 712.833007812 501.33203125 711.166015625 507.999023438 707.499023438 c 0
 514.666015625 703.83203125 520.499023438 699.33203125 525.499023438 693.999023438 c 0
 530.499023438 688.666015625 534.33203125 682.999023438 536.999023438 676.999023438 c 0
 539.6328125 672.0234375 540.950195312 667.015625 540.950195312 661.975585938 c 0
 540.950195312 655.536132812 538.799804688 649.043945312 534.499023438 642.499023438 c 0
 526.83203125 630.83203125 511.999023438 616.999023438 489.999023438 600.999023438 c 0
 452.666015625 574.999023438 395.833007812 532.33203125 319.5 472.999023438 c 0
 243.166992188 413.666015625 195 375.999023438 175 359.999023438 c 1
 201 339.999023438 229.666992188 315.83203125 261 287.499023438 c 0
 292.333007812 259.166015625 320.333007812 233.499023438 345 210.499023438 c 0
 369.666992188 187.499023438 396 163.999023438 424 139.999023438 c 0
 452 115.999023438 476 96.9990234375 496 82.9990234375 c 0
 517.333007812 68.9990234375 531.5 56.83203125 538.5 46.4990234375 c 0
 542.700195312 40.298828125 544.80078125 33.9189453125 544.80078125 27.359375 c 0
 544.80078125 22.986328125 543.8671875 18.533203125 542 14 c 0
EndSplineSet
Validated: 524289
EndChar

StartChar: equal
Encoding: 61 61 29
Width: 593
GlyphClass: 2
Flags: HMW
HStem: 246.996 83 442.999 85.0725
LayerCount: 2
Fore
SplineSet
153 528 m 0
 191 526.666992188 230.168945312 525.99609375 270.501953125 525.99609375 c 0
 310.834960938 525.99609375 348.501953125 526.329101562 383.501953125 526.99609375 c 0
 418.501953125 527.663085938 439.334960938 527.99609375 446.001953125 527.99609375 c 0
 461.334960938 527.99609375 472.16796875 524.663085938 478.500976562 517.99609375 c 0
 484.833984375 511.329101562 488.333984375 502.329101562 489.000976562 490.99609375 c 0
 489.000976562 484.99609375 488.333984375 479.49609375 487.000976562 474.49609375 c 0
 485.66796875 469.49609375 483.66796875 464.663085938 481.000976562 459.99609375 c 0
 478.333984375 455.329101562 474.000976562 451.829101562 468.000976562 449.49609375 c 0
 462.000976562 447.163085938 454.66796875 446.330078125 446.000976562 446.997070312 c 0
 429.993164062 447.442382812 413.465820312 447.665039062 396.419921875 447.665039062 c 0
 387.909179688 447.665039062 379.26953125 447.609375 370.5 447.498046875 c 0
 344.166992188 447.165039062 307.666992188 446.33203125 261 444.999023438 c 0
 214.333007812 443.666015625 180 442.999023438 158 442.999023438 c 0
 141.333007812 442.999023438 128.333007812 446.999023438 119 454.999023438 c 0
 105.057617188 466.950195312 104.922851562 479.587890625 104.922851562 486.887695312 c 0
 104.922851562 498.295898438 108.615234375 508 116 516 c 0
 123.428710938 524.047851562 134.592773438 528.071289062 149.493164062 528.071289062 c 0
 150.639648438 528.071289062 151.80859375 528.047851562 153 528 c 0
156.001953125 329.99609375 m 0
 173.588867188 329.7734375 192.142578125 329.662109375 211.662109375 329.662109375 c 0
 250.59765625 329.662109375 293.377929688 330.10546875 340.002929688 330.993164062 c 0
 410.002929688 332.326171875 445.3359375 332.993164062 446.002929688 332.993164062 c 0
 461.3359375 332.993164062 472.168945312 329.493164062 478.501953125 322.493164062 c 0
 484.834960938 315.493164062 488.334960938 306.326171875 489.001953125 294.993164062 c 0
 489.001953125 288.993164062 488.334960938 283.493164062 487.001953125 278.493164062 c 0
 485.668945312 273.493164062 483.668945312 268.66015625 481.001953125 263.993164062 c 0
 478.334960938 259.326171875 474.001953125 255.826171875 468.001953125 253.493164062 c 0
 462.001953125 251.16015625 454.668945312 250.327148438 446.001953125 250.994140625 c 0
 429.994140625 251.439453125 413.319335938 251.662109375 395.9765625 251.662109375 c 0
 387.318359375 251.662109375 378.493164062 251.606445312 369.501953125 251.495117188 c 0
 342.501953125 251.162109375 305.334960938 250.329101562 258.001953125 248.99609375 c 0
 210.668945312 247.663085938 176.001953125 246.99609375 154.001953125 246.99609375 c 0
 137.334960938 246.99609375 125.001953125 251.163085938 117.001953125 259.49609375 c 0
 105.625 271.346679688 104.930664062 284.059570312 104.930664062 292.397460938 c 0
 104.930664062 302.677734375 108.954101562 311.376953125 117.001953125 318.49609375 c 0
 125.668945312 326.163085938 138.668945312 329.99609375 156.001953125 329.99609375 c 0
EndSplineSet
Validated: 524289
EndChar

StartChar: greater
Encoding: 62 62 30
Width: 593
GlyphClass: 2
Flags: W
LayerCount: 2
Fore
SplineSet
139 5 m 0
 129 -1 119.331054688 -4.33203125 109.998046875 -4.9990234375 c 0
 100.665039062 -5.666015625 92.6650390625 -4.166015625 85.998046875 -0.4990234375 c 0
 79.3310546875 3.16796875 73.6640625 7.66796875 68.9970703125 13.0009765625 c 0
 64.330078125 18.333984375 60.6630859375 24.0009765625 57.99609375 30.0009765625 c 0
 55.2958984375 35.1005859375 53.9462890625 40.234375 53.9462890625 45.4013671875 c 0
 53.9462890625 51.716796875 55.962890625 58.0830078125 59.99609375 64.5 c 0
 67.3291015625 76.1669921875 82.3291015625 90 104.99609375 106 c 0
 142.329101562 132 198.99609375 174.666992188 274.99609375 234 c 0
 350.99609375 293.333007812 399.663085938 331 420.99609375 347 c 1
 394.99609375 367 365.829101562 391.166992188 333.49609375 419.5 c 0
 301.163085938 447.833007812 272.99609375 473.5 248.99609375 496.5 c 0
 224.99609375 519.5 198.99609375 543 170.99609375 567 c 0
 142.99609375 591 118.329101562 610 96.99609375 624 c 0
 75.6630859375 638 61.49609375 650.166992188 54.49609375 660.5 c 0
 50.5234375 666.364257812 48.537109375 672.389648438 48.537109375 678.576171875 c 0
 48.537109375 683.290039062 49.6904296875 688.09765625 51.9970703125 692.998046875 c 0
 55.330078125 699.665039062 60.1630859375 705.33203125 66.49609375 709.999023438 c 0
 72.8291015625 714.666015625 81.8291015625 717.666015625 93.49609375 718.999023438 c 0
 95.8291015625 719.265625 98.2353515625 719.3984375 100.71484375 719.3984375 c 0
 110.635742188 719.3984375 121.729492188 717.265625 133.99609375 712.999023438 c 0
 150.663085938 707.666015625 171.330078125 696.166015625 195.997070312 678.499023438 c 0
 220.6640625 660.83203125 247.1640625 639.33203125 275.497070312 613.999023438 c 0
 303.830078125 588.666015625 331.997070312 562.999023438 359.997070312 536.999023438 c 0
 387.997070312 510.999023438 417.330078125 484.33203125 447.997070312 456.999023438 c 0
 478.6640625 429.666015625 505.331054688 407.999023438 527.998046875 391.999023438 c 0
 535.998046875 385.999023438 541.331054688 376.999023438 543.998046875 364.999023438 c 0
 545.18359375 359.665039062 545.776367188 354.4296875 545.776367188 349.29296875 c 0
 545.776367188 342.874023438 544.850585938 336.609375 542.999023438 330.499023438 c 0
 539.666015625 319.499023438 533.999023438 311.666015625 525.999023438 306.999023438 c 0
 487.999023438 278.999023438 443.499023438 243.83203125 392.499023438 201.499023438 c 0
 341.499023438 159.166015625 294.83203125 120.833007812 252.499023438 86.5 c 0
 210.166015625 52.1669921875 172.333007812 25 139 5 c 0
EndSplineSet
Validated: 524289
EndChar

StartChar: question
Encoding: 63 63 31
Width: 593
GlyphClass: 2
Flags: HMW
HStem: -14.5656 154.604 637.999 84.001
VStem: 192.997 163 404.999 99
LayerCount: 2
Fore
SplineSet
328 262 m 0
 325.333007812 244.666992188 319.162109375 231.330078125 309.495117188 221.997070312 c 0
 303.05078125 215.775390625 294.754882812 212.6640625 284.607421875 212.6640625 c 0
 279.533203125 212.6640625 273.99609375 213.442382812 267.99609375 214.998046875 c 0
 249.329101562 219.665039062 236.99609375 228.33203125 230.99609375 240.999023438 c 0
 227.819335938 247.705078125 226.231445312 255.625 226.231445312 264.759765625 c 0
 226.231445312 272.879882812 227.486328125 281.959960938 229.99609375 291.999023438 c 0
 234.663085938 309.999023438 241.49609375 326.999023438 250.49609375 342.999023438 c 0
 259.49609375 358.999023438 269.329101562 372.666015625 279.99609375 383.999023438 c 0
 290.663085938 395.33203125 301.830078125 406.165039062 313.497070312 416.498046875 c 0
 325.1640625 426.831054688 336.331054688 436.498046875 346.998046875 445.498046875 c 0
 357.665039062 454.498046875 367.33203125 463.665039062 375.999023438 472.998046875 c 0
 384.666015625 482.331054688 391.666015625 492.498046875 396.999023438 503.498046875 c 0
 402.33203125 514.498046875 404.999023438 526.331054688 404.999023438 538.998046875 c 0
 404.999023438 573.665039062 394.83203125 598.83203125 374.499023438 614.499023438 c 0
 354.166015625 630.166015625 325.333007812 637.999023438 288 637.999023438 c 0
 278.666992188 637.999023438 269.333984375 635.83203125 260.000976562 631.499023438 c 0
 250.66796875 627.166015625 242.500976562 622.333007812 235.500976562 617 c 0
 228.500976562 611.666992188 221.16796875 604.5 213.500976562 595.5 c 0
 205.833984375 586.5 199.833984375 578.833007812 195.500976562 572.5 c 0
 191.16796875 566.166992188 186.000976562 558.666992188 180.000976562 550 c 0
 174.000976562 541.333007812 168.333984375 534.5 163.000976562 529.5 c 0
 157.66796875 524.5 152.000976562 521.833007812 146.000976562 521.5 c 0
 140.000976562 521.166992188 134.66796875 521.5 130.000976562 522.5 c 0
 125.333984375 523.5 119.333984375 525.666992188 112.000976562 529 c 0
 100.66796875 535 93.5009765625 543.666992188 90.5009765625 555 c 0
 89.7294921875 557.9140625 89.34375 561.048828125 89.34375 564.404296875 c 0
 89.34375 574.096679688 92.5625 585.62890625 99.0009765625 599 c 0
 106.333984375 613 115.166992188 626.5 125.5 639.5 c 0
 135.833007812 652.5 148.666015625 665.5 163.999023438 678.5 c 0
 179.33203125 691.5 197.499023438 702 218.499023438 710 c 0
 239.499023438 718 261.33203125 722 283.999023438 722 c 0
 355.999023438 722 410.666015625 705.333007812 447.999023438 672 c 0
 485.33203125 638.666992188 503.999023438 588.666992188 503.999023438 522 c 0
 503.999023438 504 501.166015625 487.666992188 495.499023438 473 c 0
 489.83203125 458.333007812 482.33203125 445.666015625 472.999023438 434.999023438 c 0
 463.666015625 424.33203125 453.166015625 414.33203125 441.499023438 404.999023438 c 0
 429.83203125 395.666015625 417.83203125 386.333007812 405.499023438 377 c 0
 393.166015625 367.666992188 381.833007812 358 371.5 348 c 0
 361.166992188 338 352 325.5 344 310.5 c 0
 336 295.5 330.666992188 279.333007812 328 262 c 0
276.99609375 -14.00390625 m 0
 273.533203125 -14.3779296875 270.158203125 -14.5654296875 266.872070312 -14.5654296875 c 0
 246.754882812 -14.5654296875 229.962890625 -7.5478515625 216.49609375 6.4921875 c 0
 200.829101562 22.8251953125 192.99609375 41.9921875 192.99609375 63.9921875 c 0
 192.99609375 84.6591796875 201.49609375 102.326171875 218.49609375 116.993164062 c 0
 235.49609375 131.66015625 254.99609375 139.327148438 276.99609375 139.994140625 c 0
 278.033203125 140.0234375 279.0625 140.038085938 280.083007812 140.038085938 c 0
 302.010742188 140.038085938 319.981445312 133.190429688 333.99609375 119.495117188 c 0
 348.663085938 105.162109375 355.99609375 86.9951171875 355.99609375 64.9951171875 c 0
 355.99609375 43.662109375 348.829101562 25.8291015625 334.49609375 11.49609375 c 0
 320.163085938 -2.8369140625 300.99609375 -11.3369140625 276.99609375 -14.00390625 c 0
EndSplineSet
Validated: 524289
EndChar

StartChar: at
Encoding: 64 64 32
Width: 593
GlyphClass: 2
Flags: HMW
HStem: -129.182 85.178 102.002 77.9951 118.002 79.9941 381 77.1335 612.994 90.0078
VStem: 38.9941 87.0029 161.995 76.999 343.993 80.002 481.997 72.998
LayerCount: 2
Fore
SplineSet
504 5 m 0xdf80
 500.666992188 -4.3330078125 497.16015625 -12.5009765625 493.493164062 -19.5009765625 c 0
 489.826171875 -26.5009765625 484.826171875 -35.16796875 478.493164062 -45.5009765625 c 0
 472.16015625 -55.833984375 465.493164062 -64.6669921875 458.493164062 -72 c 0
 451.493164062 -79.3330078125 442.326171875 -86.8330078125 430.993164062 -94.5 c 0
 419.66015625 -102.166992188 407.493164062 -108.5 394.493164062 -113.5 c 0
 381.493164062 -118.5 365.993164062 -122.5 347.993164062 -125.5 c 0
 333.266601562 -127.954101562 317.647460938 -129.181640625 301.135742188 -129.181640625 c 0
 297.465820312 -129.181640625 293.751953125 -129.12109375 289.993164062 -129 c 0
 254.66015625 -129 221.66015625 -120.333007812 190.993164062 -103 c 0
 160.326171875 -85.6669921875 133.826171875 -61.5 111.493164062 -30.5 c 0
 89.16015625 0.5 71.4931640625 38.1669921875 58.4931640625 82.5 c 0
 45.4931640625 126.833007812 38.9931640625 175.333007812 38.9931640625 228 c 0
 38.9931640625 286.666992188 43.4931640625 341.333984375 52.4931640625 392.000976562 c 0
 61.4931640625 442.66796875 74.326171875 486.834960938 90.9931640625 524.501953125 c 0
 107.66015625 562.168945312 127.327148438 594.501953125 149.994140625 621.501953125 c 0
 172.661132812 648.501953125 197.661132812 668.834960938 224.994140625 682.501953125 c 0
 252.327148438 696.168945312 280.994140625 703.001953125 310.994140625 703.001953125 c 0
 333.661132812 703.001953125 353.994140625 701.168945312 371.994140625 697.501953125 c 0
 389.994140625 693.834960938 407.494140625 687.834960938 424.494140625 679.501953125 c 0
 441.494140625 671.168945312 456.494140625 660.001953125 469.494140625 646.001953125 c 0
 482.494140625 632.001953125 494.494140625 614.501953125 505.494140625 593.501953125 c 0
 516.494140625 572.501953125 525.494140625 548.001953125 532.494140625 520.001953125 c 0
 539.494140625 492.001953125 544.994140625 459.001953125 548.994140625 421.001953125 c 0
 552.994140625 383.001953125 554.994140625 340.334960938 554.994140625 293.001953125 c 0
 554.994140625 269.001953125 553.161132812 246.168945312 549.494140625 224.501953125 c 0
 545.827148438 202.834960938 540.494140625 182.501953125 533.494140625 163.501953125 c 0
 526.494140625 144.501953125 516.161132812 129.501953125 502.494140625 118.501953125 c 0
 488.827148438 107.501953125 472.994140625 102.001953125 454.994140625 102.001953125 c 0xdf80
 406.994140625 102.001953125 379.994140625 130.001953125 373.994140625 186.001953125 c 1
 358.661132812 140.668945312 329.661132812 118.001953125 286.994140625 118.001953125 c 0
 247.661132812 118.001953125 216.994140625 130.334960938 194.994140625 155.001953125 c 0
 172.994140625 179.668945312 161.994140625 217.3359375 161.994140625 268.002929688 c 0
 161.994140625 293.3359375 164.827148438 316.668945312 170.494140625 338.001953125 c 0
 176.161132812 359.334960938 183.828125 377.501953125 193.495117188 392.501953125 c 0
 203.162109375 407.501953125 214.495117188 420.168945312 227.495117188 430.501953125 c 0
 240.495117188 440.834960938 254.662109375 448.16796875 269.995117188 452.500976562 c 0
 283.283203125 456.255859375 296.821289062 458.133789062 310.610351562 458.133789062 c 0
 312.732421875 458.133789062 314.861328125 458.088867188 316.99609375 458 c 0
 332.99609375 457.333007812 348.99609375 453.666015625 364.99609375 446.999023438 c 0
 380.329101562 440.999023438 392.662109375 432.999023438 401.995117188 422.999023438 c 0
 411.328125 412.999023438 413.661132812 403.999023438 408.994140625 395.999023438 c 0
 406.327148438 390.666015625 403.327148438 386.333007812 399.994140625 383 c 0
 396.661132812 379.666992188 392.661132812 377.333984375 387.994140625 376.000976562 c 0
 383.327148438 374.66796875 378.994140625 373.66796875 374.994140625 373.000976562 c 0
 370.994140625 372.333984375 365.994140625 372.500976562 359.994140625 373.500976562 c 0
 353.994140625 374.500976562 349.327148438 375.333984375 345.994140625 376.000976562 c 0
 342.661132812 376.66796875 337.661132812 378.000976562 330.994140625 380.000976562 c 0
 322.327148438 381.333984375 313.827148438 381.666992188 305.494140625 381 c 0
 297.161132812 380.333007812 288.994140625 377.5 280.994140625 372.5 c 0
 272.994140625 367.5 265.994140625 361.166992188 259.994140625 353.5 c 0
 253.994140625 345.833007812 248.994140625 335.666015625 244.994140625 322.999023438 c 0
 240.994140625 310.33203125 238.994140625 295.999023438 238.994140625 279.999023438 c 0
 238.994140625 271.33203125 239.494140625 263.165039062 240.494140625 255.498046875 c 0
 241.494140625 247.831054688 243.494140625 239.1640625 246.494140625 229.497070312 c 0
 249.494140625 219.830078125 254.161132812 212.163085938 260.494140625 206.49609375 c 0
 266.827148438 200.829101562 274.66015625 197.99609375 283.993164062 197.99609375 c 0xbf80
 305.326171875 197.99609375 320.326171875 206.163085938 328.993164062 222.49609375 c 0
 337.66015625 238.829101562 342.66015625 265.99609375 343.993164062 303.99609375 c 0
 343.993164062 314.663085938 352.66015625 323.330078125 369.993164062 329.997070312 c 0
 380.80078125 334.2421875 390.602539062 336.365234375 399.3984375 336.365234375 c 0
 405.795898438 336.365234375 411.661132812 335.2421875 416.994140625 332.997070312 c 0
 425.661132812 329.6640625 429.328125 322.997070312 427.995117188 312.997070312 c 0
 425.328125 289.44140625 423.995117188 269.3671875 423.995117188 252.774414062 c 0
 423.995117188 244.478515625 424.328125 237.052734375 424.995117188 230.497070312 c 0
 426.995117188 210.830078125 430.328125 197.497070312 434.995117188 190.497070312 c 0
 439.662109375 183.497070312 446.329101562 179.997070312 454.99609375 179.997070312 c 0
 460.329101562 179.997070312 464.99609375 184.330078125 468.99609375 192.997070312 c 0
 472.99609375 201.6640625 475.829101562 212.997070312 477.49609375 226.997070312 c 0
 479.163085938 240.997070312 480.330078125 253.330078125 480.997070312 263.997070312 c 0
 481.6640625 274.6640625 481.997070312 284.997070312 481.997070312 294.997070312 c 0
 481.997070312 328.997070312 480.497070312 360.330078125 477.497070312 388.997070312 c 0
 474.497070312 417.6640625 470.830078125 442.1640625 466.497070312 462.497070312 c 0
 462.1640625 482.830078125 456.331054688 501.163085938 448.998046875 517.49609375 c 0
 441.665039062 533.829101562 434.665039062 547.162109375 427.998046875 557.495117188 c 0
 421.331054688 567.828125 413.331054688 576.661132812 403.998046875 583.994140625 c 0
 394.665039062 591.327148438 386.498046875 596.827148438 379.498046875 600.494140625 c 0
 372.498046875 604.161132812 364.498046875 606.994140625 355.498046875 608.994140625 c 0
 346.498046875 610.994140625 339.665039062 612.161132812 334.998046875 612.494140625 c 0
 330.331054688 612.827148438 324.6640625 612.994140625 317.997070312 612.994140625 c 0
 291.330078125 612.994140625 266.497070312 604.661132812 243.497070312 587.994140625 c 0
 220.497070312 571.327148438 200.1640625 548.16015625 182.497070312 518.493164062 c 0
 164.830078125 488.826171875 150.997070312 451.993164062 140.997070312 407.993164062 c 0
 130.997070312 363.993164062 125.997070312 315.993164062 125.997070312 263.993164062 c 0
 125.997070312 218.66015625 129.330078125 177.827148438 135.997070312 141.494140625 c 0
 142.6640625 105.161132812 151.6640625 75.828125 162.997070312 53.4951171875 c 0
 174.330078125 31.162109375 187.497070312 12.3291015625 202.497070312 -3.00390625 c 0
 217.497070312 -18.3369140625 232.497070312 -29.00390625 247.497070312 -35.00390625 c 0
 262.497070312 -41.00390625 277.997070312 -44.00390625 293.997070312 -44.00390625 c 0
 311.330078125 -44.00390625 327.330078125 -42.3369140625 341.997070312 -39.00390625 c 0
 356.6640625 -35.6708984375 368.831054688 -31.6708984375 378.498046875 -27.00390625 c 0
 388.165039062 -22.3369140625 397.33203125 -16.00390625 405.999023438 -8.00390625 c 0
 414.666015625 -0.00390625 421.333007812 7.3291015625 426 13.99609375 c 0
 430.666992188 20.6630859375 436 29.330078125 442 39.9970703125 c 0
 444.666992188 44.6640625 447 48.3310546875 449 50.998046875 c 0
 451 53.6650390625 453.333007812 56.83203125 456 60.4990234375 c 0
 458.666992188 64.166015625 461 66.8330078125 463 68.5 c 0
 465 70.1669921875 467.5 71.6669921875 470.5 73 c 0
 473.5 74.3330078125 476.5 75 479.5 75 c 0
 482.5 75 485.666992188 74.3330078125 489 73 c 0
 494.333007812 71 498.833007812 68.5 502.5 65.5 c 0
 506.166992188 62.5 509 58.5 511 53.5 c 0
 513 48.5 513.333007812 41.8330078125 512 33.5 c 0
 510.666992188 25.1669921875 508 15.6669921875 504 5 c 0xdf80
EndSplineSet
Validated: 524289
EndChar

StartChar: A
Encoding: 65 65 33
Width: 593
GlyphClass: 2
Flags: HMW
HStem: -5.55122 21G 251 81.0059
VStem: 30.4769 90.5231
LayerCount: 2
Fore
SplineSet
121 41 m 2
 114.333007812 20.3330078125 105 6.6708984375 93 0.00390625 c 0
 86.3330078125 -3.7001953125 79.5634765625 -5.5517578125 72.6904296875 -5.5517578125 c 0
 67.1923828125 -5.5517578125 61.62890625 -4.3671875 55.9990234375 -1.9970703125 c 0
 38.9853515625 5.78125 30.478515625 21.3564453125 30.478515625 44.7294921875 c 0
 30.478515625 53.4111328125 31.65234375 63.1689453125 34 74.0029296875 c 0
 38 95.3359375 57.3330078125 147.3359375 92 230.002929688 c 1
 80 238.002929688 74 247.669921875 74 259.002929688 c 0
 73.3330078125 268.3359375 77.5 277.168945312 86.5 285.501953125 c 0
 95.5 293.834960938 107.333007812 300.334960938 122 305.001953125 c 1
 204 495.668945312 267 623.001953125 311 687.001953125 c 0
 321 700.334960938 329.833007812 710.001953125 337.5 716.001953125 c 0
 345.166992188 722.001953125 353.666992188 725.001953125 363 725.001953125 c 0
 365.302734375 725.244140625 367.567382812 725.365234375 369.79296875 725.365234375 c 0
 379.809570312 725.365234375 389.044921875 722.911132812 397.499023438 718.001953125 c 0
 407.83203125 712.001953125 413.999023438 701.668945312 415.999023438 687.001953125 c 0
 429.999023438 604.334960938 453.499023438 487.16796875 486.499023438 335.500976562 c 0
 519.499023438 183.833984375 542.33203125 96.6669921875 554.999023438 74 c 0
 560.5546875 63.443359375 563.333007812 53.697265625 563.333007812 44.76171875 c 0
 563.333007812 42.9755859375 563.221679688 41.2216796875 563 39.5 c 0
 561.666992188 29.1669921875 558.333984375 20.5 553.000976562 13.5 c 0
 547.66796875 6.5 541.334960938 1.3330078125 534.001953125 -2 c 0
 528.2109375 -4.4375 522.419921875 -5.65625 516.62890625 -5.65625 c 2
 496 -0.4990234375 l 2
 483.333007812 5.833984375 473 19.6669921875 465 41 c 0
 456.333007812 61.6669921875 439.666015625 131.666992188 414.999023438 251 c 1
 329.666015625 247.666992188 253.333007812 240.666992188 186 230 c 1
 121 41 l 2
343 602.004882812 m 1
 313.666992188 557.337890625 272 462.671875 218 318.004882812 c 1
 286 326.004882812 346.333007812 330.671875 399 332.004882812 c 1
 343 602.004882812 l 1
EndSplineSet
Validated: 524289
EndChar

StartChar: B
Encoding: 66 66 34
Width: 593
GlyphClass: 2
Flags: HMW
HStem: -22.9961 21G 297.004 72 630.004 78.999
VStem: 55 96.4978 408.997 90.0384 442.998 98.001
LayerCount: 2
Fore
SplineSet
246 -14 m 0xf4
 234.666992188 -14.6669921875 221.998046875 -15.6640625 207.998046875 -16.9970703125 c 0
 193.998046875 -18.330078125 182.665039062 -19.330078125 173.998046875 -19.9970703125 c 2
 147.998046875 -21.9970703125 l 2
 139.331054688 -22.6640625 131.498046875 -22.9970703125 124.498046875 -22.9970703125 c 0
 117.498046875 -22.9970703125 110.998046875 -22.330078125 104.998046875 -20.9970703125 c 2
 100.998046875 -20.9970703125 l 2
 87.6650390625 -20.9970703125 76.83203125 -16.4970703125 68.4990234375 -7.4970703125 c 0
 60.783203125 0.8359375 56.92578125 12.1689453125 56.92578125 26.5029296875 c 0
 56.92578125 33.943359375 59.25 48.533203125 59.25 135.748046875 c 0
 59.25 152.249023438 59.1669921875 170.333984375 59 190.002929688 c 0
 58.3330078125 268.669921875 57 349.669921875 55 433.002929688 c 0
 53.6669921875 477.669921875 53 507.669921875 53 523.002929688 c 0
 53 538.3359375 53.5 559.002929688 54.5 585.002929688 c 0
 55.5 611.002929688 56 629.002929688 56 639.002929688 c 0
 56.6669921875 657.002929688 61.5 670.502929688 70.5 679.502929688 c 0
 79.5 688.502929688 91 693.002929688 105 693.002929688 c 2
 110 693.002929688 l 2
 120.666992188 696.3359375 131.666992188 699.168945312 143 701.501953125 c 0
 154.333007812 703.834960938 164.833007812 705.501953125 174.5 706.501953125 c 0
 184.166992188 707.501953125 194.666992188 708.168945312 206 708.501953125 c 0
 217.333007812 708.834960938 226.166015625 709.001953125 232.499023438 709.001953125 c 2
 252.999023438 709.001953125 l 1
 263.999023438 709.001953125 l 2
 309.33203125 709.001953125 349.499023438 700.668945312 384.499023438 684.001953125 c 0
 419.499023438 667.334960938 447.166015625 643.16796875 467.499023438 611.500976562 c 0
 489.920898438 576.581054688 499.03515625 537.415039062 499.03515625 496.803710938 c 0xf8
 499.03515625 459.928710938 490.5234375 428.161132812 473.499023438 401.500976562 c 0
 455.83203125 373.833984375 431.33203125 353.666992188 399.999023438 341 c 1
 422.666015625 333.666992188 444.499023438 322.833984375 465.499023438 308.500976562 c 0
 486.499023438 294.16796875 504.33203125 278.16796875 518.999023438 260.500976562 c 0
 533.666015625 242.833984375 540.999023438 226.333984375 540.999023438 211.000976562 c 0
 540.999023438 185.66796875 534.666015625 160.500976562 521.999023438 135.500976562 c 0
 509.33203125 110.500976562 490.83203125 87.66796875 466.499023438 67.0009765625 c 0
 442.166015625 46.333984375 410.833007812 28.6669921875 372.5 14 c 0
 334.166992188 -0.6669921875 292 -10 246 -14 c 0xf4
261.998046875 630.002929688 m 0
 225.998046875 630.002929688 190.998046875 625.668945312 156.998046875 617.001953125 c 1
 156.998046875 604.334960938 156.331054688 584.001953125 154.998046875 556.001953125 c 0
 153.665039062 528.001953125 152.665039062 498.334960938 151.998046875 467.001953125 c 0
 151.6640625 451.3359375 151.497070312 435.502929688 151.497070312 419.502929688 c 0
 151.497070312 403.502929688 151.6640625 387.3359375 151.998046875 371.002929688 c 1
 183.331054688 369.669921875 212.998046875 369.002929688 240.998046875 369.002929688 c 0
 260.998046875 369.002929688 279.331054688 370.669921875 295.998046875 374.002929688 c 0
 312.665039062 377.3359375 326.498046875 381.668945312 337.498046875 387.001953125 c 0
 348.498046875 392.334960938 358.498046875 398.834960938 367.498046875 406.501953125 c 0
 376.498046875 414.168945312 383.331054688 422.001953125 387.998046875 430.001953125 c 0
 392.665039062 438.001953125 396.665039062 446.834960938 399.998046875 456.501953125 c 0
 403.331054688 466.168945312 405.6640625 474.8359375 406.997070312 482.502929688 c 0
 408.330078125 490.169921875 408.997070312 498.336914062 408.997070312 507.00390625 c 0
 408.997070312 524.336914062 405.497070312 540.336914062 398.497070312 555.00390625 c 0
 391.497070312 569.670898438 382.830078125 581.50390625 372.497070312 590.50390625 c 0
 362.1640625 599.50390625 350.331054688 607.170898438 336.998046875 613.50390625 c 0
 323.665039062 619.836914062 310.665039062 624.169921875 297.998046875 626.502929688 c 0
 285.331054688 628.8359375 273.331054688 630.002929688 261.998046875 630.002929688 c 0
247.998046875 297.001953125 m 1
 199.331054688 297.001953125 167.998046875 296.66796875 153.998046875 296.000976562 c 1
 156.665039062 188.66796875 158.665039062 112.334960938 159.998046875 67.001953125 c 1
 167.331054688 67.001953125 179.498046875 67.3349609375 196.498046875 68.001953125 c 0
 213.498046875 68.6689453125 226.331054688 69.001953125 234.998046875 69.001953125 c 0
 265.665039062 70.3349609375 294.498046875 75.66796875 321.498046875 85.0009765625 c 0
 348.498046875 94.333984375 370.331054688 105.500976562 386.998046875 118.500976562 c 0
 403.665039062 131.500976562 417.165039062 145.16796875 427.498046875 159.500976562 c 0
 437.831054688 173.833984375 442.998046875 187.000976562 442.998046875 199.000976562 c 0xf4
 442.998046875 207.66796875 439.331054688 216.334960938 431.998046875 225.001953125 c 0
 424.665039062 233.668945312 413.498046875 242.668945312 398.498046875 252.001953125 c 0
 383.498046875 261.334960938 362.998046875 270.001953125 336.998046875 278.001953125 c 0
 310.998046875 286.001953125 281.331054688 292.334960938 247.998046875 297.001953125 c 1
EndSplineSet
Validated: 524289
EndChar

StartChar: C
Encoding: 67 67 35
Width: 593
GlyphClass: 2
Flags: HMW
HStem: -31.0911 90.092 518.417 222.246 632.001 80.9961
VStem: 39.0039 100.998 452.005 103.001
LayerCount: 2
Fore
SplineSet
527 64 m 0xb8
 472.015625 0.607421875 387.850585938 -31.091796875 274.495117188 -31.091796875 c 0
 271.025390625 -31.091796875 267.528320312 -31.0625 264.00390625 -31.0029296875 c 0
 236.670898438 -31.0029296875 210.670898438 -26.3359375 186.00390625 -17.0029296875 c 0
 161.336914062 -7.669921875 140.50390625 4.6630859375 123.50390625 19.99609375 c 0
 106.50390625 35.3291015625 91.3369140625 53.162109375 78.00390625 73.4951171875 c 0
 64.6708984375 93.828125 54.837890625 115.495117188 48.5048828125 138.495117188 c 0
 42.171875 161.495117188 39.0048828125 184.662109375 39.0048828125 207.995117188 c 0
 39.0048828125 256.662109375 44.0048828125 303.662109375 54.0048828125 348.995117188 c 0
 64.0048828125 394.328125 77.5048828125 435.328125 94.5048828125 471.995117188 c 0
 111.504882812 508.662109375 131.337890625 542.329101562 154.004882812 572.99609375 c 0
 176.671875 603.663085938 200.838867188 629.163085938 226.505859375 649.49609375 c 0
 252.172851562 669.829101562 278.505859375 685.49609375 305.505859375 696.49609375 c 0
 332.505859375 707.49609375 358.338867188 712.99609375 383.005859375 712.99609375 c 0xb8
 407.672851562 712.99609375 430.33984375 710.329101562 451.006835938 704.99609375 c 1
 453.673828125 714.99609375 458.673828125 723.163085938 466.006835938 729.49609375 c 0
 473.33984375 735.829101562 482.006835938 739.329101562 492.006835938 739.99609375 c 0
 494.376953125 740.440429688 496.755859375 740.663085938 499.142578125 740.663085938 c 0
 507.49609375 740.663085938 515.950195312 737.940429688 524.505859375 732.49609375 c 0
 535.505859375 725.49609375 542.338867188 715.329101562 545.005859375 701.99609375 c 0
 547.005859375 691.99609375 549.005859375 682.163085938 551.005859375 672.49609375 c 0
 553.005859375 662.829101562 554.172851562 653.329101562 554.505859375 643.99609375 c 0
 554.838867188 634.663085938 555.005859375 626.99609375 555.005859375 620.99609375 c 2
 555.005859375 599.99609375 l 1
 555.005859375 584.99609375 l 2
 555.005859375 570.99609375 549.672851562 556.829101562 539.005859375 542.49609375 c 0
 528.338867188 528.163085938 517.671875 520.330078125 507.004882812 518.997070312 c 0
 504.682617188 518.610351562 502.353515625 518.416992188 500.018554688 518.416992188 c 0xd8
 490.2890625 518.416992188 480.451171875 521.77734375 470.504882812 528.498046875 c 0
 458.171875 536.831054688 452.004882812 547.998046875 452.004882812 561.998046875 c 0
 452.004882812 567.331054688 452.337890625 581.331054688 453.004882812 603.998046875 c 0
 452.337890625 604.665039062 449.170898438 606.83203125 443.50390625 610.499023438 c 0
 437.836914062 614.166015625 433.836914062 616.833007812 431.50390625 618.5 c 0
 429.170898438 620.166992188 425.337890625 622.333984375 420.004882812 625.000976562 c 0
 414.671875 627.66796875 409.504882812 629.500976562 404.504882812 630.500976562 c 0
 399.504882812 631.500976562 394.671875 632.000976562 390.004882812 632.000976562 c 0
 369.337890625 632.000976562 347.170898438 625.333984375 323.50390625 612.000976562 c 0
 299.836914062 598.66796875 277.169921875 579.66796875 255.502929688 555.000976562 c 0
 233.8359375 530.333984375 214.168945312 502.000976562 196.501953125 470.000976562 c 0
 178.834960938 438.000976562 165.001953125 401.833984375 155.001953125 361.500976562 c 0
 145.001953125 321.16796875 140.001953125 280.66796875 140.001953125 240.000976562 c 0
 140.001953125 210.66796875 145.668945312 182.000976562 157.001953125 154.000976562 c 0
 168.334960938 126.000976562 184.501953125 103.16796875 205.501953125 85.5009765625 c 0
 226.501953125 67.833984375 249.334960938 59.0009765625 274.001953125 59.0009765625 c 0
 295.334960938 59.0009765625 316.501953125 61.16796875 337.501953125 65.5009765625 c 0
 358.501953125 69.833984375 377.001953125 75.5009765625 393.001953125 82.5009765625 c 0
 409.001953125 89.5009765625 422.834960938 96.5009765625 434.501953125 103.500976562 c 0
 446.168945312 110.500976562 457.001953125 118.000976562 467.001953125 126.000976562 c 0
 475.668945312 132.000976562 483.168945312 136.66796875 489.501953125 140.000976562 c 0
 495.834960938 143.333984375 502.66796875 145.000976562 510.000976562 145.000976562 c 0
 517.333984375 145.000976562 524.666992188 142.66796875 532 138.000976562 c 0
 543.220703125 129.2734375 548.831054688 119.234375 548.831054688 107.883789062 c 0
 548.831054688 94.95703125 541.553710938 80.3291015625 527 64 c 0xb8
EndSplineSet
Validated: 524289
EndChar

StartChar: D
Encoding: 68 68 36
Width: 593
GlyphClass: 2
Flags: HMW
HStem: -31 85.998 694.001 20G
VStem: 37.3732 98.6278 41.999 102.002 461.001 95.9971
LayerCount: 2
Fore
SplineSet
137.000976562 348 m 0xe8
 137.66796875 319.333007812 138.831054688 276.1640625 140.498046875 218.497070312 c 0
 142.165039062 160.830078125 143.333984375 117.330078125 144.000976562 87.9970703125 c 1
 171.333984375 75.9970703125 199.999023438 67.4970703125 229.999023438 62.4970703125 c 0
 259.999023438 57.4970703125 293.999023438 54.9970703125 331.999023438 54.9970703125 c 0
 350.666015625 54.9970703125 368.333007812 61.1640625 385 73.4970703125 c 0
 401.666992188 85.830078125 415.333984375 101.830078125 426.000976562 121.497070312 c 0
 436.66796875 141.1640625 445.16796875 162.831054688 451.500976562 186.498046875 c 0
 457.833984375 210.165039062 461.000976562 233.33203125 461.000976562 255.999023438 c 0
 461.000976562 381.33203125 409.66796875 476.999023438 307.000976562 542.999023438 c 0
 270.333984375 566.33203125 218.000976562 590.33203125 150.000976562 614.999023438 c 1
 149.000976562 615.999023438 l 1
 148.000976562 615.999023438 l 1
 147.000976562 615.999023438 l 1
 146.000976562 616.999023438 l 1
 145.000976562 616.999023438 l 1
 144.000976562 616.999023438 l 1
 144.000976562 617.999023438 l 1xd8
 143.000976562 617.999023438 l 1
 142.000976562 617.999023438 l 1
 141.000976562 618.999023438 l 1
 140.000976562 618.999023438 l 1
 139.000976562 618.999023438 l 1
 138.000976562 619.999023438 l 1
 137.000976562 619.999023438 l 1
 136.000976562 619.999023438 l 1
 136.000976562 620.999023438 l 1
 135.143554688 583.854492188 134.71484375 545.9140625 134.71484375 507.177734375 c 0
 134.71484375 455.533203125 135.4765625 402.473632812 137.000976562 348 c 0xe8
333 -31.0009765625 m 0
 299.666992188 -31.0009765625 267.16796875 -29.5 235.500976562 -26.5 c 0
 203.833984375 -23.5 178.666992188 -20 160 -16 c 0
 141.333007812 -12 125 -8.3330078125 111 -5 c 0
 97 -1.6669921875 88.6669921875 0 86 0 c 0
 72.6669921875 0 61.6669921875 4.5 53 13.5 c 0
 45.48828125 21.2998046875 41.732421875 31.7294921875 41.732421875 44.7880859375 c 0
 41.732421875 46.796875 41.8212890625 48.8671875 41.9990234375 51 c 0xd8
 43.4990234375 74.9990234375 44.2490234375 112.965820312 44.2490234375 164.901367188 c 0
 44.2490234375 182.21484375 44.166015625 201.081054688 43.9990234375 221.5 c 0
 43.33203125 303.166992188 41.6650390625 391.666992188 38.998046875 487 c 0
 38.3310546875 524.333007812 37.8310546875 548.833007812 37.498046875 560.5 c 0
 37.4150390625 563.416015625 37.373046875 566.73828125 37.373046875 570.466796875 c 0xe8
 37.373046875 581.654296875 37.748046875 596.498046875 38.498046875 614.999023438 c 0
 39.498046875 639.666015625 39.998046875 654.666992188 39.998046875 660 c 0
 40.6650390625 678 45.6650390625 691.5 54.998046875 700.5 c 0
 64.3310546875 709.5 75.998046875 714 89.998046875 714 c 0
 98.6650390625 714 109.665039062 713.333007812 122.998046875 712 c 0
 136.331054688 710.666992188 153.498046875 708 174.498046875 704 c 0
 195.498046875 700 216.998046875 694.5 238.998046875 687.5 c 0
 260.998046875 680.5 284.831054688 670.666992188 310.498046875 658 c 0
 336.165039062 645.333007812 360.498046875 630.666015625 383.498046875 613.999023438 c 0
 406.498046875 597.33203125 428.665039062 576.499023438 449.998046875 551.499023438 c 0
 471.331054688 526.499023438 489.831054688 499.166015625 505.498046875 469.499023438 c 0
 521.165039062 439.83203125 533.665039062 404.499023438 542.998046875 363.499023438 c 0
 552.331054688 322.499023438 556.998046875 278.33203125 556.998046875 230.999023438 c 0
 556.998046875 207.666015625 553.831054688 183.999023438 547.498046875 159.999023438 c 0
 541.165039062 135.999023438 531.498046875 112.499023438 518.498046875 89.4990234375 c 0
 505.498046875 66.4990234375 490.331054688 45.9990234375 472.998046875 27.9990234375 c 0
 455.665039062 9.9990234375 434.83203125 -4.333984375 410.499023438 -15.0009765625 c 0
 386.166015625 -25.66796875 360.333007812 -31.0009765625 333 -31.0009765625 c 0
EndSplineSet
Validated: 524289
EndChar

StartChar: E
Encoding: 69 69 37
Width: 593
GlyphClass: 2
Flags: HMW
HStem: -17.498 85.4132 -6.2352 90.7323 312.001 85.999 332.001 80.999 615.159 82.8417
VStem: 50.0049 97.4971
LayerCount: 2
Fore
SplineSet
493 -6 m 0x4c
 490.815429688 -5.87890625 488.068359375 -5.818359375 484.7578125 -5.818359375 c 0
 469.880859375 -5.818359375 443.630859375 -7.044921875 406.002929688 -9.4990234375 c 0
 360.002929688 -12.4990234375 309.502929688 -15.166015625 254.502929688 -17.4990234375 c 0
 224.88671875 -18.7548828125 198.701171875 -19.3828125 175.947265625 -19.3828125 c 0
 156.4453125 -19.3828125 139.463867188 -18.9208984375 125.002929688 -17.998046875 c 0
 109.669921875 -17.3310546875 94.3369140625 -9.8310546875 79.00390625 4.501953125 c 0
 63.6708984375 18.8349609375 54.6708984375 36.3349609375 52.00390625 57.001953125 c 0
 50.00390625 74.3349609375 49.00390625 105.501953125 49.00390625 150.501953125 c 0
 49.00390625 195.501953125 49.3369140625 243.334960938 50.00390625 294.001953125 c 0
 50.2265625 310.899414062 50.337890625 328.500976562 50.337890625 346.806640625 c 0
 50.337890625 383.391601562 49.8935546875 422.790039062 49.0048828125 465.001953125 c 0
 48.337890625 505.001953125 47.837890625 531.501953125 47.5048828125 544.501953125 c 0
 47.421875 547.750976562 47.3798828125 551.385742188 47.3798828125 555.405273438 c 0
 47.3798828125 567.467773438 47.7548828125 583 48.5048828125 602.000976562 c 0
 49.5048828125 627.333984375 50.0048828125 643.000976562 50.0048828125 649.000976562 c 0
 50.671875 667.000976562 55.671875 680.66796875 65.0048828125 690.000976562 c 0
 74.337890625 699.333984375 86.0048828125 704.000976562 100.004882812 704.000976562 c 0
 100.91796875 704.036132812 101.819335938 704.053710938 102.709960938 704.053710938 c 0
 118.731445312 704.053710938 131.163085938 698.369140625 140.004882812 687.000976562 c 1
 178.004882812 692.333984375 222.504882812 695.666992188 273.504882812 697 c 0
 299.004882812 697.666015625 323.046875 697.999023438 345.629882812 697.999023438 c 0
 368.212890625 697.999023438 389.337890625 697.666015625 409.00390625 697 c 0
 448.336914062 695.666992188 479.669921875 693.666992188 503.002929688 691 c 0
 519.002929688 689 530.002929688 685 536.002929688 679 c 0
 542.002929688 673 545.3359375 664.666992188 546.002929688 654 c 0
 546.002929688 648 545.3359375 642.333007812 544.002929688 637 c 0
 542.669921875 631.666992188 540.502929688 626.833984375 537.502929688 622.500976562 c 0
 534.502929688 618.16796875 530.002929688 614.66796875 524.002929688 612.000976562 c 0
 518.002929688 609.333984375 511.002929688 608.666992188 503.002929688 610 c 0
 456.829101562 613.438476562 410.383789062 615.158203125 363.666992188 615.158203125 c 0
 346.98046875 615.158203125 330.258789062 614.938476562 313.502929688 614.5 c 0
 249.8359375 612.833007812 195.3359375 608.666015625 150.002929688 601.999023438 c 1
 147.3359375 532.666015625 146.002929688 464.666015625 146.002929688 397.999023438 c 1xac
 194.669921875 397.999023438 261.002929688 400.499023438 345.002929688 405.499023438 c 0
 429.002929688 410.499023438 476.3359375 412.999023438 487.002929688 412.999023438 c 0
 502.3359375 412.999023438 513.168945312 409.666015625 519.501953125 402.999023438 c 0
 525.834960938 396.33203125 529.001953125 386.999023438 529.001953125 374.999023438 c 0
 529.001953125 346.318359375 515.6171875 331.977539062 488.848632812 331.977539062 c 0
 488.240234375 331.977539062 487.625 331.985351562 487.002929688 332 c 0x1c
 475.002929688 332 423.502929688 328.666992188 332.502929688 322 c 0
 241.502929688 315.333007812 179.669921875 312 147.002929688 312 c 1
 147.002929688 297.333007812 147.169921875 278.166015625 147.502929688 254.499023438 c 0
 147.8359375 230.83203125 148.168945312 210.499023438 148.501953125 193.499023438 c 0
 148.834960938 176.499023438 149.16796875 158.999023438 149.500976562 140.999023438 c 0
 149.833984375 122.999023438 150.500976562 108.166015625 151.500976562 96.4990234375 c 0
 152.500976562 84.83203125 154.000976562 76.6650390625 156.000976562 71.998046875 c 0
 166.112304688 69.275390625 188.079101562 67.9140625 221.900390625 67.9140625 c 0xac
 246.0546875 67.9140625 276.254882812 68.6083984375 312.500976562 69.9970703125 c 0
 399.500976562 73.330078125 455.333984375 77.6630859375 480.000976562 82.99609375 c 0
 489.333984375 84.3291015625 497.333984375 84.8291015625 504.000976562 84.49609375 c 0
 510.66796875 84.1630859375 516.500976562 82.830078125 521.500976562 80.4970703125 c 0
 526.500976562 78.1640625 530.500976562 75.6640625 533.500976562 72.9970703125 c 0
 536.500976562 70.330078125 538.833984375 66.830078125 540.500976562 62.4970703125 c 0
 542.16796875 58.1640625 543.500976562 54.3310546875 544.500976562 50.998046875 c 0
 545.500976562 47.6650390625 546.000976562 44.33203125 546.000976562 40.9990234375 c 0
 546.000976562 28.33203125 541.500976562 16.9990234375 532.500976562 6.9990234375 c 0
 524.559570312 -1.82421875 513.374023438 -6.2353515625 498.944335938 -6.2353515625 c 0
 497.020507812 -6.2353515625 495.0390625 -6.1572265625 493 -6 c 0x4c
EndSplineSet
Validated: 524289
EndChar

StartChar: F
Encoding: 70 70 38
Width: 593
GlyphClass: 2
Flags: HMW
HStem: -21.0722 21G 322.534 84.6107 621.784 84.7164 694.192 20G
VStem: 51.7383 103.262 54.255 93.745
LayerCount: 2
Fore
SplineSet
155 24 m 0xe8
 153.666992188 10 147.172851562 -1.166015625 135.505859375 -9.4990234375 c 0
 124.703125 -17.21484375 112.615234375 -21.072265625 99.2412109375 -21.072265625 c 0
 98.1708984375 -21.072265625 97.091796875 -21.0478515625 96.0048828125 -20.998046875 c 0
 82.671875 -20.998046875 71.671875 -16.498046875 63.0048828125 -7.498046875 c 0
 55.4931640625 0.302734375 51.7373046875 10.732421875 51.7373046875 23.791015625 c 0xe8
 51.7373046875 25.7998046875 51.826171875 27.8701171875 52.00390625 30.0029296875 c 0
 53.50390625 52.001953125 54.25390625 89.09375 54.25390625 141.279296875 c 0
 54.25390625 158.676757812 54.1708984375 177.750976562 54.00390625 198.502929688 c 0
 53.3369140625 281.502929688 51.669921875 367.002929688 49.0029296875 455.002929688 c 0
 47.669921875 499.669921875 47.0029296875 529.669921875 47.0029296875 545.002929688 c 0
 47.0029296875 560.3359375 47.5029296875 581.002929688 48.5029296875 607.002929688 c 0
 49.5029296875 633.002929688 50.0029296875 650.669921875 50.0029296875 660.002929688 c 0
 50.669921875 678.002929688 55.669921875 691.502929688 65.0029296875 700.502929688 c 0
 74.3359375 709.502929688 86.0029296875 714.002929688 100.002929688 714.002929688 c 0
 101.716796875 714.129882812 103.391601562 714.193359375 105.02734375 714.193359375 c 0xd4
 120.56640625 714.193359375 132.55859375 708.462890625 141.002929688 697.001953125 c 1
 206.3359375 701.668945312 272.502929688 704.668945312 339.502929688 706.001953125 c 0
 356.251953125 706.334960938 372.241210938 706.501953125 387.469726562 706.501953125 c 0
 433.158203125 706.501953125 472.002929688 705.001953125 504.00390625 702.001953125 c 0
 519.336914062 700.668945312 530.169921875 696.8359375 536.502929688 690.502929688 c 0
 542.8359375 684.169921875 546.002929688 675.336914062 546.002929688 664.00390625 c 0
 546.002929688 651.336914062 542.3359375 640.669921875 535.002929688 632.002929688 c 0
 527.669921875 623.3359375 516.002929688 619.002929688 500.002929688 619.002929688 c 0
 462.669921875 620.857421875 424.20703125 621.78515625 384.615234375 621.78515625 c 0
 310.380859375 621.78515625 232.176757812 618.524414062 150.002929688 612.002929688 c 1
 150.002929688 600.669921875 149.669921875 582.502929688 149.002929688 557.502929688 c 0
 148.3359375 532.502929688 147.668945312 507.002929688 147.001953125 481.002929688 c 0
 146.66796875 468.002929688 146.500976562 454.919921875 146.500976562 441.752929688 c 0
 146.500976562 428.5859375 146.66796875 415.3359375 147.001953125 402.001953125 c 1
 177.286132812 405.430664062 210.508789062 407.145507812 246.669921875 407.145507812 c 0
 252.698242188 407.145507812 258.80859375 407.09765625 265.000976562 407.001953125 c 0
 308.333984375 406.334960938 347.666992188 404.501953125 383 401.501953125 c 0
 418.333007812 398.501953125 446 395.334960938 466 392.001953125 c 0
 482 389.334960938 493 385.001953125 499 379.001953125 c 0
 505 373.001953125 508.333007812 364.668945312 509 354.001953125 c 0
 509 348.001953125 508.5 342.501953125 507.5 337.501953125 c 0
 506.5 332.501953125 504.666992188 327.668945312 502 323.001953125 c 0
 499.333007812 318.334960938 495 314.834960938 489 312.501953125 c 0
 483 310.168945312 475.333007812 309.3359375 466 310.002929688 c 0
 445.333007812 313.3359375 417 316.168945312 381 318.501953125 c 0
 345 320.834960938 304.5 322.16796875 259.5 322.500976562 c 0
 256.502929688 322.5234375 253.541015625 322.534179688 250.61328125 322.534179688 c 0
 209.583984375 322.534179688 175.37890625 320.356445312 148 316 c 1xe4
 152 139.333007812 154.333007812 42 155 24 c 0xe8
EndSplineSet
Validated: 524289
EndChar

StartChar: G
Encoding: 71 71 39
Width: 593
GlyphClass: 2
Flags: HMW
HStem: -31.0616 90.0616 278 81.8571 643.002 80.999
VStem: 37.9951 100.001
LayerCount: 2
Fore
SplineSet
526 244 m 0
 524.666992188 230 520.4921875 213.669921875 513.4921875 195.002929688 c 0
 506.4921875 176.3359375 497.825195312 156.502929688 487.4921875 135.502929688 c 0
 477.159179688 114.502929688 463.826171875 94.169921875 447.493164062 74.5029296875 c 0
 431.16015625 54.8359375 413.993164062 37.0029296875 395.993164062 21.0029296875 c 0
 377.993164062 5.0029296875 356.993164062 -7.830078125 332.993164062 -17.4970703125 c 0
 310.541992188 -26.5400390625 288.3828125 -31.0615234375 266.515625 -31.0615234375 c 0
 265.006835938 -31.0615234375 263.499023438 -31.0400390625 261.993164062 -30.9970703125 c 0
 234.66015625 -30.9970703125 208.827148438 -26.330078125 184.494140625 -16.9970703125 c 0
 160.161132812 -7.6640625 139.328125 4.6689453125 121.995117188 20.001953125 c 0
 104.662109375 35.3349609375 89.4951171875 53.16796875 76.4951171875 73.5009765625 c 0
 63.4951171875 93.833984375 53.828125 115.500976562 47.4951171875 138.500976562 c 0
 41.162109375 161.500976562 37.9951171875 184.66796875 37.9951171875 208.000976562 c 0
 37.9951171875 257.333984375 42.828125 305.333984375 52.4951171875 352.000976562 c 0
 62.162109375 398.66796875 75.662109375 440.66796875 92.9951171875 478.000976562 c 0
 110.328125 515.333984375 130.328125 549.500976562 152.995117188 580.500976562 c 0
 175.662109375 611.500976562 199.829101562 637.500976562 225.49609375 658.500976562 c 0
 251.163085938 679.500976562 277.330078125 695.66796875 303.997070312 707.000976562 c 0
 330.6640625 718.333984375 356.331054688 724.000976562 380.998046875 724.000976562 c 0
 408.998046875 724.000976562 440.165039062 717.500976562 474.498046875 704.500976562 c 0
 508.831054688 691.500976562 531.331054688 680.333984375 541.998046875 671.000976562 c 0
 551.776367188 661.22265625 556.665039062 649.518554688 556.665039062 635.888671875 c 0
 556.665039062 629.07421875 555.443359375 621.778320312 552.999023438 614.000976562 c 0
 550.33203125 605.333984375 543.999023438 599.000976562 533.999023438 595.000976562 c 0
 528.999023438 593.000976562 523.83203125 592.000976562 518.499023438 592.000976562 c 0
 513.166015625 592.000976562 507.666015625 593.000976562 502 595.000976562 c 0
 498 596.333984375 488.833007812 601.333984375 474.5 610.000976562 c 0
 460.166992188 618.66796875 445.5 626.334960938 430.5 633.001953125 c 0
 415.5 639.668945312 401.666992188 643.001953125 389 643.001953125 c 0
 368.333007812 643.001953125 346.166015625 636.168945312 322.499023438 622.501953125 c 0
 298.83203125 608.834960938 276.165039062 589.16796875 254.498046875 563.500976562 c 0
 232.831054688 537.833984375 213.1640625 508.666992188 195.497070312 476 c 0
 177.830078125 443.333007812 163.830078125 406.333007812 153.497070312 365 c 0
 143.1640625 323.666992188 137.997070312 282 137.997070312 240 c 0
 137.997070312 210.666992188 143.6640625 182 154.997070312 154 c 0
 166.330078125 126 182.497070312 103.166992188 203.497070312 85.5 c 0
 224.497070312 67.8330078125 247.6640625 59 272.997070312 59 c 0
 288.997070312 59 305.497070312 64.1669921875 322.497070312 74.5 c 0
 339.497070312 84.8330078125 354.6640625 98 367.997070312 114 c 0
 381.330078125 130 393.830078125 148 405.497070312 168 c 0
 417.1640625 188 427.1640625 207.333007812 435.497070312 226 c 0
 443.830078125 244.666992188 450.330078125 262 454.997070312 278 c 1
 412.997070312 276 371.830078125 272.333007812 331.497070312 267 c 0
 291.1640625 261.666992188 263.331054688 254.666992188 247.998046875 246 c 0
 242.629882812 243.158203125 237.374023438 241.737304688 232.23046875 241.737304688 c 0
 226.514648438 241.737304688 220.9375 243.491210938 215.499023438 247 c 0
 205.166015625 253.666992188 199.333007812 262.666992188 198 274 c 0
 197.509765625 277.1015625 197.264648438 280.118164062 197.264648438 283.05078125 c 0
 197.264648438 304.064453125 209.842773438 320.713867188 234.999023438 333 c 0
 253.666015625 342.333007812 294.499023438 349.5 357.499023438 354.5 c 0
 402.499023438 358.071289062 440.44140625 359.857421875 471.326171875 359.857421875 c 0
 483.6796875 359.857421875 494.904296875 359.571289062 504.999023438 359 c 0
 521.666015625 358.333007812 533.166015625 355.5 539.499023438 350.5 c 0
 545.83203125 345.5 550.33203125 337.666992188 552.999023438 327 c 0
 553.354492188 323.7109375 553.532226562 320.587890625 553.532226562 317.630859375 c 0
 553.532226562 298.41015625 546.021484375 286.200195312 531 281 c 0
 531 279 530.166992188 273.666992188 528.5 265 c 0
 526.833007812 256.333007812 526 249.333007812 526 244 c 0
EndSplineSet
Validated: 524289
EndChar

StartChar: H
Encoding: 72 72 40
Width: 593
GlyphClass: 2
Flags: HMW
HStem: -21.0741 21G 311.999 86.001 694.074 20G
VStem: 64.9971 98.002 436.09 99.5773
LayerCount: 2
Fore
SplineSet
529 24 m 0
 527.666992188 10 521.166015625 -1.169921875 509.499023438 -9.5029296875 c 0
 498.696289062 -17.21875 486.89453125 -21.076171875 474.091796875 -21.076171875 c 0
 473.067382812 -21.076171875 472.036132812 -21.0517578125 470.999023438 -21.001953125 c 0
 457.666015625 -21.001953125 446.666015625 -16.501953125 437.999023438 -7.501953125 c 0
 430.487304688 0.2978515625 426.731445312 10.7275390625 426.731445312 23.7861328125 c 0
 426.731445312 25.794921875 426.8203125 27.865234375 426.998046875 29.998046875 c 0
 433.05859375 114.237304688 436.088867188 207.841796875 436.088867188 310.811523438 c 0
 436.088867188 321.11328125 436.05859375 331.508789062 435.998046875 341.998046875 c 1
 424.665039062 341.331054688 383.83203125 336.1640625 313.499023438 326.497070312 c 0
 243.166015625 316.830078125 192.999023438 311.997070312 162.999023438 311.997070312 c 1
 162.999023438 309.997070312 162.83203125 306.497070312 162.499023438 301.497070312 c 0
 162.166015625 296.497070312 161.999023438 292.997070312 161.999023438 290.997070312 c 0
 159.999023438 257.997070312 158.999023438 219.247070312 158.999023438 174.747070312 c 0
 158.999023438 130.247070312 159.999023438 79.9970703125 161.999023438 23.9970703125 c 0
 160.666015625 9.9970703125 153.999023438 -1.169921875 141.999023438 -9.5029296875 c 0
 130.888671875 -17.21875 118.920898438 -21.076171875 106.095703125 -21.076171875 c 0
 105.069335938 -21.076171875 104.037109375 -21.0517578125 103 -21.001953125 c 0
 89.6669921875 -21.001953125 78.6669921875 -16.501953125 70 -7.501953125 c 0
 62.48828125 0.298828125 58.732421875 10.728515625 58.732421875 23.787109375 c 0
 58.732421875 25.7958984375 58.8212890625 27.8662109375 58.9990234375 29.9990234375 c 0
 59.666015625 39.33203125 60.166015625 54.33203125 60.4990234375 74.9990234375 c 0
 60.83203125 95.666015625 60.9990234375 123.333007812 60.9990234375 158 c 0
 60.9990234375 192.666992188 61.33203125 224 61.9990234375 252 c 0
 61.9990234375 274.666992188 62.666015625 307.166992188 63.9990234375 349.5 c 0
 65.33203125 391.833007812 66.1650390625 423.166015625 66.498046875 443.499023438 c 0
 66.609375 450.270507812 66.6650390625 458.168945312 66.6650390625 467.1953125 c 0
 66.6650390625 485.2734375 66.4423828125 507.875 65.9970703125 535 c 0
 65.330078125 565 64.9970703125 584.166992188 64.9970703125 592.5 c 0
 64.9970703125 600.833007812 65.330078125 612.333007812 65.9970703125 627 c 0
 66.6640625 641.666992188 67.3310546875 652.666992188 67.998046875 660 c 0
 68.6650390625 678 73.498046875 691.5 82.498046875 700.5 c 0
 91.498046875 709.5 102.998046875 714 116.998046875 714 c 0
 118.084960938 714.049804688 119.158203125 714.07421875 120.217773438 714.07421875 c 0
 133.455078125 714.07421875 144.548828125 710.216796875 153.499023438 702.500976562 c 0
 163.166015625 694.16796875 167.999023438 681.000976562 167.999023438 663.000976562 c 0
 167.999023438 656.333984375 167.166015625 642.000976562 165.499023438 620.000976562 c 0
 163.83203125 598.000976562 162.999023438 577.66796875 162.999023438 559.000976562 c 0
 162.999023438 541.66796875 163.33203125 515.16796875 163.999023438 479.500976562 c 0
 164.666015625 443.833984375 164.999023438 416.666992188 164.999023438 398 c 1
 199.666015625 398 235.333007812 400 272 404 c 0
 308.666992188 408 342 412 372 416 c 0
 402 420 423 422.666992188 435 424 c 1
 435 428.666992188 434.666992188 435.5 434 444.5 c 0
 433.333007812 453.5 433 460.333007812 433 465 c 0
 432.333007812 506.333007812 432 533.666015625 432 546.999023438 c 0
 432 560.33203125 432.5 580.999023438 433.5 608.999023438 c 0
 434.5 636.999023438 435.333007812 653.999023438 436 659.999023438 c 0
 436 677.999023438 440.833007812 691.499023438 450.5 700.499023438 c 0
 460.166992188 709.499023438 471.666992188 713.999023438 485 713.999023438 c 0
 486.086914062 714.048828125 487.16015625 714.073242188 488.219726562 714.073242188 c 0
 501.45703125 714.073242188 512.55078125 710.215820312 521.500976562 702.5 c 0
 531.16796875 694.166992188 536.000976562 681 536.000976562 663 c 0
 536.000976562 650.333007812 535.66796875 624.333007812 535.000976562 585 c 0
 534.333984375 545.666992188 533.833984375 511.166992188 533.500976562 481.5 c 0
 533.434570312 475.5703125 533.401367188 469.114257812 533.401367188 462.131835938 c 0
 533.401367188 434.18359375 533.934570312 397.806640625 535.000976562 353 c 0
 535.4453125 337.448242188 535.666992188 320.267578125 535.666992188 301.458007812 c 0
 535.666992188 263.825195312 534.778320312 219.672851562 533 169 c 0
 530.333007812 93 529 44.6669921875 529 24 c 0
EndSplineSet
Validated: 524289
EndChar

StartChar: I
Encoding: 73 73 41
Width: 593
GlyphClass: 2
Flags: HMW
HStem: -13.998 80.001 -6.39919 77.8992 612.001 89.001 625.002 85.3327
VStem: 242.007 101.995 250.073 100.596
LayerCount: 2
Fore
SplineSet
505 -11 m 0x68
 487.666992188 -8.3330078125 459.177734375 -6.8310546875 419.510742188 -6.498046875 c 0
 411.58203125 -6.431640625 403.70703125 -6.3984375 395.884765625 -6.3984375 c 0x68
 364.573242188 -6.3984375 334.115234375 -6.931640625 304.510742188 -7.998046875 c 0
 267.510742188 -9.3310546875 227.84375 -10.6640625 185.510742188 -11.9970703125 c 0
 143.177734375 -13.330078125 113.677734375 -13.9970703125 97.0107421875 -13.9970703125 c 0
 79.677734375 -13.9970703125 67.0107421875 -10.6640625 59.0107421875 -3.9970703125 c 0
 47.2138671875 5.833984375 46.927734375 17.4921875 46.927734375 24.966796875 c 0
 46.927734375 35.6865234375 50.2880859375 44.865234375 57.009765625 52.50390625 c 0
 64.3427734375 60.8369140625 76.67578125 65.3369140625 94.0087890625 66.00390625 c 0
 122.008789062 67.3369140625 171.341796875 69.00390625 242.008789062 71.00390625 c 1x88
 247.385742188 154.600585938 250.07421875 241.782226562 250.07421875 332.547851562 c 0
 250.07421875 365.559570312 249.71875 399.044921875 249.0078125 433.004882812 c 0
 248.340820312 457.004882812 247.840820312 479.671875 247.5078125 501.004882812 c 0
 247.174804688 522.337890625 247.0078125 537.670898438 247.0078125 547.00390625 c 0
 247.0078125 556.336914062 247.674804688 570.836914062 249.0078125 590.50390625 c 0
 250.340820312 610.170898438 251.0078125 621.670898438 251.0078125 625.00390625 c 0
 220.673828125 625.669921875 193.33984375 626.002929688 169.005859375 626.002929688 c 0
 144.671875 626.002929688 123.337890625 625.669921875 105.004882812 625.002929688 c 0
 88.337890625 625.002929688 75.5048828125 628.669921875 66.5048828125 636.002929688 c 0
 53.23046875 646.818359375 52.9306640625 659.26953125 52.9306640625 666.641601562 c 0
 52.9306640625 677.5234375 56.7880859375 686.9765625 64.50390625 695.000976562 c 0
 72.8369140625 703.66796875 86.00390625 708.000976562 104.00390625 708.000976562 c 0
 159.563476562 709.556640625 211.270507812 710.334960938 259.125 710.334960938 c 0x94
 354.82421875 710.334960938 435.1171875 707.223632812 500.00390625 701.001953125 c 0
 529.336914062 698.334960938 544.669921875 684.66796875 546.002929688 660.000976562 c 0
 546.002929688 654.000976562 545.169921875 648.16796875 543.502929688 642.500976562 c 0
 541.8359375 636.833984375 539.002929688 631.333984375 535.002929688 626.000976562 c 0
 531.002929688 620.66796875 525.669921875 616.500976562 519.002929688 613.500976562 c 0
 512.3359375 610.500976562 505.3359375 610.000976562 498.002929688 612.000976562 c 0
 478.002929688 615.333984375 429.002929688 619.000976562 351.002929688 623.000976562 c 1
 351.002929688 617.66796875 350.669921875 602.66796875 350.002929688 578.000976562 c 0
 349.3359375 553.333984375 349.002929688 533.666992188 349.002929688 519 c 2
 349.002929688 456 l 2
 349.002929688 428.666992188 349.3359375 401.666992188 350.002929688 375 c 0
 350.447265625 359.2265625 350.668945312 342.157226562 350.668945312 323.791992188 c 0x24
 350.668945312 287.047851562 349.780273438 245.1171875 348.001953125 198 c 0
 345.334960938 127.333007812 344.001953125 85.3330078125 344.001953125 72 c 1
 372.668945312 72 406.001953125 71.8330078125 444.001953125 71.5 c 0
 482.001953125 71.1669921875 502.334960938 71 505.001953125 71 c 0
 520.334960938 71 531.16796875 67.5 537.500976562 60.5 c 0
 543.833984375 53.5 547.000976562 44.3330078125 547.000976562 33 c 0
 547.000976562 27 546.66796875 21.5 546.000976562 16.5 c 0
 545.333984375 11.5 543.333984375 6.5 540.000976562 1.5 c 0
 536.66796875 -3.5 532.16796875 -7.1669921875 526.500976562 -9.5 c 0
 520.833984375 -11.8330078125 513.666992188 -12.3330078125 505 -11 c 0x68
EndSplineSet
Validated: 524289
EndChar

StartChar: J
Encoding: 74 74 42
Width: 593
GlyphClass: 2
Flags: HMW
HStem: -35.001 101.001 625 82.999
VStem: 44.0039 89 307.003 93.9971
LayerCount: 2
Fore
SplineSet
398 215 m 0
 392.666992188 155 384.66796875 106.33203125 374.000976562 68.9990234375 c 0
 363.333984375 31.666015625 350.333984375 4.9990234375 335.000976562 -11.0009765625 c 0
 319.66796875 -27.0009765625 301.66796875 -35.0009765625 281.000976562 -35.0009765625 c 0
 258.333984375 -35.0009765625 236.000976562 -31.0009765625 214.000976562 -23.0009765625 c 0
 192.000976562 -15.0009765625 172.833984375 -4.333984375 156.500976562 8.9990234375 c 0
 140.16796875 22.33203125 125.000976562 36.83203125 111.000976562 52.4990234375 c 0
 97.0009765625 68.166015625 85.333984375 83.8330078125 76.0009765625 99.5 c 0
 66.66796875 115.166992188 59.3349609375 129.166992188 54.001953125 141.5 c 0
 48.6689453125 153.833007812 45.6689453125 163.666015625 45.001953125 170.999023438 c 0
 43.6689453125 176.999023438 43.3359375 184.166015625 44.0029296875 192.499023438 c 0
 44.669921875 200.83203125 46.169921875 208.665039062 48.5029296875 215.998046875 c 0
 50.8359375 223.331054688 54.8359375 229.831054688 60.5029296875 235.498046875 c 0
 66.169921875 241.165039062 74.0029296875 244.665039062 84.0029296875 245.998046875 c 0
 87.55859375 246.64453125 90.9482421875 246.967773438 94.1708984375 246.967773438 c 0
 104.241210938 246.967773438 112.684570312 243.811523438 119.502929688 237.499023438 c 0
 128.502929688 229.166015625 133.002929688 218.666015625 133.002929688 205.999023438 c 0
 133.002929688 198.666015625 134.3359375 189.833007812 137.002929688 179.5 c 0
 139.669921875 169.166992188 144.169921875 157.166992188 150.502929688 143.5 c 0
 156.8359375 129.833007812 164.668945312 117.333007812 174.001953125 106 c 0
 183.334960938 94.6669921875 196.501953125 85.1669921875 213.501953125 77.5 c 0
 230.501953125 69.8330078125 248.668945312 66 268.001953125 66 c 0
 292.001953125 66 305.668945312 124 309.001953125 240 c 0
 309.001953125 254.666992188 308.334960938 301.666992188 307.001953125 381 c 0
 306.3359375 420.666015625 306.002929688 460.749023438 306.002929688 501.249023438 c 0
 306.002929688 541.749023438 306.3359375 582.666015625 307.001953125 624 c 1
 262.203125 625.200195312 220.5234375 625.799804688 181.963867188 625.799804688 c 0
 156.256835938 625.799804688 131.936523438 625.533203125 109.002929688 625 c 0
 92.3359375 625 79.6689453125 628.666992188 71.001953125 636 c 0
 58.2734375 646.76953125 57.927734375 659.155273438 57.927734375 666.639648438 c 0
 57.927734375 677.521484375 61.78515625 686.974609375 69.5009765625 694.999023438 c 0
 77.833984375 703.666015625 90.6669921875 707.999023438 108 707.999023438 c 0
 163.559570312 709.5546875 215.229492188 710.333007812 263.009765625 710.333007812 c 0
 358.561523438 710.333007812 438.55859375 707.221679688 503.000976562 701 c 0
 532.333984375 698.333007812 548.000976562 684.666015625 550.000976562 659.999023438 c 0
 550.000976562 653.999023438 549.000976562 648.166015625 547.000976562 642.499023438 c 0
 545.000976562 636.83203125 542.333984375 631.33203125 539.000976562 625.999023438 c 0
 535.66796875 620.666015625 530.66796875 616.499023438 524.000976562 613.499023438 c 0
 517.333984375 610.499023438 509.666992188 609.999023438 501 611.999023438 c 0
 477.666992188 615.33203125 442 618.33203125 394 620.999023438 c 1
 394 601.666015625 394.666992188 572.333007812 396 533 c 0
 397.333007812 493.666992188 398.5 457.833984375 399.5 425.500976562 c 0
 400.5 393.16796875 401 357.16796875 401 317.500976562 c 0
 401 277.833984375 400 243.666992188 398 215 c 0
EndSplineSet
Validated: 524289
EndChar

StartChar: K
Encoding: 75 75 43
Width: 593
GlyphClass: 2
Flags: HMW
HStem: -21.0751 21G 694.072 20G
VStem: 53.7354 95.2646
LayerCount: 2
Fore
SplineSet
157 24 m 0
 155.666992188 10 149.171875 -1.16796875 137.504882812 -9.5009765625 c 0
 126.702148438 -17.216796875 114.614257812 -21.07421875 101.240234375 -21.07421875 c 0
 100.169921875 -21.07421875 99.0908203125 -21.0498046875 98.00390625 -21 c 0
 84.6708984375 -21 73.6708984375 -16.5 65.00390625 -7.5 c 0
 57.4921875 0.30078125 53.736328125 10.73046875 53.736328125 23.7890625 c 0
 53.736328125 25.7978515625 53.8251953125 27.8681640625 54.0029296875 30.0009765625 c 0
 55.5029296875 52 56.2529296875 89.091796875 56.2529296875 141.276367188 c 0
 56.2529296875 158.673828125 56.169921875 177.748046875 56.0029296875 198.5 c 0
 55.3359375 281.5 53.6689453125 367 51.001953125 455 c 0
 49.6689453125 497.666992188 49.001953125 526.5 49.001953125 541.5 c 0
 49.001953125 556.5 49.501953125 578.166992188 50.501953125 606.5 c 0
 51.501953125 634.833007812 52.001953125 652.666015625 52.001953125 659.999023438 c 0
 52.6689453125 677.999023438 57.6689453125 691.499023438 67.001953125 700.499023438 c 0
 76.3349609375 709.499023438 88.001953125 713.999023438 102.001953125 713.999023438 c 0
 103.088867188 714.048828125 104.162109375 714.073242188 105.221679688 714.073242188 c 0
 118.458984375 714.073242188 129.552734375 710.215820312 138.502929688 702.5 c 0
 148.169921875 694.166992188 153.002929688 681 153.002929688 663 c 0
 153.002929688 647 152.3359375 612 151.002929688 558 c 0
 149.669921875 504 149.002929688 459.333007812 149.002929688 424 c 1
 173.002929688 447.333007812 209.002929688 482.666015625 257.002929688 529.999023438 c 0
 305.002929688 577.33203125 343.3359375 614.83203125 372.002929688 642.499023438 c 0
 400.669921875 670.166015625 419.002929688 687.333007812 427.002929688 694 c 0
 436.3359375 702.666992188 445.3359375 708.5 454.002929688 711.5 c 0
 462.669921875 714.5 470.169921875 715.166992188 476.502929688 713.5 c 0
 482.8359375 711.833007812 488.668945312 708.333007812 494.001953125 703 c 0
 501.512695312 694.911132812 505.268554688 685.946289062 505.268554688 676.10546875 c 0
 505.268554688 663.235351562 498.845703125 648.8671875 486.000976562 633 c 0
 476.000976562 621 440.66796875 584.5 380.000976562 523.5 c 0
 319.333984375 462.5 265.333984375 409.333007812 218.000976562 364 c 1
 240.66796875 340 279.16796875 302.5 333.500976562 251.5 c 0
 387.833984375 200.5 435.000976562 155.666992188 475.000976562 117 c 0
 515.000976562 78.3330078125 537.333984375 54 542.000976562 44 c 0
 544.000976562 37.666015625 545.000976562 31.666015625 545.000976562 25.9990234375 c 0
 545.000976562 20.33203125 544.000976562 14.9990234375 542.000976562 9.9990234375 c 0
 538.000976562 -0.0009765625 532.000976562 -7.66796875 524.000976562 -13.0009765625 c 0
 515.725585938 -18.5986328125 507.495117188 -21.3974609375 499.30859375 -21.3974609375 c 0
 485.071289062 -21.3974609375 470.96875 -12.931640625 457 4 c 0
 450.333007812 12.6669921875 426.5 35.6669921875 385.5 73 c 0
 344.5 110.333007812 300.333007812 151.5 253 196.5 c 0
 205.666992188 241.5 171 277.333007812 149 304 c 1
 149 284 l 2
 149 272.666992188 151.666992188 186 157 24 c 0
EndSplineSet
Validated: 524289
EndChar

StartChar: L
Encoding: 76 76 44
Width: 593
GlyphClass: 2
Flags: HMW
HStem: -15.0049 86.9159
VStem: 48.998 103.002 78.7979 91.7021
LayerCount: 2
Fore
SplineSet
502 10 m 0xc0
 456.666992188 1.3330078125 387.999023438 -5.005859375 295.999023438 -9.005859375 c 0
 203.999023438 -13.005859375 136.33203125 -15.005859375 92.9990234375 -15.005859375 c 0
 79.666015625 -15.005859375 68.666015625 -10.505859375 59.9990234375 -1.505859375 c 0
 52.4873046875 6.294921875 48.7314453125 16.724609375 48.7314453125 29.783203125 c 0
 48.7314453125 31.7919921875 48.8203125 33.8623046875 48.998046875 35.9951171875 c 0xc0
 48.998046875 41.328125 52.8310546875 79.4951171875 60.498046875 150.495117188 c 0
 68.1650390625 221.495117188 73.6650390625 289.995117188 76.998046875 355.995117188 c 0
 78.1982421875 373.995117188 78.7978515625 400.994140625 78.7978515625 436.993164062 c 0
 78.7978515625 460.993164062 78.53125 488.994140625 77.998046875 520.995117188 c 0
 76.6650390625 600.995117188 75.998046875 644.328125 75.998046875 650.995117188 c 0
 76.6650390625 668.995117188 81.83203125 682.662109375 91.4990234375 691.995117188 c 0
 101.166015625 701.328125 112.666015625 705.995117188 125.999023438 705.995117188 c 0
 127.0859375 706.044921875 128.159179688 706.069335938 129.21875 706.069335938 c 0
 142.456054688 706.069335938 153.549804688 702.211914062 162.5 694.49609375 c 0
 172.166992188 686.163085938 177 672.99609375 177 654.99609375 c 0
 177 635.663085938 176.333007812 609.330078125 175 575.997070312 c 0
 173.666992188 542.6640625 172.166992188 500.6640625 170.5 449.997070312 c 0xa0
 168.833007812 399.330078125 167.333007812 355.330078125 166 317.997070312 c 0
 165.333007812 289.997070312 162.833007812 249.330078125 158.5 195.997070312 c 0
 154.166992188 142.6640625 152 101.331054688 152 71.998046875 c 1
 156.87109375 71.9404296875 161.811523438 71.9111328125 166.821289062 71.9111328125 c 0
 219.40625 71.9111328125 279.6328125 75.107421875 347.5 81.498046875 c 0
 421.833007812 88.498046875 471.333007812 95.3310546875 496 101.998046875 c 0
 504 103.998046875 511.166992188 103.665039062 517.5 100.998046875 c 0
 523.833007812 98.3310546875 528.833007812 94.3310546875 532.5 88.998046875 c 0
 536.166992188 83.6650390625 539.166992188 77.83203125 541.5 71.4990234375 c 0
 543.833007812 65.166015625 545 59.3330078125 545 54 c 0
 545 42 542 32.3330078125 536 25 c 0
 530 17.6669921875 518.666992188 12.6669921875 502 10 c 0xc0
EndSplineSet
Validated: 524289
EndChar

StartChar: M
Encoding: 77 77 45
Width: 593
GlyphClass: 2
Flags: HMW
HStem: -9.99414 21G<67.001 73.6675>
VStem: 30.999 83.001 243.001 104.999
LayerCount: 2
Fore
SplineSet
114 59 m 0
 114.044921875 57.578125 114.068359375 56.17578125 114.068359375 54.7939453125 c 0
 114.068359375 35.443359375 109.7109375 20.0166015625 101 8.505859375 c 0
 91.6669921875 -3.8271484375 80.333984375 -9.994140625 67.0009765625 -9.994140625 c 0
 43.0009765625 -9.3271484375 31.0009765625 15.33984375 31.0009765625 64.0068359375 c 0
 31.0009765625 72.0068359375 32.0009765625 85.673828125 34.0009765625 105.006835938 c 0
 36.0009765625 124.33984375 38.5009765625 149.672851562 41.5009765625 181.005859375 c 0
 44.5009765625 212.338867188 47.0009765625 239.671875 49.0009765625 263.004882812 c 0
 49.66796875 271.004882812 50.66796875 283.337890625 52.0009765625 300.004882812 c 0
 56.0009765625 349.337890625 59.16796875 387.837890625 61.5009765625 415.504882812 c 0
 63.833984375 443.171875 67.333984375 477.671875 72.0009765625 519.004882812 c 0
 76.66796875 560.337890625 80.8349609375 592.837890625 84.501953125 616.504882812 c 0
 88.1689453125 640.171875 92.6689453125 656.671875 98.001953125 666.004882812 c 0
 104.668945312 680.004882812 114.8359375 690.171875 128.502929688 696.504882812 c 0
 139.79296875 701.736328125 150.7421875 704.352539062 161.350585938 704.352539062 c 0
 163.583007812 704.352539062 165.80078125 704.236328125 168.002929688 704.004882812 c 0
 198.002929688 704.004882812 216.669921875 691.671875 224.002929688 667.004882812 c 0
 232.002929688 637.671875 240.669921875 589.171875 250.002929688 521.504882812 c 0
 259.3359375 453.837890625 268.8359375 376.670898438 278.502929688 290.00390625 c 0
 288.169921875 203.336914062 295.002929688 146.00390625 299.002929688 118.00390625 c 1
 305.669921875 212.00390625 313.336914062 296.670898438 322.00390625 372.00390625 c 0
 328.00390625 427.336914062 336.170898438 483.00390625 346.50390625 539.00390625 c 0
 356.836914062 595.00390625 366.00390625 637.670898438 374.00390625 667.00390625 c 0
 376.670898438 677.00390625 382.170898438 685.170898438 390.50390625 691.50390625 c 0
 398.836914062 697.836914062 407.669921875 701.669921875 417.002929688 703.002929688 c 0
 423.223632812 703.891601562 429 704.3359375 434.33203125 704.3359375 c 0
 437 704.3359375 439.556640625 704.224609375 442.001953125 704.001953125 c 2
 446.001953125 704.001953125 l 1
 459.501953125 704.001953125 l 2
 463.168945312 704.001953125 468.168945312 703.168945312 474.501953125 701.501953125 c 0
 480.834960938 699.834960938 486.001953125 697.66796875 490.001953125 695.000976562 c 0
 494.001953125 692.333984375 497.668945312 688.166992188 501.001953125 682.5 c 0
 504.334960938 676.833007812 506.66796875 670 508.000976562 662 c 0
 510.66796875 642 518.334960938 544.333007812 531.001953125 369 c 0
 543.668945312 193.666992188 553.001953125 94.6669921875 559.001953125 72 c 0
 561.668945312 60.5712890625 563.001953125 50.33984375 563.001953125 41.3056640625 c 0
 563.001953125 18.720703125 554.668945312 3.6181640625 538.001953125 -4.0009765625 c 0
 532.2109375 -6.4384765625 526.419921875 -7.6572265625 520.62890625 -7.6572265625 c 2
 500 -2.5 l 2
 487.333007812 3.8330078125 478 17.666015625 472 38.9990234375 c 0
 458 83.666015625 445.666992188 278.333007812 435 623 c 1
 415.666992188 526.333007812 403 438.333007812 397 359 c 0
 391 283 382.833007812 210.833007812 372.5 142.5 c 0
 362.166992188 74.1669921875 354 32.333984375 348 17.0009765625 c 0
 340.666992188 1.0009765625 322 -6.9990234375 292 -6.9990234375 c 0
 290.333007812 -7.08203125 288.705078125 -7.1240234375 287.116210938 -7.1240234375 c 0
 275.997070312 -7.1240234375 266.791992188 -5.08203125 259.500976562 -0.9990234375 c 0
 251.16796875 3.66796875 245.66796875 10.3349609375 243.000976562 19.001953125 c 0
 235.000976562 51.001953125 221.66796875 124.501953125 203.000976562 239.501953125 c 0
 184.333984375 354.501953125 167.333984375 464.668945312 152.000976562 570.001953125 c 1
 150.000976562 548.668945312 148.16796875 524.668945312 146.500976562 498.001953125 c 0
 144.833984375 471.334960938 143.333984375 448.16796875 142.000976562 428.500976562 c 0
 140.66796875 408.833984375 138.500976562 379.666992188 135.500976562 341 c 0
 132.500976562 302.333007812 130.333984375 273 129.000976562 253 c 0
 127.66796875 225 125.66796875 196.166992188 123.000976562 166.5 c 0
 120.333984375 136.833007812 118.166992188 113.5 116.5 96.5 c 0
 114.833007812 79.5 114 67 114 59 c 0
EndSplineSet
Validated: 524289
EndChar

StartChar: N
Encoding: 78 78 46
Width: 593
GlyphClass: 2
Flags: HMW
HStem: -14.1178 21G
VStem: 51.001 82.7479 450.421 92.5787 460.002 83.18
LayerCount: 2
Fore
SplineSet
469 -14 m 0xd0
 467.5078125 -14.078125 466.045898438 -14.1181640625 464.614257812 -14.1181640625 c 0
 453.888671875 -14.1181640625 444.848632812 -11.9140625 437.497070312 -7.5029296875 c 0
 429.1640625 -2.5029296875 423.331054688 4.330078125 419.998046875 12.9970703125 c 0
 413.998046875 26.330078125 397.998046875 55.6630859375 371.998046875 100.99609375 c 0
 345.998046875 146.329101562 319.165039062 193.49609375 291.498046875 242.49609375 c 0
 263.831054688 291.49609375 234.831054688 346.329101562 204.498046875 406.99609375 c 0
 174.165039062 467.663085938 151.33203125 519.330078125 135.999023438 561.997070312 c 1
 139.19921875 503.86328125 140.798828125 448.9296875 140.798828125 397.196289062 c 0
 140.798828125 384.262695312 140.69921875 371.529296875 140.499023438 358.99609375 c 0
 139.499023438 296.329101562 137.999023438 232.49609375 135.999023438 167.49609375 c 0
 134.499023438 118.748046875 133.749023438 84.3427734375 133.749023438 64.2802734375 c 0
 133.749023438 55.919921875 134.065429688 44.9990234375 134.065429688 44.8046875 c 0
 134.065429688 25.599609375 129.709960938 11.330078125 120.999023438 1.9970703125 c 0
 112.25 -7.3779296875 101.743164062 -12.0654296875 89.478515625 -12.0654296875 c 0
 88.66015625 -12.0654296875 87.833984375 -12.044921875 87 -12.0029296875 c 0
 73 -12.0029296875 63.5 -6.3359375 58.5 4.9970703125 c 0
 53.5 16.330078125 51 32.9970703125 51 54.9970703125 c 0
 51 68.330078125 52 119.997070312 54 209.997070312 c 0
 56 299.997070312 57.3330078125 378.6640625 58 445.997070312 c 0
 58.1669921875 462.83203125 58.25 479.5 58.25 496.001953125 c 0
 58.25 545.5 57.5 593.499023438 56 639.998046875 c 0
 55.904296875 641.903320312 55.8564453125 643.767578125 55.8564453125 645.590820312 c 0
 55.8564453125 656.528320312 57.5712890625 665.997070312 61 673.99609375 c 0
 65 683.329101562 70.6669921875 690.162109375 78 694.495117188 c 0
 85.3330078125 698.828125 93 701.828125 101 703.495117188 c 0
 109 705.162109375 117.666992188 705.329101562 127 703.99609375 c 0
 155.666992188 703.99609375 173.666992188 691.663085938 181 666.99609375 c 0
 195 622.99609375 233.666992188 541.99609375 297 423.99609375 c 0
 360.333007812 305.99609375 414 210.663085938 458 137.99609375 c 1
 459.778320312 179.779296875 460.666992188 234.232421875 460.666992188 301.35546875 c 0
 460.666992188 334.904296875 460.4453125 371.618164062 460.000976562 411.497070312 c 0xd0
 458.66796875 531.1640625 455.66796875 609.997070312 451.000976562 647.997070312 c 0
 450.614257812 651.09375 450.420898438 654.096679688 450.420898438 657.005859375 c 0
 450.420898438 669.12890625 453.78125 679.625976562 460.501953125 688.497070312 c 0
 468.834960938 699.497070312 479.66796875 704.997070312 493.000976562 704.997070312 c 0
 500.333984375 704.997070312 506.666992188 704.1640625 512 702.497070312 c 0
 517.333007812 700.830078125 521.5 698.830078125 524.5 696.497070312 c 0
 527.5 694.1640625 530 690.331054688 532 684.998046875 c 0
 534 679.665039062 535.5 674.83203125 536.5 670.499023438 c 0
 537.5 666.166015625 538.666992188 659.333007812 540 650 c 0
 541.333007812 639.333007812 542.333007812 585.833007812 543 489.5 c 0xe0
 543.12109375 471.981445312 543.181640625 454.34765625 543.181640625 436.59765625 c 0
 543.181640625 356.741210938 541.954101562 274.541992188 539.5 190 c 0
 536.5 86.6669921875 531.333007812 27 524 11 c 0
 517.333007812 -5.6669921875 499 -14 469 -14 c 0xd0
EndSplineSet
Validated: 524289
EndChar

StartChar: O
Encoding: 79 79 47
Width: 593
GlyphClass: 2
Flags: HMW
HStem: -24 83.998 636.997 81.001
VStem: 51.999 96.3855 445.499 96.0643
LayerCount: 2
Fore
SplineSet
264 -24 m 0
 222.666992188 -23.3330078125 185.666992188 -10.8369140625 153 13.49609375 c 0
 120.333007812 37.8291015625 95.166015625 70.49609375 77.4990234375 111.49609375 c 0
 60.474609375 151.004882812 51.962890625 194.072265625 51.962890625 240.700195312 c 0
 51.962890625 242.4609375 51.974609375 244.2265625 51.9990234375 245.997070312 c 2
 51.9990234375 262.997070312 l 2
 51.9990234375 292.997070312 52.166015625 316.997070312 52.4990234375 334.997070312 c 0
 52.83203125 352.997070312 54.1650390625 376.997070312 56.498046875 406.997070312 c 0
 58.8310546875 436.997070312 62.8310546875 465.497070312 68.498046875 492.497070312 c 0
 74.1650390625 519.497070312 81.33203125 544.997070312 89.9990234375 568.997070312 c 0
 106.666015625 612.330078125 136.333007812 647.997070312 179 675.997070312 c 0
 221.666992188 703.997070312 269 717.997070312 321 717.997070312 c 0
 347.666992188 717.997070312 373.333984375 712.830078125 398.000976562 702.497070312 c 0
 422.66796875 692.1640625 444.66796875 677.331054688 464.000976562 657.998046875 c 0
 483.333984375 638.665039062 499.500976562 613.998046875 512.500976562 583.998046875 c 0
 525.500976562 553.998046875 533.66796875 520.331054688 537.000976562 482.998046875 c 0
 539.66796875 449.665039062 541.16796875 413.998046875 541.500976562 375.998046875 c 0
 541.54296875 371.251953125 541.563476562 366.498046875 541.563476562 361.736328125 c 0
 541.563476562 328.374023438 540.54296875 294.627929688 538.500976562 260.499023438 c 0
 536.16796875 221.499023438 531.66796875 190.666015625 525.000976562 167.999023438 c 0
 516.333984375 136.666015625 505.666992188 109.666015625 493 86.9990234375 c 0
 480.333007812 64.33203125 466.333007812 45.83203125 451 31.4990234375 c 0
 435.666992188 17.166015625 418 5.8330078125 398 -2.5 c 0
 378 -10.8330078125 357.5 -16.5 336.5 -19.5 c 0
 315.5 -22.5 291.333007812 -24 264 -24 c 0
264 59.99609375 m 0
 282 59.99609375 298.997070312 62.1640625 314.997070312 66.4970703125 c 0
 330.997070312 70.830078125 346.6640625 77.830078125 361.997070312 87.4970703125 c 0
 377.330078125 97.1640625 390.997070312 109.997070312 402.997070312 125.997070312 c 0
 414.997070312 141.997070312 424.330078125 160.6640625 430.997070312 181.997070312 c 0
 433.6640625 190.6640625 436.331054688 210.6640625 438.998046875 241.997070312 c 0
 441.665039062 273.330078125 443.83203125 310.663085938 445.499023438 353.99609375 c 0
 445.989257812 366.741210938 446.234375 379.428710938 446.234375 392.05859375 c 0
 446.234375 422.370117188 444.822265625 452.349609375 441.999023438 481.99609375 c 0
 437.999023438 525.99609375 423.83203125 562.829101562 399.499023438 592.49609375 c 0
 375.166015625 622.163085938 345.333007812 636.99609375 310 636.99609375 c 0
 274 636.99609375 243.833007812 623.829101562 219.5 597.49609375 c 0
 195.166992188 571.163085938 177.666992188 534.330078125 167 486.997070312 c 0
 154.58984375 433.408203125 148.384765625 371.466796875 148.384765625 301.171875 c 0
 148.384765625 288.389648438 148.58984375 275.331054688 149 261.99609375 c 0
 149.666992188 240.663085938 151.5 220.99609375 154.5 202.99609375 c 0
 157.5 184.99609375 161.666992188 166.99609375 167 148.99609375 c 0
 172.333007812 130.99609375 179.333007812 115.49609375 188 102.49609375 c 0
 196.666992188 89.49609375 207.5 79.1630859375 220.5 71.49609375 c 0
 233.5 63.8291015625 248 59.99609375 264 59.99609375 c 0
EndSplineSet
Validated: 524289
EndChar

StartChar: P
Encoding: 80 80 48
Width: 593
GlyphClass: 2
Flags: HMW
HStem: -19.0771 21G 230.001 81.9374 630.003 80.998
VStem: 71.6644 94.3366 76.7401 102.314 440.997 92.0029
LayerCount: 2
Fore
SplineSet
179.053710938 21.7568359375 m 0xec
 179.053710938 8.837890625 173.53515625 -1.2421875 162.499023438 -8.4951171875 c 0
 151.765625 -15.548828125 139.762695312 -19.0751953125 126.490234375 -19.0751953125 c 0
 125.3359375 -19.0751953125 124.171875 -19.048828125 122.998046875 -18.9951171875 c 0
 108.998046875 -18.9951171875 97.498046875 -14.828125 88.498046875 -6.4951171875 c 0
 80.6591796875 0.7626953125 76.740234375 10.9287109375 76.740234375 24.0029296875 c 0xec
 76.740234375 25.939453125 76.826171875 27.939453125 76.998046875 30.00390625 c 0
 77.6650390625 40.6708984375 77.998046875 56.50390625 77.998046875 77.50390625 c 0
 77.998046875 98.50390625 77.8310546875 124.50390625 77.498046875 155.50390625 c 0
 77.1650390625 186.50390625 76.6650390625 216.50390625 75.998046875 245.50390625 c 0
 75.3310546875 274.50390625 74.498046875 310.00390625 73.498046875 352.00390625 c 0
 72.498046875 394.00390625 71.998046875 429.00390625 71.998046875 457.00390625 c 0
 71.775390625 471.455078125 71.6640625 487.463867188 71.6640625 505.029296875 c 0xf4
 71.6640625 540.134765625 72.1083984375 581.458984375 72.9970703125 629.002929688 c 0
 69.6640625 632.3359375 67.6640625 634.002929688 66.9970703125 634.002929688 c 0
 61.6640625 642.002929688 59.8310546875 650.169921875 61.498046875 658.502929688 c 0
 63.1650390625 666.8359375 66.83203125 674.3359375 72.4990234375 681.002929688 c 0
 78.166015625 687.669921875 84.3330078125 691.669921875 91 693.002929688 c 0
 115 698.3359375 150.166992188 702.668945312 196.5 706.001953125 c 0
 242.833007812 709.334960938 275.333007812 711.001953125 294 711.001953125 c 0
 339.333007812 711.001953125 379.833007812 703.001953125 415.5 687.001953125 c 0
 451.166992188 671.001953125 479.5 646.834960938 500.5 614.501953125 c 0
 521.5 582.168945312 532.333007812 543.668945312 533 499.001953125 c 0
 533 461.668945312 526.833007812 426.501953125 514.5 393.501953125 c 0
 502.166992188 360.501953125 485.5 332.001953125 464.5 308.001953125 c 0
 443.5 284.001953125 417.666992188 265.001953125 387 251.001953125 c 0
 356.333007812 237.001953125 323 230.001953125 287 230.001953125 c 0
 235 230.001953125 194 233.668945312 164 241.001953125 c 1
 165.333007812 213.001953125 167 186.168945312 169 160.501953125 c 0
 171 134.834960938 173 108.16796875 175 80.5009765625 c 0
 177.264648438 49.16796875 179.053710938 24.41796875 179.053710938 21.7568359375 c 0xec
293.999023438 630.005859375 m 0
 270.666015625 630.005859375 228.66796875 627.336914062 168.000976562 622.00390625 c 1
 168.000976562 608.670898438 167.333984375 584.00390625 166.000976562 548.00390625 c 0xf4
 164.66796875 512.00390625 163.66796875 475.00390625 163.000976562 437.00390625 c 0
 162.333984375 399.00390625 162.000976562 362.00390625 162.000976562 326.00390625 c 1
 187.625 316.62890625 217.350585938 311.94140625 251.177734375 311.94140625 c 0
 253.43359375 311.94140625 255.708007812 311.961914062 258.000976562 312.00390625 c 0
 277.333984375 312.00390625 294.833984375 313.336914062 310.500976562 316.00390625 c 0
 326.16796875 318.670898438 339.834960938 322.337890625 351.501953125 327.004882812 c 0
 363.168945312 331.671875 373.668945312 337.838867188 383.001953125 345.505859375 c 0
 392.334960938 353.172851562 400.16796875 360.83984375 406.500976562 368.506835938 c 0
 412.833984375 376.173828125 418.166992188 385.173828125 422.5 395.506835938 c 0
 426.833007812 405.83984375 430.166015625 415.172851562 432.499023438 423.505859375 c 0
 434.83203125 431.838867188 436.665039062 441.505859375 437.998046875 452.505859375 c 0
 439.331054688 463.505859375 440.1640625 472.505859375 440.497070312 479.505859375 c 0
 440.830078125 486.505859375 440.997070312 495.005859375 440.997070312 505.005859375 c 0
 440.997070312 523.672851562 437.497070312 540.505859375 430.497070312 555.505859375 c 0
 423.497070312 570.505859375 414.830078125 582.505859375 404.497070312 591.505859375 c 0
 394.1640625 600.505859375 382.331054688 608.005859375 368.998046875 614.005859375 c 0
 355.665039062 620.005859375 342.83203125 624.172851562 330.499023438 626.505859375 c 0
 318.166015625 628.838867188 305.999023438 630.005859375 293.999023438 630.005859375 c 0
EndSplineSet
Validated: 524289
EndChar

StartChar: Q
Encoding: 81 81 49
Width: 593
GlyphClass: 2
Flags: HMW
HStem: -24.1963 84.2021 637.005 80.9971
VStem: 48.0695 95.6075 252.858 73.1323 446.101 93.3379
LayerCount: 2
Fore
SplineSet
523 -206 m 0
 515.890625 -210.443359375 508.481445312 -212.6640625 500.77734375 -212.6640625 c 0
 496.921875 -212.6640625 492.993164062 -212.108398438 488.991210938 -210.997070312 c 0
 476.991210938 -207.6640625 466.32421875 -199.997070312 456.991210938 -187.997070312 c 0
 447.658203125 -175.997070312 431.658203125 -153.6640625 408.991210938 -120.997070312 c 0
 386.32421875 -88.330078125 364.32421875 -54.9970703125 342.991210938 -20.9970703125 c 1
 329.125976562 -23.130859375 314.194335938 -24.197265625 298.1953125 -24.197265625 c 0
 294.194335938 -24.197265625 290.125976562 -24.130859375 285.991210938 -23.9970703125 c 0
 256.658203125 -23.9970703125 229.325195312 -19.330078125 203.9921875 -9.9970703125 c 0
 178.659179688 -0.6640625 156.826171875 12.3359375 138.493164062 29.0029296875 c 0
 120.16015625 45.669921875 104.327148438 65.5029296875 90.994140625 88.5029296875 c 0
 77.6611328125 111.502929688 67.6611328125 136.169921875 60.994140625 162.502929688 c 0
 54.3271484375 188.8359375 50.3271484375 216.668945312 48.994140625 246.001953125 c 0
 48.3779296875 263.084960938 48.0693359375 279.766601562 48.0693359375 296.046875 c 0
 48.0693359375 403.024414062 61.3779296875 492.67578125 87.994140625 565.001953125 c 0
 105.327148438 609.001953125 134.994140625 645.501953125 176.994140625 674.501953125 c 0
 218.994140625 703.501953125 265.994140625 718.001953125 317.994140625 718.001953125 c 0
 345.327148438 718.001953125 370.827148438 713.334960938 394.494140625 704.001953125 c 0
 418.161132812 694.668945312 439.661132812 681.001953125 458.994140625 663.001953125 c 0
 478.327148438 645.001953125 494.494140625 620.668945312 507.494140625 590.001953125 c 0
 520.494140625 559.334960938 529.327148438 523.66796875 533.994140625 483.000976562 c 0
 537.624023438 447.220703125 539.439453125 405.2890625 539.439453125 357.20703125 c 0
 539.439453125 343.473632812 539.291015625 329.23828125 538.995117188 314.500976562 c 0
 537.662109375 248.16796875 533.329101562 197.66796875 525.99609375 163.000976562 c 0
 511.99609375 91.0009765625 479.329101562 39.66796875 427.99609375 9.0009765625 c 1
 441.329101562 -10.33203125 455.49609375 -29.9990234375 470.49609375 -49.9990234375 c 0
 485.49609375 -69.9990234375 499.829101562 -88.666015625 513.49609375 -105.999023438 c 0
 527.163085938 -123.33203125 536.330078125 -134.999023438 540.997070312 -140.999023438 c 0
 545.6640625 -148.33203125 547.331054688 -156.33203125 545.998046875 -164.999023438 c 0
 544.665039062 -173.666015625 541.83203125 -181.833007812 537.499023438 -189.5 c 0
 533.166015625 -197.166992188 528.333007812 -202.666992188 523 -206 c 0
145.991210938 262.004882812 m 0
 147.991210938 224.004882812 155.157226562 189.837890625 167.490234375 159.504882812 c 0
 179.823242188 129.171875 196.323242188 105.004882812 216.990234375 87.0048828125 c 0
 237.657226562 69.0048828125 260.657226562 60.0048828125 285.990234375 60.0048828125 c 2
 295.990234375 60.0048828125 l 1
 279.990234375 90.0048828125 268.657226562 113.337890625 261.990234375 130.004882812 c 0
 255.90234375 146.33203125 252.858398438 160.706054688 252.858398438 173.127929688 c 0
 252.858398438 190.630859375 258.90234375 204.256835938 270.990234375 214.005859375 c 0
 276.990234375 218.672851562 283.490234375 221.505859375 290.490234375 222.505859375 c 0
 297.490234375 223.505859375 304.157226562 221.505859375 310.490234375 216.505859375 c 0
 316.823242188 211.505859375 321.990234375 204.005859375 325.990234375 194.005859375 c 0
 337.990234375 160.672851562 355.323242188 124.33984375 377.990234375 85.0068359375 c 1
 406.657226562 104.33984375 425.657226562 135.33984375 434.990234375 178.006835938 c 0
 436.990234375 188.006835938 439.157226562 208.173828125 441.490234375 238.506835938 c 0
 443.823242188 268.83984375 445.323242188 306.672851562 445.990234375 352.005859375 c 0
 446.064453125 357.044921875 446.1015625 362.059570312 446.1015625 367.049804688 c 0
 446.1015625 406.948242188 443.731445312 445.266601562 438.991210938 482.004882812 c 0
 433.658203125 529.337890625 419.158203125 567.004882812 395.491210938 595.004882812 c 0
 371.82421875 623.004882812 342.32421875 637.004882812 306.991210938 637.004882812 c 0
 270.32421875 637.004882812 239.82421875 624.004882812 215.491210938 598.004882812 c 0
 191.158203125 572.004882812 173.658203125 535.671875 162.991210938 489.004882812 c 0
 150.115234375 437.5 143.676757812 382.5 143.676757812 324.004882812 c 0
 143.676757812 303.756835938 144.448242188 283.08984375 145.991210938 262.004882812 c 0
EndSplineSet
Validated: 524289
EndChar

StartChar: R
Encoding: 82 82 50
Width: 593
GlyphClass: 2
Flags: HMW
HStem: -19.0801 21G 694.06 20G
VStem: 53.002 95 57.4565 102.598 57.502 93.498 61.002 81 438.002 92
LayerCount: 2
Fore
SplineSet
160.053710938 21.755859375 m 0xd2
 160.053710938 8.8369140625 154.5390625 -1.248046875 143.502929688 -8.5 c 0
 132.76953125 -15.5537109375 120.485351562 -19.080078125 106.649414062 -19.080078125 c 0
 105.4453125 -19.080078125 104.229492188 -19.0537109375 103.001953125 -19 c 0
 89.001953125 -19 77.501953125 -14.8330078125 68.501953125 -6.5 c 0
 61.138671875 0.318359375 57.45703125 9.703125 57.45703125 21.6533203125 c 0xd2
 57.45703125 24.30859375 57.638671875 27.0908203125 58.001953125 30 c 0
 60.6689453125 64.6669921875 62.001953125 94.1669921875 62.001953125 118.5 c 0
 62.001953125 142.833007812 61.6689453125 202.666015625 61.001953125 297.999023438 c 0xc6
 61.001953125 310.666015625 61.6689453125 337.833007812 63.001953125 379.5 c 0
 63.66796875 400.333984375 64.0009765625 420.625976562 64.0009765625 440.375976562 c 0
 64.0009765625 460.125976562 63.66796875 479.333984375 63.001953125 498 c 0
 62.3349609375 520.666992188 60.501953125 551.333984375 57.501953125 590.000976562 c 0xca
 54.501953125 628.66796875 53.001953125 652.000976562 53.001953125 660.000976562 c 2
 53.001953125 666.000976562 l 2xe2
 52.95703125 666.845703125 52.9345703125 667.68359375 52.9345703125 668.513671875 c 0
 52.9345703125 680.127929688 57.2900390625 690.290039062 66.0009765625 699.000976562 c 0
 74.158203125 709.040039062 85.267578125 714.059570312 99.3291015625 714.059570312 c 0
 100.208007812 714.059570312 101.098632812 714.040039062 102.000976562 714.000976562 c 0
 115.333984375 714.000976562 126.000976562 711.333984375 134.000976562 706.000976562 c 1
 189.333984375 703.333984375 239.500976562 696.166992188 284.500976562 684.5 c 0
 329.500976562 672.833007812 367.000976562 658.333007812 397.000976562 641 c 0
 427.000976562 623.666992188 452.333984375 604 473.000976562 582 c 0
 493.66796875 560 508.334960938 538 517.001953125 516 c 0
 525.668945312 494 530.001953125 471.666992188 530.001953125 449 c 0
 530.001953125 432.333007812 527.834960938 417 523.501953125 403 c 0
 519.168945312 389 513.001953125 376.833007812 505.001953125 366.5 c 0
 497.001953125 356.166992188 486.668945312 347 474.001953125 339 c 0
 461.334960938 331 447.834960938 324.166992188 433.501953125 318.5 c 0
 419.168945312 312.833007812 402.168945312 307.833007812 382.501953125 303.5 c 0
 362.834960938 299.166992188 343.334960938 295.833984375 324.001953125 293.500976562 c 0
 304.668945312 291.16796875 283.001953125 289.000976562 259.001953125 287.000976562 c 1
 326.334960938 252.333984375 385.66796875 211.833984375 437.000976562 165.500976562 c 0
 488.333984375 119.16796875 522.000976562 79.66796875 538.000976562 47.0009765625 c 0
 540.000976562 41.0009765625 541.000976562 35.2509765625 541.000976562 29.7509765625 c 0
 541.000976562 24.2509765625 540.000976562 19.0009765625 538.000976562 14.0009765625 c 0
 534.000976562 4.0009765625 527.66796875 -3.9990234375 519.000976562 -9.9990234375 c 0
 511.66796875 -15.3759765625 503.88671875 -18.064453125 495.657226562 -18.064453125 c 0
 492.6640625 -18.064453125 489.611328125 -17.708984375 486.5 -16.998046875 c 0
 474.833007812 -14.3310546875 464 -6.3310546875 454 7.001953125 c 0
 443.333007812 21.001953125 428.166015625 38.1689453125 408.499023438 58.501953125 c 0
 388.83203125 78.8349609375 365.165039062 101.501953125 337.498046875 126.501953125 c 0
 309.831054688 151.501953125 278.331054688 176.168945312 242.998046875 200.501953125 c 0
 207.665039062 224.834960938 173.33203125 244.334960938 139.999023438 259.001953125 c 1
 141.999023438 220.334960938 145.666015625 174.66796875 150.999023438 122.000976562 c 0xca
 153.875 93.6025390625 160.053710938 31.578125 160.053710938 21.755859375 c 0xd2
153.00390625 498 m 0
 153.00390625 490.666992188 152.505859375 480.833984375 151.505859375 468.500976562 c 0
 150.505859375 456.16796875 149.672851562 445.16796875 149.005859375 435.500976562 c 0
 148.338867188 425.833984375 147.171875 412.500976562 145.504882812 395.500976562 c 0
 143.837890625 378.500976562 142.670898438 366.333984375 142.00390625 359.000976562 c 1xc6
 150.00390625 357.4765625 160.2890625 356.71484375 172.859375 356.71484375 c 0
 182.288085938 356.71484375 193.002929688 357.143554688 205.00390625 358.000976562 c 0
 232.336914062 359.333984375 255.336914062 360.833984375 274.00390625 362.500976562 c 0
 292.670898438 364.16796875 311.50390625 366.500976562 330.50390625 369.500976562 c 0
 349.50390625 372.500976562 365.00390625 376.000976562 377.00390625 380.000976562 c 0
 389.00390625 384.000976562 400.00390625 389.000976562 410.00390625 395.000976562 c 0
 420.00390625 401.000976562 427.170898438 408.16796875 431.50390625 416.500976562 c 0
 435.836914062 424.833984375 438.00390625 434.333984375 438.00390625 445.000976562 c 0
 438.00390625 463.66796875 431.170898438 481.66796875 417.50390625 499.000976562 c 0
 403.836914062 516.333984375 386.50390625 531.666992188 365.50390625 545 c 0
 344.50390625 558.333007812 320.670898438 570.5 294.00390625 581.5 c 0
 267.336914062 592.5 241.836914062 601.333007812 217.50390625 608 c 0
 193.170898438 614.666992188 170.00390625 620 148.00390625 624 c 1xe2
 150.00390625 575.333007812 151.670898438 533.333007812 153.00390625 498 c 0
EndSplineSet
Validated: 524289
EndChar

StartChar: S
Encoding: 83 83 51
Width: 593
GlyphClass: 2
Flags: HMW
HStem: -29 85<245.663 266.996 245.663 270.333> 645.001 79.001
VStem: 76.998 100.001 448.996 99.0029
LayerCount: 2
Fore
SplineSet
56 66 m 0
 49.560546875 79.3740234375 46.3388671875 90.9111328125 46.3388671875 100.60546875 c 0
 46.3388671875 103.958984375 46.724609375 107.091796875 47.4951171875 110.00390625 c 0
 50.4951171875 121.336914062 57.662109375 130.00390625 68.9951171875 136.00390625 c 0
 76.9951171875 139.336914062 83.328125 141.669921875 87.9951171875 143.002929688 c 0
 92.662109375 144.3359375 97.8291015625 144.668945312 103.49609375 144.001953125 c 0
 109.163085938 143.334960938 114.663085938 140.66796875 119.99609375 136.000976562 c 0
 125.329101562 131.333984375 131.329101562 124.666992188 137.99609375 116 c 0
 149.99609375 98 166.49609375 83.5 187.49609375 72.5 c 0
 208.49609375 61.5 232.329101562 56 258.99609375 56 c 0
 274.99609375 56 291.663085938 58.1669921875 308.99609375 62.5 c 0
 326.329101562 66.8330078125 343.329101562 73.5 359.99609375 82.5 c 0
 376.663085938 91.5 391.663085938 102 404.99609375 114 c 0
 418.329101562 126 428.99609375 140.166992188 436.99609375 156.5 c 0
 444.99609375 172.833007812 448.99609375 190 448.99609375 208 c 0
 448.99609375 218 448.329101562 227 446.99609375 235 c 0
 445.663085938 243 443.163085938 251.666992188 439.49609375 261 c 0
 435.829101562 270.333007812 430.829101562 278.833007812 424.49609375 286.5 c 0
 418.163085938 294.166992188 409.330078125 301.833984375 397.997070312 309.500976562 c 0
 386.6640625 317.16796875 373.331054688 324.000976562 357.998046875 330.000976562 c 0
 342.665039062 336.000976562 323.998046875 341.500976562 301.998046875 346.500976562 c 0
 279.998046875 351.500976562 255.331054688 355.333984375 227.998046875 358.000976562 c 0
 203.998046875 360.66796875 182.165039062 367.000976562 162.498046875 377.000976562 c 0
 142.831054688 387.000976562 126.998046875 399.16796875 114.998046875 413.500976562 c 0
 102.998046875 427.833984375 93.6650390625 442.833984375 86.998046875 458.500976562 c 0
 80.3310546875 474.16796875 76.998046875 490.000976562 76.998046875 506.000976562 c 0
 76.998046875 528.66796875 80.8310546875 550.500976562 88.498046875 571.500976562 c 0
 96.1650390625 592.500976562 107.998046875 612.333984375 123.998046875 631.000976562 c 0
 139.998046875 649.66796875 159.331054688 665.834960938 181.998046875 679.501953125 c 0
 204.665039062 693.168945312 231.83203125 704.001953125 263.499023438 712.001953125 c 0
 295.166015625 720.001953125 328.999023438 724.001953125 364.999023438 724.001953125 c 0
 382.999023438 724.001953125 407.666015625 722.501953125 438.999023438 719.501953125 c 0
 470.33203125 716.501953125 491.665039062 712.668945312 502.998046875 708.001953125 c 0
 515.665039062 703.334960938 524.83203125 696.001953125 530.499023438 686.001953125 c 0
 535.086914062 677.90625 537.380859375 669.373046875 537.380859375 660.403320312 c 0
 537.380859375 658.293945312 537.25390625 656.16015625 537 654.001953125 c 0
 536.333007812 646.001953125 533.666015625 639.668945312 528.999023438 635.001953125 c 0
 524.33203125 630.334960938 518.665039062 627.66796875 511.998046875 627.000976562 c 0
 505.331054688 626.333984375 499.331054688 626.166992188 493.998046875 626.5 c 0
 488.665039062 626.833007812 482.998046875 628 476.998046875 630 c 0
 475.665039062 630 473.665039062 630.666992188 470.998046875 632 c 0
 458.998046875 634.666992188 449.498046875 636.833984375 442.498046875 638.500976562 c 0
 435.498046875 640.16796875 424.331054688 641.66796875 408.998046875 643.000976562 c 0
 393.665039062 644.333984375 376.33203125 645.000976562 356.999023438 645.000976562 c 0
 326.33203125 645.000976562 297.499023438 640.500976562 270.499023438 631.500976562 c 0
 243.499023438 622.500976562 221.166015625 609.000976562 203.499023438 591.000976562 c 0
 185.83203125 573.000976562 176.999023438 553.000976562 176.999023438 531.000976562 c 0
 176.999023438 505.000976562 188.33203125 483.000976562 210.999023438 465.000976562 c 0
 233.666015625 447.000976562 265.666015625 437.333984375 306.999023438 436.000976562 c 0
 344.33203125 434.000976562 377.33203125 428.16796875 405.999023438 418.500976562 c 0
 434.666015625 408.833984375 457.666015625 397.166992188 474.999023438 383.5 c 0
 492.33203125 369.833007812 506.83203125 353.833007812 518.499023438 335.5 c 0
 530.166015625 317.166992188 537.999023438 299 541.999023438 281 c 0
 545.999023438 263 547.999023438 244.333007812 547.999023438 225 c 0
 547.999023438 194.333007812 542.83203125 165.5 532.499023438 138.5 c 0
 522.166015625 111.5 507.833007812 87.8330078125 489.5 67.5 c 0
 471.166992188 47.1669921875 449.666992188 29.6669921875 425 15 c 0
 400.333007812 0.3330078125 373.5 -10.6669921875 344.5 -18 c 0
 315.5 -25.3330078125 285.666992188 -29 255 -29 c 0
 208.333007812 -29 167 -19.8330078125 131 -1.5 c 0
 95 16.8330078125 70 39.3330078125 56 66 c 0
EndSplineSet
Validated: 524289
EndChar

StartChar: T
Encoding: 84 84 52
Width: 593
GlyphClass: 2
Flags: HMW
HStem: -13.0725 21G 621 80
VStem: 248.865 100.135 257.731 103.269
LayerCount: 2
Fore
SplineSet
361 33 m 0xd0
 359.666992188 19 352.997070312 7.6630859375 340.997070312 -1.00390625 c 0
 329.854492188 -9.0517578125 317.849609375 -13.0751953125 304.982421875 -13.0751953125 c 0
 303.9921875 -13.0751953125 302.997070312 -13.0517578125 301.997070312 -13.00390625 c 0
 288.6640625 -13.00390625 277.6640625 -8.50390625 268.997070312 0.49609375 c 0
 261.485351562 8.296875 257.729492188 18.9765625 257.729492188 32.5361328125 c 0xd0
 257.729492188 34.6220703125 257.818359375 36.775390625 257.99609375 38.9970703125 c 0
 258.627929688 48.470703125 258.943359375 64.208984375 258.943359375 86.212890625 c 0
 258.943359375 133.891601562 257.4609375 210.986328125 254.49609375 317.498046875 c 0
 250.741210938 452.399414062 248.86328125 546.37109375 248.86328125 599.413085938 c 0
 248.86328125 607.578125 248.908203125 614.7734375 248.997070312 620.999023438 c 1
 161.6640625 624.999023438 111.331054688 627.999023438 97.998046875 629.999023438 c 0
 48.6416015625 637.741210938 45.9267578125 659.939453125 45.9267578125 671.694335938 c 0
 45.9267578125 683.279296875 49.9501953125 693.713867188 57.998046875 702.999023438 c 0
 64.498046875 710.499023438 73.435546875 714.249023438 84.810546875 714.249023438 c 0
 88.6025390625 714.249023438 92.6650390625 713.83203125 96.998046875 712.999023438 c 0
 133.665039062 706.999023438 268.998046875 702.999023438 502.998046875 700.999023438 c 0
 518.998046875 700.999023438 530.331054688 696.999023438 536.998046875 688.999023438 c 0
 543.665039062 680.999023438 547.33203125 671.33203125 547.999023438 659.999023438 c 0
 547.999023438 646.666015625 544.166015625 634.999023438 536.499023438 624.999023438 c 0
 529.734375 616.17578125 519.725585938 611.764648438 506.47265625 611.764648438 c 0
 504.706054688 611.764648438 502.881835938 611.842773438 501 612 c 0
 495.666992188 612 445 613.666992188 349 617 c 1xe0
 349.666992188 481 353.666992188 286.333007812 361 33 c 0xd0
EndSplineSet
Validated: 524289
EndChar

